<svg width="1204" height="657" viewBox="0 0 1204 657" fill="none" xmlns="http://www.w3.org/2000/svg">
<g clip-path="url(#clip0_592_1670)">
<mask id="mask0_592_1670" style="mask-type:luminance" maskUnits="userSpaceOnUse" x="0" y="0" width="1204" height="657">
<path d="M0 0H1204V657H0V0Z" fill="white"/>
</mask>
<g mask="url(#mask0_592_1670)">
<mask id="mask1_592_1670" style="mask-type:luminance" maskUnits="userSpaceOnUse" x="0" y="0" width="1204" height="657">
<path d="M0 0H1204V657H0V0Z" fill="white"/>
</mask>
<g mask="url(#mask1_592_1670)">
<path fill-rule="evenodd" clip-rule="evenodd" d="M3.95264 2.84814V71.2065H43.4799V54.1986L40.713 50.8756V22.7044L43.4799 19.3814V2.84814H3.95264ZM5.53373 4.74699H41.8988V18.5953L39.1319 21.9182V51.6617L41.8988 54.9847V69.3077H5.53373V4.74699Z" fill="#6D6D6D"/>
<path d="M28.0645 18.6135V30.0066H18.559V18.6135H19.7353V28.5939H22.7331V18.6135H28.0645ZM23.8904 28.5939H26.8882V20.0263H23.8904V28.5939ZM28.0645 43.6688H18.597V32.2757H28.0645V43.6688ZM26.0724 33.6884H19.7733V41.2762L26.0724 33.6884ZM26.8882 42.256V34.6683L20.5891 42.256H26.8882ZM19.7923 57.3319H18.54V50.8151H26.8123V45.9388H28.0645V57.3319H26.8123V52.319H19.7923V57.3319Z" fill="white"/>
<path fill-rule="evenodd" clip-rule="evenodd" d="M3.95264 69.3079V137.666H43.4799V120.658L40.713 117.335V89.1641L43.4799 85.8411V69.3079H3.95264ZM5.53373 71.2067H41.8988V85.055L39.1319 88.378V118.121L41.8988 121.444V135.767H5.53373V71.2067Z" fill="#6D6D6D"/>
<path d="M28.0645 96.4661H26.8882V92.0455L23.9094 88.4681V96.4661H18.597V85.073H19.7543V95.0533H22.7331V85.073L28.0645 91.4531V96.4661ZM28.0645 110.128H18.597V98.7352H28.0645V110.128ZM26.0724 100.148H19.7733V107.736L26.0724 100.148ZM26.8882 108.716V101.128L20.5891 108.716H26.8882ZM19.7923 123.791H18.54V117.275H26.8123V112.398H28.0645V123.791H26.8123V118.778H19.7923V123.791Z" fill="white"/>
<path fill-rule="evenodd" clip-rule="evenodd" d="M3.95264 135.767V204.126H43.4799V187.118L40.713 183.795V155.624L43.4799 152.301V135.767H3.95264ZM5.53373 137.666H41.8988V151.514L39.1319 154.837V184.581L41.8988 187.904V202.227H5.53373V137.666Z" fill="#6D6D6D"/>
<path d="M23.9094 162.926H18.578V161.513H22.7331V152.945H18.578V151.532H28.0645V152.945H23.9094V162.926ZM28.0645 176.588H18.597V165.195H28.0645V176.588ZM26.0724 166.607H19.7733V174.195L26.0724 166.607ZM26.8882 175.175V167.587L20.5891 175.175H26.8882ZM19.7923 190.251H18.54V183.734H26.8123V178.858H28.0645V190.251H26.8123V185.238H19.7923V190.251Z" fill="white"/>
<path fill-rule="evenodd" clip-rule="evenodd" d="M3.95264 202.227V270.585H43.4799V253.577L40.713 250.254V222.083L43.4799 218.76V202.227H3.95264ZM5.53373 204.126H41.8988V217.974L39.1319 221.297V251.04L41.8988 254.363V268.686H5.53373V204.126Z" fill="#6D6D6D"/>
<path d="M28.0645 229.385H26.8882V219.405H23.9094V224.395H22.7331V219.405H19.7543V229.385H18.578V217.992H28.0645V229.385ZM28.0645 243.047H18.597V231.654H28.0645V243.047ZM26.0724 233.067H19.7733V240.655L26.0724 233.067ZM26.8882 241.634V234.047L20.5891 241.634H26.8882ZM19.7923 256.71H18.54V250.193H26.8123V245.317H28.0645V256.71H26.8123V251.697H19.7923V256.71Z" fill="white"/>
<path fill-rule="evenodd" clip-rule="evenodd" d="M3.95264 268.687V337.045H43.4799V320.037L40.713 316.714V288.543L43.4799 285.22V268.687H3.95264ZM5.53373 270.585H41.8988V284.434L39.1319 287.757V317.5L41.8988 320.823V335.146H5.53373V270.585Z" fill="#6D6D6D"/>
<path d="M19.7923 295.845H18.6159V284.452H23.9284V294.432H26.8882V284.452H28.0645V295.845H22.7521V285.864H19.7923V295.845ZM28.0645 309.507H18.597V298.114H28.0645V309.507ZM26.0724 299.527H19.7733V307.114L26.0724 299.527ZM26.8882 308.094V300.506L20.5891 308.094H26.8882ZM19.7923 323.17H18.54V316.653H26.8123V311.777H28.0645V323.17H26.8123V318.157H19.7923V323.17Z" fill="white"/>
<path fill-rule="evenodd" clip-rule="evenodd" d="M3.95264 335.146V403.504H43.4799V386.496L40.713 383.173V355.002L43.4799 351.679V335.146H3.95264ZM5.53373 337.045H41.8988V350.893L39.1319 354.216V383.96L41.8988 387.283V401.606H5.53373V337.045Z" fill="#6D6D6D"/>
<path d="M19.7923 362.304H18.54V355.787H26.8123V350.911H28.0645V362.304H26.8123V357.291H19.7923V362.304ZM28.0645 375.966H18.597V364.573H28.0645V375.966ZM26.0724 365.986H19.7733V373.574L26.0724 365.986ZM26.8882 374.554V366.966L20.5891 374.554H26.8882ZM19.7923 389.629H18.54V383.113H26.8123V378.236H28.0645V389.629H26.8123V384.617H19.7923V389.629Z" fill="white"/>
<path fill-rule="evenodd" clip-rule="evenodd" d="M251.235 147.16H192.103V97.7905H206.738L209.79 101.483H233.984L237.036 97.7905H251.235V147.16ZM249.654 145.262V99.6894H237.694L234.642 103.382H209.132L206.08 99.6894H193.684V145.262H249.654Z" fill="#6D6D6D"/>
<path d="M227.989 130.545V129.133H231.67L234.649 125.555H227.989V119.175H237.476V120.565H229.165V124.143H237.476L232.163 130.545H227.989ZM216.613 130.545V119.175H226.1V130.545H216.613ZM224.923 128.153V120.588H218.605L224.923 128.153ZM217.789 129.133H224.107L217.789 121.568V129.133ZM205.236 130.545V129.133H213.547V125.555H209.391V124.143H213.547V120.565H205.236V119.152H214.723V130.545H205.236Z" fill="white"/>
<path fill-rule="evenodd" clip-rule="evenodd" d="M308.787 147.16H249.654V97.7905H264.29L267.342 101.483H291.536L294.587 97.7905H308.787V147.16ZM307.206 145.262V99.6894H295.246L292.194 103.382H266.683L263.632 99.6894H251.235V145.262H307.206Z" fill="#6D6D6D"/>
<path d="M285.541 125.555V119.152H286.717V124.143H293.851V119.152H295.027V130.545H293.851V125.555H285.541ZM274.165 130.545V119.175H283.651V130.545H274.165ZM282.475 128.153V120.588H276.157L282.475 128.153ZM275.341 129.133H281.659L275.341 121.568V129.133ZM262.788 130.545V129.133H271.098V125.555H266.943V124.143H271.098V120.565H262.788V119.152H272.275V130.545H262.788Z" fill="white"/>
<path fill-rule="evenodd" clip-rule="evenodd" d="M366.338 147.16H307.206V97.7905H321.841L324.893 101.483H349.087L352.139 97.7905H366.338V147.16ZM364.757 145.262V99.6894H352.797L349.745 103.382H324.235L321.183 99.6894H308.787V145.262H364.757Z" fill="#6D6D6D"/>
<path d="M343.093 130.545V129.133H351.403V125.555H347.248V124.143H351.403V120.565H343.093V119.152H352.579V130.545H343.093ZM331.717 130.545V119.175H341.203V130.545H331.717ZM340.027 128.153V120.588H333.709L340.027 128.153ZM332.893 129.133H339.211L332.893 121.568V129.133ZM320.34 130.545V129.133H328.65V125.555H324.495V124.143H328.65V120.565H320.34V119.152H329.826V130.545H320.34Z" fill="white"/>
<path fill-rule="evenodd" clip-rule="evenodd" d="M423.89 147.16H364.757V97.7905H379.393L382.445 101.483H406.639L409.69 97.7905H423.89V147.16ZM422.309 145.262V99.6894H410.349L407.297 103.382H381.786L378.735 99.6894H366.338V145.262H422.309Z" fill="#6D6D6D"/>
<path d="M400.644 120.611V119.198H410.131V125.578H401.821V129.133H410.131V130.545H400.644V124.165H408.954V120.611H400.644ZM389.268 130.545V119.175H398.755V130.545H389.268ZM397.579 128.153V120.588H391.26L397.579 128.153ZM390.445 129.133H396.763L390.445 121.568V129.133ZM377.892 130.545V129.133H386.202V125.555H382.047V124.143H386.202V120.565H377.892V119.152H387.378V130.545H377.892Z" fill="white"/>
<path fill-rule="evenodd" clip-rule="evenodd" d="M481.442 147.16H422.309V97.7905H436.944L439.997 101.483H464.191L467.242 97.7905H481.442V147.16ZM479.861 145.262V99.6894H467.901L464.848 103.382H439.338L436.287 99.6894H423.89V145.262H479.861Z" fill="#6D6D6D"/>
<path d="M458.196 120.611V119.107H463.622V129.042H467.683V130.546H458.196V129.042H462.37V120.611H458.196ZM446.82 130.546V119.175H456.307V130.546H446.82ZM455.13 128.153V120.588H448.812L455.13 128.153ZM447.996 129.133H454.314L447.996 121.568V129.133ZM435.443 130.546V129.133H443.754V125.555H439.598V124.143H443.754V120.565H435.443V119.153H444.93V130.546H435.443Z" fill="white"/>
<path fill-rule="evenodd" clip-rule="evenodd" d="M699.632 147.16H641.922V97.7905H656.23L659.206 101.483H682.774L685.75 97.7905H699.632V147.16ZM698.051 145.262V99.6894H686.42L683.443 103.382H658.536L655.56 99.6894H643.503V145.262H698.051Z" fill="#6D6D6D"/>
<path d="M677.809 120.611V119.107H683.236V129.042H687.296V130.546H677.809V129.042H681.983V120.611H677.809ZM666.433 130.546V119.175H675.92V130.546H666.433ZM674.744 128.153V120.588H668.426L674.744 128.153ZM667.61 129.133H673.928L667.61 121.568V129.133ZM655.057 125.555V119.153H656.233V124.143H663.367V119.153H664.543V130.546H663.367V125.555H655.057Z" fill="white"/>
<path fill-rule="evenodd" clip-rule="evenodd" d="M755.761 147.16H698.051V97.7905H712.359L715.335 101.483H738.903L741.879 97.7905H755.761V147.16ZM754.18 145.262V99.6894H742.549L739.572 103.382H714.665L711.689 99.6894H699.632V145.262H754.18Z" fill="#6D6D6D"/>
<path d="M733.938 120.611V119.198H743.425V125.578H735.115V129.133H743.425V130.545H733.938V124.165H742.248V120.611H733.938ZM722.562 130.545V119.175H732.049V130.545H722.562ZM730.873 128.153V120.588H724.554L730.873 128.153ZM723.739 129.133H730.057L723.739 121.568V129.133ZM711.186 125.555V119.152H712.362V124.143H719.496V119.152H720.672V130.545H719.496V125.555H711.186Z" fill="white"/>
<path fill-rule="evenodd" clip-rule="evenodd" d="M811.889 147.16H754.18V97.7905H768.487L771.463 101.483H795.027L798.008 97.7905H811.889V147.16ZM810.308 145.262V99.6894H798.679L795.699 103.382H770.794L767.817 99.6894H755.761V145.262H810.308Z" fill="#6D6D6D"/>
<path d="M790.067 130.545V129.133H798.379V125.555H794.221V124.143H798.379V120.565H790.067V119.152H799.557V130.545H790.067ZM778.691 130.545V119.175H788.177V130.545H778.691ZM787.001 128.153V120.588H780.683L787.001 128.153ZM779.867 129.133H786.185L779.867 121.568V129.133ZM767.314 125.555V119.152H768.49V124.143H775.624V119.152H776.801V130.545H775.624V125.555H767.314Z" fill="white"/>
<path fill-rule="evenodd" clip-rule="evenodd" d="M868.018 147.16H810.309V97.7905H824.617L827.59 101.483H851.156L854.136 97.7905H868.018V147.16ZM866.437 145.262V99.6894H854.808L851.828 103.382H826.926L823.945 99.6894H811.89V145.262H866.437Z" fill="#6D6D6D"/>
<path d="M846.199 125.555V119.152H847.369V124.143H854.508V119.152H855.686V130.545H854.508V125.555H846.199ZM834.815 130.545V119.175H844.302V130.545H834.815ZM843.132 128.153V120.588H836.808L843.132 128.153ZM835.993 129.133H842.31L835.993 121.568V129.133ZM823.439 125.555V119.152H824.617V124.143H831.756V119.152H832.926V130.545H831.756V125.555H823.439Z" fill="white"/>
<path fill-rule="evenodd" clip-rule="evenodd" d="M924.147 147.16H866.438V97.7905H880.746L883.719 101.483H907.285L910.265 97.7905H924.147V147.16ZM922.566 145.262V99.6894H910.937L907.957 103.382H883.055L880.074 99.6894H868.019V145.262H922.566Z" fill="#6D6D6D"/>
<path d="M902.328 130.545V129.133H906.004L908.985 125.555H902.328V119.175H911.815V120.565H903.498V124.143H911.815L906.502 130.545H902.328ZM890.944 130.545V119.175H900.431V130.545H890.944ZM899.261 128.153V120.588H892.937L899.261 128.153ZM892.122 129.133H898.439L892.122 121.568V129.133ZM879.568 125.555V119.152H880.746V124.143H887.885V119.152H889.055V130.545H887.885V125.555H879.568Z" fill="white"/>
<path fill-rule="evenodd" clip-rule="evenodd" d="M980.276 147.16H922.566V97.7905H936.875L939.848 101.483H963.414L966.394 97.7905H980.276V147.16ZM978.695 145.262V99.6894H967.066L964.086 103.382H939.184L936.203 99.6894H924.147V145.262H978.695Z" fill="#6D6D6D"/>
<path d="M967.944 130.545H958.457V119.13H967.944V120.542H959.627V124.143H967.944V130.545ZM959.627 125.533V129.133H966.766V125.533H959.627ZM947.073 130.545V119.175H956.56V130.545H947.073ZM955.39 128.153V120.588H949.065L955.39 128.153ZM948.251 129.133H954.568L948.251 121.568V129.133ZM935.697 125.555V119.152H936.875V124.143H944.014V119.152H945.184V130.545H944.014V125.555H935.697Z" fill="white"/>
<path fill-rule="evenodd" clip-rule="evenodd" d="M251.235 364.578H192.103V315.208H206.738L209.79 318.9H233.984L237.036 315.208H251.235V364.578ZM249.654 362.679V317.107H237.694L234.642 320.799H209.132L206.08 317.107H193.684V362.679H249.654Z" fill="#6D6D6D"/>
<path d="M227.989 347.963V346.55H231.67L234.649 342.973H227.989V336.593H237.476V337.983H229.165V341.56H237.476L232.163 347.963H227.989ZM216.613 347.963V336.593H226.1V347.963H216.613ZM224.923 345.571V338.006H218.605L224.923 345.571ZM217.789 346.55H224.107L217.789 338.985V346.55ZM205.236 338.028V336.616H214.723V342.996H206.413V346.55H214.723V347.963H205.236V341.583H213.547V338.028H205.236Z" fill="white"/>
<path fill-rule="evenodd" clip-rule="evenodd" d="M308.787 364.578H249.654V315.208H264.29L267.342 318.9H291.536L294.587 315.208H308.787V364.578ZM307.206 362.679V317.107H295.246L292.194 320.799H266.683L263.632 317.107H251.235V362.679H307.206Z" fill="#6D6D6D"/>
<path d="M285.541 342.973V336.57H286.717V341.56H293.851V336.57H295.027V347.963H293.851V342.973H285.541ZM274.165 347.963V336.593H283.651V347.963H274.165ZM282.475 345.571V338.006H276.157L282.475 345.571ZM275.341 346.55H281.659L275.341 338.985V346.55ZM262.788 338.028V336.616H272.275V342.996H263.964V346.55H272.275V347.963H262.788V341.583H271.098V338.028H262.788Z" fill="white"/>
<path fill-rule="evenodd" clip-rule="evenodd" d="M366.338 364.578H307.206V315.208H321.841L324.893 318.9H349.087L352.139 315.208H366.338V364.578ZM364.757 362.679V317.107H352.797L349.745 320.799H324.235L321.183 317.107H308.787V362.679H364.757Z" fill="#6D6D6D"/>
<path d="M343.093 347.963V346.55H351.403V342.973H347.248V341.56H351.403V337.983H343.093V336.57H352.579V347.963H343.093ZM331.717 347.963V336.593H341.203V347.963H331.717ZM340.027 345.571V338.006H333.709L340.027 345.571ZM332.893 346.55H339.211L332.893 338.985V346.55ZM320.34 338.028V336.616H329.826V342.996H321.516V346.55H329.826V347.963H320.34V341.583H328.65V338.028H320.34Z" fill="white"/>
<path fill-rule="evenodd" clip-rule="evenodd" d="M423.89 364.578H364.757V315.208H379.393L382.445 318.9H406.639L409.69 315.208H423.89V364.578ZM422.309 362.679V317.107H410.349L407.297 320.799H381.786L378.735 317.107H366.338V362.679H422.309Z" fill="#6D6D6D"/>
<path d="M400.644 338.028V336.616H410.131V342.996H401.821V346.55H410.131V347.963H400.644V341.583H408.954V338.028H400.644ZM389.268 347.963V336.593H398.755V347.963H389.268ZM397.579 345.571V338.006H391.26L397.579 345.571ZM390.445 346.55H396.763L390.445 338.985V346.55ZM377.892 338.028V336.616H387.378V342.996H379.068V346.55H387.378V347.963H377.892V341.583H386.202V338.028H377.892Z" fill="white"/>
<path fill-rule="evenodd" clip-rule="evenodd" d="M481.442 364.578H422.309V315.208H436.944L439.997 318.9H464.191L467.242 315.208H481.442V364.578ZM479.861 362.679V317.107H467.901L464.848 320.799H439.338L436.287 317.107H423.89V362.679H479.861Z" fill="#6D6D6D"/>
<path d="M458.196 338.028V336.524H463.622V346.459H467.683V347.963H458.196V346.459H462.37V338.028H458.196ZM446.82 347.963V336.593H456.307V347.963H446.82ZM455.13 345.571V338.006H448.812L455.13 345.571ZM447.996 346.55H454.314L447.996 338.985V346.55ZM435.443 338.028V336.616H444.93V342.996H436.62V346.55H444.93V347.963H435.443V341.583H443.754V338.028H435.443Z" fill="white"/>
<path fill-rule="evenodd" clip-rule="evenodd" d="M251.235 150.958H192.103V200.328H206.738L209.79 196.636H233.984L237.036 200.328H251.235V150.958ZM249.654 152.857V198.429H237.694L234.642 194.737H209.132L206.08 198.429H193.684V152.857H249.654Z" fill="#6D6D6D"/>
<path d="M227.989 179.915V168.545H237.476V179.915H227.989ZM236.299 177.523V169.958H229.981L236.299 177.523ZM229.165 178.503H235.483L229.165 170.938V178.503ZM216.613 169.981V168.477H222.039V178.412H226.1V179.915H216.613V178.412H220.787V169.981H216.613ZM205.236 169.981V168.568H214.723V174.948H206.413V178.503H214.723V179.915H205.236V173.535H213.547V169.981H205.236Z" fill="white"/>
<path fill-rule="evenodd" clip-rule="evenodd" d="M308.787 150.958H249.654V200.328H264.29L267.342 196.636H291.536L294.587 200.328H308.787V150.958ZM307.206 152.857V198.429H295.246L292.194 194.737H266.683L263.632 198.429H251.235V152.857H307.206Z" fill="#6D6D6D"/>
<path d="M285.541 174.925V168.522H295.027V179.916H285.541V178.503H293.851V174.925H285.541ZM286.717 169.935V173.513H293.851V169.935H286.717ZM274.165 179.916V168.545H283.651V179.916H274.165ZM282.475 177.523V169.958H276.157L282.475 177.523ZM275.341 178.503H281.659L275.341 170.938V178.503ZM262.788 169.981V168.568H272.275V174.948H263.964V178.503H272.275V179.916H262.788V173.535H271.098V169.981H262.788Z" fill="white"/>
<path fill-rule="evenodd" clip-rule="evenodd" d="M366.338 150.958H307.206V200.328H321.841L324.893 196.636H349.087L352.139 200.328H366.338V150.958ZM364.757 152.857V198.429H352.797L349.745 194.737H324.235L321.183 198.429H308.787V152.857H364.757Z" fill="#6D6D6D"/>
<path d="M352.579 179.915H343.093V168.5H352.579V179.915ZM351.403 169.912H344.269V173.512H351.403V169.912ZM344.269 174.902V178.503H351.403V174.902H344.269ZM331.717 179.915V168.545H341.203V179.915H331.717ZM340.027 177.523V169.958H333.709L340.027 177.523ZM332.893 178.503H339.211L332.893 170.938V178.503ZM320.34 169.981V168.568H329.826V174.948H321.516V178.503H329.826V179.915H320.34V173.535H328.65V169.981H320.34Z" fill="white"/>
<path fill-rule="evenodd" clip-rule="evenodd" d="M423.89 150.958H364.757V200.328H379.393L382.445 196.636H406.639L409.69 200.328H423.89V150.958ZM422.309 152.857V198.429H410.349L407.297 194.737H381.786L378.735 198.429H366.338V152.857H422.309Z" fill="#6D6D6D"/>
<path d="M408.973 179.915V169.935H400.644V168.545H410.131V179.915H408.973ZM389.268 179.915V168.545H398.755V179.915H389.268ZM397.579 177.523V169.958H391.26L397.579 177.523ZM390.445 178.503H396.763L390.445 170.938V178.503ZM377.892 169.981V168.568H387.378V174.948H379.068V178.503H387.378V179.915H377.892V173.535H386.202V169.981H377.892Z" fill="white"/>
<path fill-rule="evenodd" clip-rule="evenodd" d="M481.442 150.958H422.309V200.328H436.944L439.997 196.636H464.191L467.242 200.328H481.442V150.958ZM479.861 152.857V198.429H467.901L464.848 194.737H439.338L436.287 198.429H423.89V152.857H479.861Z" fill="#6D6D6D"/>
<path d="M467.683 179.915H458.196V168.5H467.683V169.912H459.372V173.512H467.683V179.915ZM459.372 174.902V178.503H466.506V174.902H459.372ZM446.82 179.915V168.545H456.307V179.915H446.82ZM455.13 177.523V169.958H448.812L455.13 177.523ZM447.996 178.503H454.314L447.996 170.938V178.503ZM435.443 169.981V168.568H444.93V174.948H436.62V178.503H444.93V179.915H435.443V173.535H443.754V169.981H435.443Z" fill="white"/>
<path fill-rule="evenodd" clip-rule="evenodd" d="M173.92 2.84814V71.2065H134.393V54.1986L137.159 50.8756V22.7044L134.393 19.3814V2.84814H173.92ZM172.339 4.74699H135.974V18.5953L138.741 21.9182V51.6617L135.974 54.9847V69.3077H172.339V4.74699Z" fill="#6D6D6D"/>
<path d="M151.418 29.0571H150.241V17.6641H155.554V27.6444H158.514V17.6641H159.69V29.0571H154.378V19.0768H151.418V29.0571ZM151.418 42.7193H150.166V36.2025H158.438V31.3262H159.69V42.7193H158.438V37.7064H151.418V42.7193ZM151.418 56.3824H150.166V49.8656H158.438V44.9894H159.69V56.3824H158.438V51.3695H151.418V56.3824Z" fill="white"/>
<path fill-rule="evenodd" clip-rule="evenodd" d="M173.92 69.3079V137.666H134.393V120.658L137.159 117.335V89.1641L134.393 85.8411V69.3079H173.92ZM172.339 71.2067H135.974V85.055L138.741 88.378V118.121L135.974 121.444V135.767H172.339V71.2067Z" fill="#6D6D6D"/>
<path d="M151.418 95.5166H150.166V88.9998H158.438V84.1235H159.69V95.5166H158.438V90.5036H151.418V95.5166ZM151.418 109.179H150.166V102.662H158.438V97.7857H159.69V109.179H158.438V104.166H151.418V109.179ZM151.418 122.842H150.166V116.325H158.438V111.449H159.69V122.842H158.438V117.829H151.418V122.842Z" fill="white"/>
<path fill-rule="evenodd" clip-rule="evenodd" d="M173.92 135.767V204.126H134.393V187.118L137.159 183.795V155.624L134.393 152.301V135.767H173.92ZM172.339 137.666H135.974V151.514L138.741 154.837V184.581L135.974 187.904V202.227H172.339V137.666Z" fill="#6D6D6D"/>
<path d="M159.69 161.976H150.222V150.583H159.69V161.976ZM157.698 151.996H151.399V159.584L157.698 151.996ZM158.514 160.563V152.976L152.215 160.563H158.514ZM151.418 175.638H150.166V169.121H158.438V164.245H159.69V175.638H158.438V170.625H151.418V175.638ZM151.418 189.301H150.166V182.785H158.438V177.908H159.69V189.301H158.438V184.288H151.418V189.301Z" fill="white"/>
<path fill-rule="evenodd" clip-rule="evenodd" d="M173.92 202.227V270.585H134.393V253.577L137.159 250.254V222.083L134.393 218.76V202.227H173.92ZM172.339 204.126H135.974V217.974L138.741 221.297V251.04L135.974 254.363V268.686H172.339V204.126Z" fill="#6D6D6D"/>
<path d="M155.535 228.436H150.203V217.042H159.69V228.436H158.514V218.455H155.535V228.436ZM151.38 227.023H154.359V218.455H151.38V227.023ZM159.69 242.098H150.222V230.705H159.69V242.098ZM157.698 232.117H151.399V239.705L157.698 232.117ZM158.514 240.685V233.097L152.215 240.685H158.514ZM151.418 255.761H150.166V249.244H158.438V244.368H159.69V255.761H158.438V250.748H151.418V255.761Z" fill="white"/>
<path fill-rule="evenodd" clip-rule="evenodd" d="M173.92 268.687V337.045H134.393V320.037L137.159 316.714V288.543L134.393 285.22V268.687H173.92ZM172.339 270.585H135.974V284.434L138.741 287.757V317.5L135.974 320.823V335.146H172.339V270.585Z" fill="#6D6D6D"/>
<path d="M159.69 283.502V294.895H150.185V283.502H159.69ZM151.361 284.915V293.483H154.359V284.915H151.361ZM155.516 293.483H158.514V284.915H155.516V293.483ZM159.69 308.557H150.222V297.164H159.69V308.557ZM157.698 298.577H151.399V306.165L157.698 298.577ZM158.514 307.145V299.557L152.215 307.145H158.514ZM151.418 322.221H150.166V315.704H158.438V310.827H159.69V322.221H158.438V317.208H151.418V322.221Z" fill="white"/>
<path fill-rule="evenodd" clip-rule="evenodd" d="M173.92 335.146V403.504H134.393V386.496L137.159 383.173V355.002L134.393 351.679V335.146H173.92ZM172.339 337.045H135.974V350.893L138.741 354.216V383.96L135.974 387.283V401.606H172.339V337.045Z" fill="#6D6D6D"/>
<path d="M159.69 351.352H151.38V361.355H150.222V349.962H159.69V351.352ZM159.69 375.017H150.222V363.624H159.69V375.017ZM157.698 365.037H151.399V372.624L157.698 365.037ZM158.514 373.604V366.016L152.215 373.604H158.514ZM151.418 388.68H150.166V382.163H158.438V377.287H159.69V388.68H158.438V383.667H151.418V388.68Z" fill="white"/>
<path fill-rule="evenodd" clip-rule="evenodd" d="M1151.03 85.448V153.128H1111.51V136.277L1114.27 132.988V105.118L1111.51 101.829V85.448H1151.03ZM1149.45 87.3468H1113.09V101.038L1115.85 104.326V133.78L1113.09 137.069V151.23H1149.45V87.3468Z" fill="#6D6D6D"/>
<path d="M1128.53 110.978H1127.28V104.461H1135.55V99.585H1136.8V110.978H1135.55V105.965H1128.53V110.978ZM1136.8 124.641H1127.33V113.248H1136.8V124.641ZM1134.81 114.661H1128.51V122.249L1134.81 114.661ZM1135.63 123.228V115.641L1129.32 123.228H1135.63ZM1136.8 138.304H1135.63V133.884L1132.65 130.306V138.304H1127.33V126.911H1128.49V136.892H1131.48V126.911L1136.8 133.291V138.304Z" fill="white"/>
<path fill-rule="evenodd" clip-rule="evenodd" d="M1151.03 151.23V218.91H1111.51V202.059L1114.27 198.769V170.9L1111.51 167.611V151.23H1151.03ZM1149.45 153.129H1113.09V166.818L1115.85 170.108V199.562L1113.09 202.851V217.011H1149.45V153.129Z" fill="#6D6D6D"/>
<path d="M1128.53 176.76H1127.36V165.366H1132.67V175.347H1135.63V165.366H1136.8V176.76H1131.49V166.779H1128.53V176.76ZM1136.8 190.423H1127.33V179.03H1136.8V190.423ZM1134.81 180.442H1128.51V188.03L1134.81 180.442ZM1135.63 189.01V181.422L1129.33 189.01H1135.63ZM1136.8 204.086H1135.63V199.665L1132.65 196.088V204.086H1127.33V192.693H1128.5V202.673H1131.48V192.693L1136.8 199.073V204.086Z" fill="white"/>
<path fill-rule="evenodd" clip-rule="evenodd" d="M1151.03 217.011V284.691H1111.51V267.839L1114.27 264.551V236.681L1111.51 233.392V217.011H1151.03ZM1149.45 218.91H1113.09V232.6L1115.85 235.889V265.343L1113.09 268.632V282.792H1149.45V218.91Z" fill="#6D6D6D"/>
<path d="M1136.8 242.541H1135.63V232.561H1132.65V237.551H1131.48V232.561H1128.5V242.541H1127.32V231.148H1136.8V242.541ZM1136.8 256.204H1127.33V244.811H1136.8V256.204ZM1134.81 246.224H1128.51V253.812L1134.81 246.224ZM1135.63 254.792V247.204L1129.33 254.792H1135.63ZM1136.8 269.867H1135.63V265.446L1132.65 261.869V269.867H1127.33V258.474H1128.5V268.454H1131.48V258.474L1136.8 264.854V269.867Z" fill="white"/>
<path fill-rule="evenodd" clip-rule="evenodd" d="M1151.03 282.792V350.472H1111.51V333.621L1114.27 330.332V302.462L1111.51 299.173V282.792H1151.03ZM1149.45 284.691H1113.09V298.382L1115.85 301.67V331.124L1113.09 334.413V348.574H1149.45V284.691Z" fill="#6D6D6D"/>
<path d="M1132.65 308.323H1127.32V306.91H1131.48V298.342H1127.32V296.93H1136.8V298.342H1132.65V308.323ZM1136.8 321.985H1127.33V310.592H1136.8V321.985ZM1134.81 312.005H1128.51V319.592L1134.81 312.005ZM1135.63 320.572V312.984L1129.33 320.572H1135.63ZM1136.8 335.648H1135.63V331.228L1132.65 327.65V335.648H1127.33V324.255H1128.5V334.235H1131.48V324.255L1136.8 330.635V335.648Z" fill="white"/>
<path fill-rule="evenodd" clip-rule="evenodd" d="M1151.03 348.574V416.254H1111.51V399.403L1114.27 396.113V368.244L1111.51 364.955V348.574H1151.03ZM1149.45 350.473H1113.09V364.162L1115.85 367.452V396.906L1113.09 400.195V414.355H1149.45V350.473Z" fill="#6D6D6D"/>
<path d="M1136.8 374.104H1135.63V369.683L1132.65 366.106V374.104H1127.33V362.71H1128.5V372.691H1131.48V362.71L1136.8 369.091V374.104ZM1136.8 387.767H1127.33V376.374H1136.8V387.767ZM1134.81 377.786H1128.51V385.374L1134.81 377.786ZM1135.63 386.354V378.766L1129.33 386.354H1135.63ZM1136.8 401.429H1135.63V397.008L1132.65 393.431V401.429H1127.33V390.036H1128.5V400.016H1131.48V390.036L1136.8 396.416V401.429Z" fill="white"/>
<path fill-rule="evenodd" clip-rule="evenodd" d="M1151.03 414.355V482.035H1111.51V465.184L1114.27 461.895V434.025L1111.51 430.737V414.355H1151.03ZM1149.45 416.254H1113.09V429.944L1115.85 433.234V462.687L1113.09 465.976V480.136H1149.45V416.254Z" fill="#6D6D6D"/>
<path d="M1136.8 428.492V439.885H1127.3V428.492H1128.47V438.473H1131.47V428.492H1136.8ZM1132.63 438.473H1135.63V429.905H1132.63V438.473ZM1136.8 453.548H1127.33V442.155H1136.8V453.548ZM1134.81 443.568H1128.51V451.156L1134.81 443.568ZM1135.63 452.136V444.548L1129.32 452.136H1135.63ZM1136.8 467.211H1135.63V462.79L1132.64 459.213V467.211H1127.33V455.818H1128.49V465.798H1131.47V455.818L1136.8 462.198V467.211Z" fill="white"/>
<path fill-rule="evenodd" clip-rule="evenodd" d="M1151.03 480.136V547.816H1111.51V530.965L1114.27 527.676V499.807L1111.51 496.517V480.136H1151.03ZM1149.45 482.035H1113.09V495.725L1115.85 499.014V528.468L1113.09 531.758V545.918H1149.45V482.035Z" fill="#6D6D6D"/>
<path d="M1136.8 495.664H1128.5V505.667H1127.33V494.274H1136.8V495.664ZM1136.8 519.329H1127.33V507.936H1136.8V519.329ZM1134.81 509.349H1128.51V516.937L1134.81 509.349ZM1135.63 517.916V510.329L1129.33 517.916H1135.63ZM1136.8 532.992H1135.63V528.572L1132.65 524.994V532.992H1127.33V521.599H1128.5V531.58H1131.48V521.599L1136.8 527.979V532.992Z" fill="white"/>
<path fill-rule="evenodd" clip-rule="evenodd" d="M983.438 216.468V284.257H1022.96V267.381L1020.2 264.087V236.169L1022.96 232.874V216.468H983.438ZM985.019 218.367H1021.38V232.082L1018.62 235.377V264.877L1021.38 268.172V282.358H985.019V218.367Z" fill="#6D6D6D"/>
<path d="M1007.55 231.664V243.057H998.047V231.664H1007.55ZM999.217 233.077V241.644H1002.22V233.077H999.217ZM1003.38 241.644H1006.37V233.077H1003.38V241.644ZM1007.55 256.719H998.079V245.326H1007.55V256.719ZM1005.56 246.739H999.256V254.327L1005.56 246.739ZM1006.37 255.306V247.719L1000.07 255.306H1006.37ZM1007.55 270.382H1006.37V265.962L1003.39 262.384V270.382H998.079V258.989H999.241V268.969H1002.22V258.989L1007.55 265.369V270.382Z" fill="white"/>
<path fill-rule="evenodd" clip-rule="evenodd" d="M983.438 282.358V350.147H1022.96V333.271L1020.2 329.976V302.059L1022.96 298.764V282.358H983.438ZM985.019 284.257H1021.38V297.972L1018.62 301.267V330.767L1021.38 334.062V348.248H985.019V284.257Z" fill="#6D6D6D"/>
<path d="M1003.39 308.947H998.063V297.554H1007.55V308.947H1006.37V298.966H1003.39V308.947ZM999.241 307.534H1002.22V298.966H999.241V307.534ZM1007.55 322.609H998.079V311.216H1007.55V322.609ZM1005.56 312.629H999.257V320.216L1005.56 312.629ZM1006.37 321.196V313.608L1000.07 321.196H1006.37ZM1007.55 336.272H1006.37V331.852L1003.39 328.274V336.272H998.079V324.879H999.241V334.859H1002.22V324.879L1007.55 331.259V336.272Z" fill="white"/>
<path fill-rule="evenodd" clip-rule="evenodd" d="M983.438 348.248V416.037H1022.96V399.161L1020.2 395.866V367.949L1022.96 364.654V348.248H983.438ZM985.019 350.147H1021.38V363.862L1018.62 367.157V396.657L1021.38 399.952V414.138H985.019V350.147Z" fill="#6D6D6D"/>
<path d="M1007.55 374.836H998.079V363.443H1007.55V374.836ZM1005.56 364.856H999.257V372.444L1005.56 364.856ZM1006.37 373.424V365.836L1000.07 373.424H1006.37ZM999.28 388.499H998.023V381.982H1006.3V377.106H1007.55V388.499H1006.3V383.486H999.28V388.499ZM1007.55 402.162H1006.37V397.741L1003.39 394.164V402.162H998.079V390.769H999.241V400.749H1002.22V390.769L1007.55 397.149V402.162Z" fill="white"/>
<path fill-rule="evenodd" clip-rule="evenodd" d="M983.438 414.138V481.927H1022.96V465.051L1020.2 461.756V433.838L1022.96 430.544V414.138H983.438ZM985.019 416.037H1021.38V429.752L1018.62 433.047V462.547L1021.38 465.842V480.028H985.019V416.037Z" fill="#6D6D6D"/>
<path d="M999.28 440.726H998.023V434.209H1006.3V429.333H1007.55V440.726H1006.3V435.713H999.28V440.726ZM999.28 454.389H998.023V447.872H1006.3V442.995H1007.55V454.389H1006.3V449.376H999.28V454.389ZM1007.55 468.052H1006.37V463.631L1003.39 460.054V468.052H998.079V456.659H999.241V466.639H1002.22V456.659L1007.55 463.039V468.052Z" fill="white"/>
<path fill-rule="evenodd" clip-rule="evenodd" d="M983.438 480.028V547.817H1022.96V530.941L1020.2 527.646V499.728L1022.96 496.434V480.028H983.438ZM985.019 481.927H1021.38V495.642L1018.62 498.937V528.437L1021.38 531.731V545.918H985.019V481.927Z" fill="#6D6D6D"/>
<path d="M999.28 506.616H998.103V495.223H1003.42V505.203H1006.37V495.223H1007.55V506.616H1002.24V496.636H999.28V506.616ZM999.28 520.278H998.023V513.762H1006.3V508.885H1007.55V520.278H1006.3V515.265H999.28V520.278ZM1007.55 533.942H1006.37V529.521L1003.39 525.944V533.942H998.079V522.548H999.241V532.529H1002.22V522.548L1007.55 528.929V533.942Z" fill="white"/>
<path fill-rule="evenodd" clip-rule="evenodd" d="M751.018 255.395V324.702H713.862V307.492L716.456 304.122V275.494L713.862 272.123V255.395H751.018ZM749.437 257.293H715.443V271.38L718.037 274.75V304.865L715.443 308.236V322.803H749.437V257.293Z" fill="#EB2F96"/>
<path d="M732.598 303.375V301.871H738.024V311.805H742.084V313.309H732.598V311.805H736.772V303.375H732.598ZM721.221 303.375V301.962H730.708V308.342H722.398V311.896H730.708V313.309H721.221V306.929H729.531V303.375H721.221Z" fill="#EB2F96"/>
<path fill-rule="evenodd" clip-rule="evenodd" d="M751.018 322.803V392.111H713.862V374.901L716.456 371.531V342.903L713.862 339.532V322.803H751.018ZM749.437 324.702H715.443V338.789L718.037 342.159V372.274L715.443 375.645V390.212H749.437V324.702Z" fill="#EB2F96"/>
<path d="M732.598 370.783V369.371H742.084V375.751H733.774V379.305H742.084V380.718H732.598V374.338H740.908V370.783H732.598ZM721.221 370.783V369.371H730.708V375.751H722.398V379.305H730.708V380.718H721.221V374.338H729.531V370.783H721.221Z" fill="#EB2F96"/>
<path fill-rule="evenodd" clip-rule="evenodd" d="M751.018 390.212V459.52H713.862V442.31L716.456 438.94V410.312L713.862 406.941V390.212H751.018ZM749.437 392.111H715.443V406.198L718.037 409.568V439.683L715.443 443.053V457.621H749.437V392.111Z" fill="#EB2F96"/>
<path d="M732.598 448.127V446.714H740.908V443.137H736.753V441.724H740.908V438.147H732.598V436.734H742.084V448.127H732.598ZM721.221 438.192V436.78H730.708V443.16H722.398V446.714H730.708V448.127H721.221V441.747H729.531V438.192H721.221Z" fill="#EB2F96"/>
<path fill-rule="evenodd" clip-rule="evenodd" d="M751.018 457.621V526.929H713.862V509.719L716.456 506.349V477.721L713.862 474.35V457.621H751.018ZM749.437 459.52H715.443V473.607L718.037 476.977V507.092L715.443 510.462V525.03H749.437V459.52Z" fill="#EB2F96"/>
<path d="M732.598 510.546V504.143H733.774V509.133H740.908V504.143H742.084V515.536H740.908V510.546H732.598ZM721.221 505.601V504.189H730.708V510.569H722.398V514.123H730.708V515.536H721.221V509.156H729.531V505.601H721.221Z" fill="#EB2F96"/>
<path fill-rule="evenodd" clip-rule="evenodd" d="M751.018 525.03V594.338H713.862V577.128L716.456 573.757V545.13L713.862 541.759V525.03H751.018ZM749.437 526.929H715.443V541.016L718.037 544.386V574.501L715.443 577.871V592.439H749.437V526.929Z" fill="#EB2F96"/>
<path d="M732.598 582.945V581.532H736.279L739.257 577.955H732.598V571.575H742.084V572.965H733.774V576.542H742.084L736.772 582.945H732.598ZM721.221 573.01V571.597H730.708V577.978H722.398V581.532H730.708V582.945H721.221V576.565H729.531V573.01H721.221Z" fill="#EB2F96"/>
<path fill-rule="evenodd" clip-rule="evenodd" d="M751.808 255.395V324.702H788.964V307.492L786.37 304.122V275.494L788.964 272.123V255.395H751.808ZM753.389 257.293H787.383V271.38L784.789 274.75V304.865L787.383 308.236V322.803H753.389V257.293Z" fill="#EB2F96"/>
<path d="M769.754 303.375V301.871H775.18V311.805H779.24V313.309H769.754V311.805H773.928V303.375H769.754ZM758.377 303.375V301.871H763.803V311.805H767.863V313.309H758.377V311.805H762.551V303.375H758.377Z" fill="#EB2F96"/>
<path fill-rule="evenodd" clip-rule="evenodd" d="M751.808 322.803V392.111H788.964V374.901L786.37 371.531V342.903L788.964 339.532V322.803H751.808ZM753.389 324.702H787.383V338.789L784.789 342.159V372.274L787.383 375.645V390.212H753.389V324.702Z" fill="#EB2F96"/>
<path d="M769.754 370.783V369.371H779.24V375.751H770.93V379.305H779.24V380.718H769.754V374.338H778.064V370.783H769.754ZM758.377 370.783V369.28H763.803V379.214H767.863V380.718H758.377V379.214H762.551V370.783H758.377Z" fill="#EB2F96"/>
<path fill-rule="evenodd" clip-rule="evenodd" d="M751.808 390.212V459.52H788.964V442.31L786.37 438.94V410.312L788.964 406.941V390.212H751.808ZM753.389 392.111H787.383V406.198L784.789 409.568V439.683L787.383 443.053V457.621H753.389V392.111Z" fill="#EB2F96"/>
<path d="M769.754 448.127V446.714H778.064V443.137H773.909V441.724H778.064V438.147H769.754V436.734H779.24V448.127H769.754ZM758.377 438.192V436.688H763.803V446.623H767.863V448.127H758.377V446.623H762.551V438.192H758.377Z" fill="#EB2F96"/>
<path fill-rule="evenodd" clip-rule="evenodd" d="M751.808 457.621V526.929H788.964V509.719L786.37 506.349V477.721L788.964 474.35V457.621H751.808ZM753.389 459.52H787.383V473.607L784.789 476.977V507.092L787.383 510.462V525.03H753.389V459.52Z" fill="#EB2F96"/>
<path d="M767.459 510.546V504.143H768.636V509.133H775.77V504.143H776.946V515.536H775.77V510.546H767.459Z" fill="#EB2F96"/>
<path d="M759.881 505.601V504.097H765.308V514.032H769.368V515.536H759.881V514.032H764.055V505.601H759.881Z" fill="#EB2F96"/>
<path fill-rule="evenodd" clip-rule="evenodd" d="M751.808 525.03V594.338H788.964V577.128L786.37 573.757V545.13L788.964 541.759V525.03H751.808ZM753.389 526.929H787.383V541.016L784.789 544.386V574.501L787.383 577.871V592.439H753.389V526.929Z" fill="#EB2F96"/>
<path d="M769.754 582.945V581.532H773.434L776.413 577.955H769.754V571.575H779.24V572.965H770.93V576.542H779.24L773.928 582.945H769.754ZM758.377 573.01V571.506H763.803V581.441H767.863V582.945H758.377V581.441H762.551V573.01H758.377Z" fill="#EB2F96"/>
<path fill-rule="evenodd" clip-rule="evenodd" d="M549.429 493.699V592.439H539.942V493.699H549.429ZM551.01 594.338H538.361V491.801H551.01V594.338Z" fill="#9254DE"/>
<path fill-rule="evenodd" clip-rule="evenodd" d="M538.361 493.699V592.439H511.483C510.225 592.439 509.018 591.839 508.128 590.771C507.239 589.702 506.739 588.254 506.739 586.743V499.396C506.739 497.885 507.239 496.437 508.128 495.368C509.018 494.3 510.225 493.7 511.483 493.699H538.361ZM539.942 594.338H511.483C509.805 594.338 508.197 593.538 507.011 592.113C505.825 590.689 505.158 588.757 505.158 586.743V499.396C505.158 497.381 505.825 495.45 507.011 494.025C508.197 492.601 509.805 491.801 511.483 491.801H539.942V594.338Z" fill="#9254DE"/>
<path fill-rule="evenodd" clip-rule="evenodd" d="M550.219 541.591H505.158V543.49H550.219V541.591ZM632.436 554.462H555.753V543.069H632.436V554.462ZM554.172 556.361V541.17H634.017V556.361H554.172Z" fill="#9254DE"/>
<path fill-rule="evenodd" clip-rule="evenodd" d="M632.436 541.171H555.753V508.89C555.753 507.38 556.253 505.931 557.142 504.862C558.032 503.794 559.238 503.194 560.496 503.194H627.693C628.95 503.194 630.157 503.794 631.047 504.862C631.936 505.931 632.436 507.379 632.436 508.89V541.171ZM554.172 543.069V508.89C554.172 506.876 554.838 504.944 556.024 503.52C557.21 502.095 558.819 501.295 560.496 501.295H627.693C629.37 501.295 630.979 502.095 632.165 503.52C633.351 504.944 634.017 506.876 634.017 508.89V543.069H554.172Z" fill="#9254DE"/>
<path fill-rule="evenodd" clip-rule="evenodd" d="M595.297 555.412V501.295H593.716V555.412H595.297Z" fill="#9254DE"/>
<path fill-rule="evenodd" clip-rule="evenodd" d="M354.954 580.097V561.108H339.144V580.097H354.954ZM356.536 559.209H337.562V581.996H356.536V559.209Z" fill="#52C41A"/>
<path fill-rule="evenodd" clip-rule="evenodd" d="M384.205 571.552V569.653H356.536V571.552H384.205ZM385.786 567.754H354.955V573.451H385.786V567.754ZM337.563 571.552V569.653H309.894V571.552H337.563ZM339.144 567.754H308.312V573.451H339.144V567.754Z" fill="#52C41A"/>
<path fill-rule="evenodd" clip-rule="evenodd" d="M985.019 207.923L981.857 204.126H947.073V211.721H978.695V596.237L981.857 600.035H1036.01V592.439H985.019V207.923Z" fill="#6D6D6D"/>
<path fill-rule="evenodd" clip-rule="evenodd" d="M754.575 595.762V254.92H748.251V595.762H754.575Z" fill="#EB2F96"/>
<path fill-rule="evenodd" clip-rule="evenodd" d="M906.755 204.126H895.688L892.525 207.923V269.161H898.85V211.721H906.755V204.126ZM978.695 144.312H641.923V151.908H981.857L985.019 148.11V79.9888H996.087L999.249 76.1911V3.79769L996.087 0H591.723V7.59538H992.924V72.3934H981.857L978.695 76.1911V144.312ZM981.857 382.142H895.292V389.738H981.857V382.142ZM981.857 348.438H895.292V350.337H981.857V348.438ZM483.023 152.857H190.917V145.262H483.023V152.857ZM483.023 370.749H174.315V363.154H483.023V370.749ZM482.628 403.504H173.92V401.605H482.628V403.504Z" fill="#6D6D6D"/>
<path fill-rule="evenodd" clip-rule="evenodd" d="M479.861 200.328V97.7905H486.185V200.328H479.861ZM479.861 403.504V315.208H486.185V403.504H479.861Z" fill="#6D6D6D"/>
<path fill-rule="evenodd" clip-rule="evenodd" d="M192.498 468.065H300.407V475.66H192.498V468.065Z" fill="#52C41A"/>
<path fill-rule="evenodd" clip-rule="evenodd" d="M211.471 473.287V542.595H209.89V473.287H211.471ZM427.29 571.552H393.691V569.653H427.29V571.552Z" fill="#52C41A"/>
<path fill-rule="evenodd" clip-rule="evenodd" d="M0 3.79769L3.16218 0H174.71L177.873 3.79769V403.504H171.548V7.59538H6.32436V412.049H0V3.79769ZM189.731 366.952V3.79769H196.055V366.952H189.731Z" fill="#6D6D6D"/>
<path fill-rule="evenodd" clip-rule="evenodd" d="M529.665 7.59538H172.339V0H532.827L535.99 3.79769V144.312H542.314V151.908H532.827L529.665 148.11V7.59538ZM1149.45 7.59538H996.087V0H1152.61L1155.78 3.79769V83.5491L1152.61 87.3468H1060.91L1057.75 83.5491V74.0549H1064.07V79.7514H1149.45V7.59538Z" fill="#6D6D6D"/>
<path fill-rule="evenodd" clip-rule="evenodd" d="M1149.45 550.19V83.5491H1155.78V550.19H1149.45ZM1149.45 595.762V581.996H1155.78V595.762H1149.45Z" fill="#6D6D6D"/>
<path fill-rule="evenodd" clip-rule="evenodd" d="M1153.01 503.668H1200.84L1204 507.466V596.237L1200.84 600.035H1101.23V592.439H1197.68V511.264H1153.01V503.668ZM1058.54 25.6344V3.79769H1064.86V25.6344H1058.54ZM588.956 7.59538H532.827V0H592.118L595.28 3.79769V148.11L592.118 151.908H581.841V144.312H588.956V7.59538Z" fill="#6D6D6D"/>
<path fill-rule="evenodd" clip-rule="evenodd" d="M542.281 99.6979C542.028 99.6922 541.776 99.6894 541.523 99.6894V97.7905C541.786 97.7905 542.048 97.7934 542.309 97.7991L542.281 99.6979ZM546.79 100.099C546.291 100.021 545.791 99.9541 545.29 99.8982L545.437 98.007C545.957 98.0649 546.476 98.1342 546.995 98.2159L546.79 100.099ZM551.233 101.102C550.745 100.958 550.254 100.824 549.762 100.701L550.083 98.8415C550.597 98.9697 551.106 99.1093 551.612 99.2593L551.233 101.102ZM555.552 102.701C555.082 102.49 554.608 102.291 554.13 102.104L554.624 100.3C555.122 100.495 555.614 100.703 556.103 100.921L555.552 102.701ZM559.696 104.875C559.248 104.602 558.795 104.34 558.338 104.088L558.998 102.363C559.474 102.625 559.945 102.898 560.41 103.18L559.696 104.875ZM563.61 107.594C563.189 107.263 562.764 106.942 562.334 106.63L563.151 105.004C563.599 105.329 564.041 105.663 564.477 106.007L563.61 107.594ZM567.246 110.822C566.859 110.437 566.466 110.061 566.067 109.692L567.031 108.187C567.445 108.569 567.854 108.96 568.256 109.361L567.246 110.822ZM570.561 114.517C570.212 114.083 569.856 113.656 569.495 113.237L570.591 111.87C570.967 112.305 571.336 112.749 571.699 113.201L570.561 114.517ZM573.512 118.633C573.206 118.155 572.892 117.683 572.571 117.218L573.788 116.005C574.122 116.487 574.447 116.978 574.766 117.476L573.512 118.633ZM576.062 123.117C575.802 122.601 575.535 122.09 575.259 121.585L576.581 120.543C576.867 121.068 577.145 121.598 577.416 122.136L576.062 123.117ZM578.179 127.916C577.968 127.367 577.75 126.823 577.523 126.285L578.934 125.427C579.169 125.986 579.397 126.552 579.615 127.123L578.179 127.916ZM579.831 132.969C579.674 132.396 579.508 131.827 579.334 131.261L580.816 130.601C580.997 131.187 581.169 131.779 581.333 132.376L579.831 132.969ZM580.999 138.216C580.897 137.625 580.785 137.036 580.665 136.449L582.199 135.993C582.324 136.601 582.44 137.213 582.547 137.83L580.999 138.216ZM581.667 143.586C581.621 142.984 581.566 142.384 581.5 141.785L583.068 141.539C583.136 142.162 583.194 142.786 583.242 143.41L581.667 143.586ZM581.841 148.11C581.841 147.806 581.839 147.503 581.834 147.2L583.415 147.166C583.42 147.479 583.422 147.795 583.422 148.11H581.841Z" fill="#6D6D6D"/>
<path fill-rule="evenodd" clip-rule="evenodd" d="M542.314 97.7905V148.11H540.733V97.7905H542.314ZM1128.12 581.976C1128.11 582.298 1128.11 582.62 1128.11 582.945H1126.53C1126.53 582.602 1126.53 582.262 1126.54 581.922L1128.12 581.976ZM1128.68 576.222C1128.57 576.851 1128.47 577.485 1128.4 578.126L1126.84 577.853C1126.91 577.176 1127.01 576.505 1127.13 575.841L1128.68 576.222ZM1130.05 570.673C1129.85 571.27 1129.67 571.876 1129.51 572.489L1128.01 571.892C1128.19 571.243 1128.38 570.603 1128.59 569.971L1130.05 570.673ZM1132.23 565.499C1131.94 566.046 1131.67 566.605 1131.42 567.172L1130.03 566.27C1130.3 565.669 1130.58 565.079 1130.87 564.501L1132.23 565.499ZM1135.1 560.854C1134.75 561.335 1134.41 561.829 1134.07 562.335L1132.84 561.156C1133.18 560.621 1133.55 560.1 1133.93 559.591L1135.1 560.854ZM1138.61 556.878C1138.2 557.278 1137.78 557.692 1137.38 558.122L1136.33 556.703C1136.76 556.25 1137.19 555.812 1137.63 555.389L1138.61 556.878ZM1142.65 553.69C1142.17 553.996 1141.71 554.32 1141.25 554.658L1140.42 553.043C1140.9 552.685 1141.39 552.343 1141.89 552.02L1142.65 553.69ZM1147.07 551.394C1146.56 551.596 1146.05 551.816 1145.56 552.055L1144.97 550.291C1145.5 550.039 1146.03 549.806 1146.57 549.591L1147.07 551.394ZM1151.76 550.062C1151.23 550.155 1150.7 550.267 1150.18 550.395L1149.86 548.535C1150.42 548.4 1150.97 548.282 1151.54 548.183L1151.76 550.062ZM1155.78 549.715C1155.51 549.715 1155.24 549.72 1154.97 549.73L1154.92 547.831C1155.21 547.821 1155.49 547.817 1155.78 547.817V549.715Z" fill="#6D6D6D"/>
<path fill-rule="evenodd" clip-rule="evenodd" d="M1126.77 581.996H1155.78V583.895H1126.77V581.996ZM1021.39 25.5946C1021.38 25.2917 1021.38 24.9889 1021.38 24.6851H1019.8C1019.8 25.0003 1019.8 25.3155 1019.81 25.6288L1021.39 25.5946ZM1021.72 31.0101C1021.66 30.4139 1021.61 29.8138 1021.56 29.21L1019.98 29.3847C1020.03 30.0113 1020.09 30.636 1020.16 31.256L1021.72 31.0101ZM1022.56 36.3459C1022.44 35.761 1022.33 35.1724 1022.23 34.5799L1020.68 34.9654C1020.78 35.5816 1020.9 36.193 1021.03 36.8016L1022.56 36.3459ZM1023.89 41.5345C1023.72 40.9682 1023.55 40.3984 1023.39 39.8255L1021.89 40.4189C1022.06 41.0161 1022.23 41.6076 1022.41 42.1943L1023.89 41.5335V41.5345ZM1025.7 46.5094C1025.48 45.972 1025.26 45.429 1025.04 44.8793L1023.61 45.672C1023.83 46.2426 1024.06 46.8085 1024.29 47.3677L1025.7 46.5094ZM1027.97 51.21C1027.69 50.7053 1027.42 50.1944 1027.16 49.6776L1025.81 50.6593C1026.08 51.1967 1026.36 51.7274 1026.64 52.2525L1027.97 51.21ZM1030.66 55.5773C1030.33 55.1121 1030.02 54.6412 1029.72 54.1627L1028.46 55.3191C1028.78 55.8166 1029.11 56.3065 1029.44 56.7898L1030.66 55.5773ZM1033.73 59.5583C1033.37 59.1386 1033.01 58.7123 1032.66 58.2766L1031.53 59.5944C1031.89 60.0463 1032.25 60.4897 1032.63 60.9254L1033.73 59.5583ZM1037.16 63.1025C1036.76 62.7341 1036.36 62.3572 1035.98 61.9727L1034.97 63.4338C1035.37 63.8345 1035.78 64.2256 1036.19 64.6083L1037.16 63.1025ZM1040.89 66.1653C1040.46 65.8529 1040.03 65.5311 1039.61 65.2007L1038.74 66.7881C1039.19 67.1318 1039.63 67.466 1040.07 67.7907L1040.89 66.1653ZM1044.89 68.7069C1044.43 68.4544 1043.98 68.1914 1043.53 67.9189L1042.82 69.6146C1043.28 69.8965 1043.75 70.17 1044.22 70.4311L1044.89 68.7069ZM1049.09 70.6912C1048.62 70.5032 1048.14 70.3038 1047.67 70.0931L1047.12 71.8742C1047.61 72.0925 1048.1 72.2986 1048.6 72.4951L1049.09 70.6912ZM1053.46 72.0944C1052.97 71.971 1052.48 71.8372 1051.99 71.6928L1051.61 73.5357C1052.12 73.6857 1052.63 73.8252 1053.14 73.9534L1053.46 72.0944ZM1057.93 72.8967C1057.43 72.8407 1056.93 72.7733 1056.44 72.6964L1056.23 74.5791C1056.74 74.6598 1057.27 74.73 1057.79 74.788L1057.93 72.8967ZM1061.7 73.1056C1061.45 73.1056 1061.2 73.1027 1060.94 73.097L1060.92 74.9959C1061.18 75.0016 1061.44 75.0044 1061.7 75.0044V73.1056Z" fill="#6D6D6D"/>
<path fill-rule="evenodd" clip-rule="evenodd" d="M1019.8 25.6344H1061.7V23.7356H1019.8V25.6344ZM907.514 252.538C907.261 252.543 907.008 252.546 906.755 252.546V254.445C907.016 254.445 907.277 254.442 907.538 254.437L907.514 252.538ZM912.02 252.137C911.522 252.215 911.024 252.281 910.526 252.337L910.668 254.229C911.19 254.171 911.712 254.1 912.225 254.02L912.02 252.137ZM916.463 251.134C915.981 251.278 915.49 251.412 914.992 251.535L915.316 253.394C915.83 253.266 916.336 253.126 916.842 252.976L916.463 251.134ZM920.787 249.535C920.313 249.745 919.838 249.944 919.364 250.132L919.854 251.936C920.352 251.74 920.842 251.532 921.332 251.315L920.787 249.535ZM924.93 247.361C924.479 247.633 924.028 247.895 923.57 248.148L924.234 249.873C924.708 249.611 925.175 249.337 925.641 249.055L924.93 247.361ZM928.843 244.641C928.424 244.972 927.997 245.294 927.562 245.606L928.384 247.231C928.827 246.907 929.27 246.573 929.712 246.229L928.843 244.641ZM932.479 241.413C932.092 241.798 931.697 242.175 931.301 242.543L932.266 244.049C932.677 243.667 933.088 243.276 933.483 242.875L932.479 241.413ZM935.792 237.718C935.444 238.153 935.088 238.579 934.724 238.999L935.823 240.366C936.203 239.93 936.566 239.487 936.93 239.035L935.792 237.718ZM938.74 233.602C938.44 234.082 938.124 234.554 937.8 235.018L939.017 236.23C939.349 235.748 939.681 235.257 939.997 234.76L938.74 233.602ZM941.294 229.118C941.033 229.636 940.764 230.147 940.487 230.651L941.816 231.692C942.1 231.168 942.377 230.637 942.646 230.1L941.294 229.118ZM943.412 224.32C943.199 224.87 942.978 225.413 942.756 225.951L944.163 226.808C944.401 226.249 944.63 225.683 944.843 225.113L943.412 224.32ZM945.065 219.266C944.907 219.841 944.741 220.41 944.567 220.974L946.045 221.635C946.227 221.048 946.401 220.457 946.567 219.86L945.065 219.266ZM946.227 214.02C946.124 214.613 946.013 215.202 945.895 215.787L947.428 216.242C947.555 215.635 947.674 215.022 947.776 214.406L946.227 214.02ZM946.899 208.65C946.851 209.254 946.796 209.855 946.733 210.451L948.298 210.697C948.369 210.077 948.425 209.453 948.472 208.825L946.899 208.65ZM947.073 204.126C947.073 204.43 947.073 204.732 947.065 205.035L948.646 205.069C948.654 204.756 948.654 204.441 948.654 204.126H947.073Z" fill="#6D6D6D"/>
<path fill-rule="evenodd" clip-rule="evenodd" d="M907.546 254.445V204.126H905.965V254.445H907.546ZM1036.4 646.548C1036.14 646.554 1035.88 646.556 1035.61 646.556V648.455C1035.89 648.455 1036.16 648.452 1036.43 648.447L1036.4 646.548ZM1041.11 646.158C1040.59 646.234 1040.07 646.299 1039.54 646.353L1039.69 648.245C1040.22 648.188 1040.76 648.121 1041.3 648.043L1041.11 646.158ZM1045.76 645.181C1045.24 645.321 1044.74 645.451 1044.22 645.572L1044.52 647.436C1045.05 647.312 1045.58 647.176 1046.11 647.031L1045.76 645.181ZM1050.29 643.622C1049.8 643.827 1049.3 644.021 1048.79 644.206L1049.26 646.021C1049.78 645.829 1050.29 645.628 1050.81 645.417L1050.29 643.622ZM1054.66 641.498C1054.18 641.765 1053.71 642.021 1053.23 642.268L1053.84 644.016C1054.34 643.759 1054.84 643.494 1055.33 643.218L1054.66 641.498ZM1058.82 638.835C1058.37 639.159 1057.92 639.475 1057.46 639.78L1058.23 641.441C1058.71 641.124 1059.17 640.797 1059.64 640.461L1058.82 638.835ZM1062.73 635.663C1062.32 636.042 1061.89 636.412 1061.46 636.774L1062.37 638.329C1062.82 637.954 1063.25 637.57 1063.69 637.178L1062.73 635.663ZM1066.34 632.019C1065.96 632.448 1065.58 632.87 1065.18 633.283L1066.22 634.715C1066.63 634.288 1067.03 633.851 1067.43 633.407L1066.34 632.019ZM1069.62 627.943C1069.28 628.419 1068.93 628.887 1068.57 629.347L1069.73 630.642C1070.1 630.166 1070.46 629.681 1070.82 629.19L1069.62 627.943ZM1072.53 623.482C1072.23 623.997 1071.92 624.506 1071.61 625.008L1072.86 626.152C1073.2 625.632 1073.51 625.105 1073.82 624.572L1072.53 623.482ZM1075.03 618.679C1074.78 619.23 1074.52 619.775 1074.25 620.314L1075.6 621.294C1075.88 620.736 1076.15 620.172 1076.41 619.601L1075.03 618.679ZM1077.1 613.59C1076.9 614.17 1076.68 614.745 1076.46 615.316L1077.89 616.119C1078.12 615.529 1078.34 614.933 1078.56 614.332L1077.1 613.59ZM1078.71 608.267C1078.56 608.871 1078.4 609.47 1078.23 610.064L1079.73 610.682C1079.9 610.067 1080.07 609.446 1080.23 608.822L1078.71 608.267ZM1079.85 602.771C1079.76 603.391 1079.65 604.007 1079.53 604.619L1081.07 605.045C1081.19 604.411 1081.31 603.773 1081.41 603.131L1079.85 602.771ZM1080.51 597.161C1080.46 597.79 1080.41 598.417 1080.34 599.04L1081.92 599.269C1081.98 598.624 1082.04 597.975 1082.08 597.324L1080.51 597.161ZM1080.68 592.439C1080.68 592.756 1080.68 593.073 1080.67 593.388L1082.25 593.42C1082.26 593.094 1082.26 592.767 1082.26 592.439H1080.68Z" fill="#6D6D6D"/>
<path fill-rule="evenodd" clip-rule="evenodd" d="M1036.4 648.565V592.439H1034.82V648.565H1036.4ZM1100.52 615.209C1100.75 615.22 1100.99 615.226 1101.23 615.226V617.124C1100.97 617.124 1100.72 617.119 1100.46 617.107L1100.52 615.209ZM1096.32 614.455C1096.77 614.602 1097.24 614.728 1097.7 614.833L1097.41 616.698C1096.9 616.584 1096.4 616.447 1095.91 616.289L1096.32 614.455ZM1092.36 612.59C1092.78 612.855 1093.21 613.102 1093.64 613.33L1093.01 615.07C1092.53 614.823 1092.07 614.555 1091.62 614.268L1092.36 612.59ZM1088.86 609.711C1089.21 610.082 1089.58 610.437 1089.96 610.775L1089.02 612.302C1088.61 611.936 1088.21 611.551 1087.82 611.15L1088.86 609.711ZM1085.96 605.971C1086.24 606.427 1086.54 606.872 1086.85 607.303L1085.65 608.542C1085.32 608.076 1085 607.594 1084.69 607.099L1085.96 605.971ZM1083.84 601.554C1084.03 602.075 1084.23 602.587 1084.45 603.088L1083.05 603.977C1082.82 603.434 1082.59 602.879 1082.38 602.313L1083.84 601.554ZM1082.58 596.679C1082.67 597.24 1082.78 597.794 1082.9 598.34L1081.37 598.83C1081.24 598.239 1081.13 597.638 1081.03 597.03L1082.58 596.679ZM1082.26 592.439C1082.26 592.725 1082.26 593.01 1082.27 593.294L1080.69 593.363C1080.68 593.057 1080.67 592.749 1080.67 592.439H1082.26Z" fill="#6D6D6D"/>
<path fill-rule="evenodd" clip-rule="evenodd" d="M1100.44 616.632V592.439H1102.02V616.632H1100.44Z" fill="#6D6D6D"/>
<path fill-rule="evenodd" clip-rule="evenodd" d="M296.454 544.019H196.055V587.692H296.454C297.084 587.692 297.687 587.392 298.131 586.858C298.352 586.593 298.526 586.28 298.646 585.934C298.765 585.588 298.826 585.218 298.826 584.844V546.867C298.826 546.111 298.576 545.387 298.131 544.853C297.911 544.589 297.65 544.379 297.362 544.236C297.074 544.092 296.766 544.019 296.454 544.019ZM194.474 542.12V589.591H296.454C297.503 589.591 298.508 589.091 299.25 588.201C299.991 587.311 300.407 586.103 300.407 584.844V546.867C300.407 545.608 299.991 544.401 299.25 543.51C298.508 542.62 297.503 542.12 296.454 542.12H194.474ZM233.211 532.626C237.577 532.626 241.116 528.375 241.116 523.132C241.116 517.888 237.577 513.637 233.211 513.637C228.845 513.637 225.305 517.888 225.305 523.132C225.305 528.375 228.845 532.626 233.211 532.626ZM233.211 534.525C238.45 534.525 242.697 529.423 242.697 523.132C242.697 516.84 238.45 511.739 233.211 511.739C227.972 511.739 223.724 516.84 223.724 523.132C223.724 529.423 227.972 534.525 233.211 534.525ZM278.272 532.626C282.638 532.626 286.177 528.375 286.177 523.132C286.177 517.888 282.638 513.637 278.272 513.637C273.906 513.637 270.366 517.888 270.366 523.132C270.366 528.375 273.906 532.626 278.272 532.626ZM278.272 534.525C283.511 534.525 287.758 529.423 287.758 523.132C287.758 516.84 283.511 511.739 278.272 511.739C273.033 511.739 268.785 516.84 268.785 523.132C268.785 529.423 273.033 534.525 278.272 534.525Z" fill="#52C41A"/>
<path fill-rule="evenodd" clip-rule="evenodd" d="M950.235 208.873L951.026 207.923H981.857L982.648 208.873V300.967L981.857 301.916H954.188C952.006 301.916 950.235 299.79 950.235 297.169V208.873ZM951.816 209.822V297.169C951.816 298.742 952.876 300.017 954.188 300.017H981.067V209.822H951.816Z" fill="#6D6D6D"/>
<path fill-rule="evenodd" clip-rule="evenodd" d="M600.023 253.97L603.186 250.173H639.551V257.768H606.348V385.465H600.023V253.97ZM821.376 257.768H751.413V250.173H821.376V257.768Z" fill="#EB2F96"/>
<path fill-rule="evenodd" clip-rule="evenodd" d="M754.97 600.035H751.413V250.647H754.97V600.035ZM751.413 257.768H680.659V250.173H751.413V257.768Z" fill="#EB2F96"/>
<path fill-rule="evenodd" clip-rule="evenodd" d="M863.275 592.439H751.018V600.035H866.437L869.599 596.237V389.738H895.687L898.849 385.94V253.97L895.687 250.173H862.88V257.768H892.525V382.142H866.437L863.275 385.94V592.439Z" fill="#EB2F96"/>
<path fill-rule="evenodd" clip-rule="evenodd" d="M751.413 592.439H635.598V600.035H751.413V592.439ZM679.902 208.881C680.154 208.876 680.406 208.873 680.659 208.873V206.974C680.397 206.974 680.134 206.977 679.873 206.982L679.902 208.881ZM675.393 209.282C675.891 209.204 676.391 209.137 676.892 209.082L676.746 207.19C676.226 207.248 675.706 207.318 675.188 207.399L675.393 209.282ZM670.95 210.285C671.438 210.141 671.929 210.007 672.421 209.884L672.099 208.025C671.586 208.153 671.076 208.293 670.57 208.443L670.95 210.285ZM666.63 211.884C667.101 211.674 667.575 211.475 668.052 211.287L667.558 209.483C667.061 209.679 666.569 209.887 666.08 210.104L666.63 211.884ZM662.486 214.058C662.934 213.786 663.387 213.523 663.844 213.271L663.184 211.546C662.709 211.808 662.238 212.082 661.772 212.364L662.486 214.058ZM658.573 216.778C658.994 216.446 659.419 216.125 659.849 215.813L659.032 214.188C658.584 214.512 658.142 214.846 657.706 215.19L658.573 216.778ZM654.936 220.006C655.324 219.62 655.717 219.244 656.115 218.876L655.151 217.37C654.737 217.753 654.329 218.144 653.927 218.544L654.936 220.006ZM651.622 223.701C651.971 223.266 652.326 222.839 652.688 222.42L651.592 221.053C651.216 221.488 650.846 221.932 650.483 222.384L651.622 223.701ZM648.671 227.817C648.977 227.338 649.29 226.866 649.611 226.401L648.395 225.189C648.061 225.672 647.735 226.162 647.417 226.659L648.671 227.817ZM646.12 232.301C646.38 231.783 646.648 231.272 646.923 230.768L645.602 229.727C645.315 230.251 645.037 230.782 644.767 231.319L646.12 232.301ZM644.004 237.099C644.214 236.549 644.433 236.006 644.659 235.468L643.248 234.611C643.013 235.171 642.786 235.736 642.568 236.306L644.004 237.099ZM642.352 242.153C642.509 241.578 642.674 241.009 642.849 240.445L641.367 239.784C641.185 240.372 641.013 240.964 640.85 241.559L642.352 242.153ZM641.183 247.399C641.286 246.806 641.398 246.217 641.518 245.632L639.983 245.177C639.858 245.784 639.742 246.397 639.635 247.013L641.183 247.399ZM640.515 252.769C640.561 252.167 640.617 251.567 640.682 250.968L639.114 250.722C639.047 251.345 638.989 251.969 638.941 252.594L640.515 252.769ZM640.341 257.293C640.341 256.989 640.344 256.687 640.349 256.384L638.767 256.35C638.763 256.663 638.76 256.978 638.76 257.293H640.341Z" fill="#EB2F96"/>
<path fill-rule="evenodd" clip-rule="evenodd" d="M679.869 206.974V257.293H681.45V206.974H679.869ZM822.135 208.881C821.882 208.876 821.629 208.873 821.376 208.873V206.974C821.637 206.974 821.898 206.977 822.159 206.982L822.135 208.881ZM826.641 209.282C826.143 209.204 825.645 209.138 825.147 209.082L825.289 207.19C825.811 207.248 826.333 207.319 826.847 207.399L826.641 209.282ZM831.084 210.285C830.602 210.141 830.112 210.007 829.614 209.884L829.938 208.025C830.452 208.153 830.958 208.293 831.464 208.443L831.084 210.285ZM835.408 211.884C834.934 211.674 834.46 211.475 833.985 211.287L834.475 209.483C834.974 209.679 835.464 209.887 835.954 210.104L835.408 211.884ZM839.551 214.058C839.1 213.786 838.65 213.524 838.191 213.271L838.855 211.546C839.329 211.808 839.796 212.082 840.262 212.364L839.551 214.058ZM843.464 216.778C843.045 216.447 842.618 216.125 842.183 215.813L843.006 214.188C843.448 214.512 843.891 214.846 844.334 215.19L843.464 216.778ZM847.101 220.006C846.713 219.621 846.318 219.244 845.923 218.876L846.887 217.37C847.298 217.753 847.709 218.144 848.105 218.544L847.101 220.006ZM850.413 223.701C850.065 223.266 849.709 222.84 849.346 222.42L850.445 221.053C850.824 221.489 851.188 221.932 851.551 222.384L850.413 223.701ZM853.362 227.817C853.061 227.337 852.745 226.865 852.421 226.401L853.638 225.189C853.97 225.671 854.302 226.162 854.619 226.659L853.362 227.817ZM855.915 232.301C855.654 231.783 855.385 231.272 855.109 230.768L856.437 229.727C856.721 230.251 856.998 230.782 857.267 231.319L855.915 232.301ZM858.034 237.099C857.82 236.549 857.599 236.006 857.378 235.468L858.785 234.611C859.022 235.17 859.251 235.736 859.465 236.306L858.034 237.099ZM859.686 242.153C859.528 241.578 859.362 241.009 859.188 240.445L860.666 239.784C860.848 240.371 861.022 240.962 861.188 241.559L859.686 242.153ZM860.848 247.399C860.745 246.806 860.635 246.217 860.516 245.632L862.05 245.177C862.176 245.784 862.295 246.397 862.398 247.013L860.848 247.399ZM861.52 252.769C861.473 252.165 861.417 251.564 861.354 250.968L862.919 250.722C862.991 251.342 863.046 251.966 863.093 252.594L861.52 252.769ZM861.694 257.293C861.694 256.989 861.694 256.687 861.686 256.384L863.267 256.35C863.275 256.663 863.275 256.978 863.275 257.293H861.694Z" fill="#EB2F96"/>
<path fill-rule="evenodd" clip-rule="evenodd" d="M822.167 206.974V257.293H820.586V206.974H822.167ZM604.767 285.776V374.072H614.254V285.776H604.767ZM603.186 375.971H615.835V283.877H603.186V375.971Z" fill="#EB2F96"/>
<path fill-rule="evenodd" clip-rule="evenodd" d="M615.835 285.776V374.072H642.713C643.971 374.072 645.178 373.472 646.067 372.404C646.957 371.336 647.456 369.887 647.456 368.376V291.473C647.456 289.962 646.957 288.513 646.067 287.444C645.178 286.376 643.971 285.776 642.713 285.776H615.835ZM614.253 375.971H642.713C644.39 375.971 645.999 375.171 647.185 373.747C648.371 372.322 649.037 370.39 649.037 368.376V291.473C649.037 289.458 648.371 287.526 647.185 286.102C645.999 284.677 644.39 283.877 642.713 283.877H614.253V375.971Z" fill="#EB2F96"/>
<path fill-rule="evenodd" clip-rule="evenodd" d="M614.254 365.527H649.038V367.426H614.254V365.527ZM614.254 292.422H649.038V294.321H614.254V292.422ZM603.977 328.5H649.038V330.399H603.977V328.5ZM894.107 285.776V374.072H884.62V285.776H894.107ZM895.688 375.971H883.039V283.877H895.688V375.971Z" fill="#EB2F96"/>
<path fill-rule="evenodd" clip-rule="evenodd" d="M883.039 285.776V374.072H856.16C853.544 374.072 851.417 371.522 851.417 368.376V291.473C851.417 288.326 853.544 285.776 856.16 285.776H883.039ZM884.62 375.971H856.16C855.33 375.971 854.507 375.775 853.74 375.393C852.972 375.012 852.275 374.452 851.688 373.747C851.101 373.042 850.635 372.204 850.317 371.283C849.999 370.361 849.836 369.373 849.836 368.376V291.473C849.836 290.475 849.999 289.487 850.317 288.566C850.635 287.644 851.101 286.807 851.688 286.101C852.275 285.396 852.972 284.836 853.74 284.455C854.507 284.073 855.33 283.877 856.16 283.877H884.62V375.971Z" fill="#EB2F96"/>
<path fill-rule="evenodd" clip-rule="evenodd" d="M884.62 365.527H849.836V367.426H884.62V365.527ZM884.62 292.422H849.836V294.321H884.62V292.422ZM894.897 328.5H849.836V330.399H894.897V328.5Z" fill="#EB2F96"/>
<mask id="mask2_592_1670" style="mask-type:luminance" maskUnits="userSpaceOnUse" x="0" y="402" width="197" height="199">
<path d="M0 402.555H196.846V600.035H0V402.555Z" fill="white"/>
</mask>
<g mask="url(#mask2_592_1670)">
<path fill-rule="evenodd" clip-rule="evenodd" d="M189.731 475.661V591.49H180.244V475.661H189.731ZM191.312 593.389H178.663V473.762H191.312V593.389Z" fill="#1890FF"/>
<path fill-rule="evenodd" clip-rule="evenodd" d="M178.663 475.661V591.49H147.042V475.661H178.663ZM180.244 593.389H145.46V473.762H180.244V593.389Z" fill="#1890FF"/>
<path fill-rule="evenodd" clip-rule="evenodd" d="M190.522 552.564H145.46V554.463H190.522V552.564ZM190.522 512.688H145.46V514.587H190.522V512.688Z" fill="#1890FF"/>
<path fill-rule="evenodd" clip-rule="evenodd" d="M0 405.878L3.16218 402.08H60.4767V409.676H6.32436V591.965H189.731V475.661H99.2134V468.065H192.893L196.055 471.863V595.762L192.893 599.56H3.16218L0 595.762V405.878Z" fill="#1890FF"/>
<path fill-rule="evenodd" clip-rule="evenodd" d="M42.6896 594.338V406.353H44.2707V594.338H42.6896ZM28.4598 517.435H18.9733C17.7153 517.435 16.5088 518.035 15.6193 519.104C14.7298 520.172 14.23 521.621 14.23 523.132V543.07C14.2304 544.58 14.7303 546.029 15.6197 547.097C16.5092 548.165 17.7154 548.766 18.9733 548.766H28.4598C29.7178 548.766 30.9243 548.166 31.8138 547.098C32.7034 546.029 33.2031 544.58 33.2031 543.07V523.132C33.2027 521.621 32.7028 520.172 31.8134 519.104C30.9239 518.036 29.7177 517.436 28.4598 517.435ZM18.9733 515.536C17.296 515.537 15.6875 516.337 14.5015 517.761C13.3155 519.186 12.6491 521.117 12.6489 523.132V543.07C12.6489 545.084 13.3152 547.016 14.5013 548.44C15.6873 549.865 17.296 550.665 18.9733 550.665H28.4598C30.1371 550.665 31.7456 549.864 32.9316 548.44C34.1176 547.016 34.784 545.084 34.7842 543.07V523.132C34.7842 521.117 34.1179 519.185 32.9318 517.761C31.7458 516.337 30.1371 515.536 28.4598 515.536H18.9733Z" fill="#1890FF"/>
<path fill-rule="evenodd" clip-rule="evenodd" d="M20.554 532.626C20.5573 532.499 20.5394 532.372 20.5012 532.253C20.463 532.135 20.4053 532.027 20.3316 531.935C20.2579 531.844 20.1696 531.771 20.0721 531.722C19.9746 531.672 19.8697 531.646 19.7638 531.646C19.6579 531.646 19.5531 531.672 19.4555 531.722C19.358 531.771 19.2698 531.844 19.196 531.935C19.1223 532.027 19.0647 532.135 19.0265 532.253C18.9883 532.372 18.9703 532.499 18.9737 532.626C18.9802 532.872 19.0663 533.106 19.2137 533.278C19.3612 533.449 19.5585 533.545 19.7638 533.545C19.9692 533.545 20.1664 533.449 20.3139 533.278C20.4614 533.106 20.5475 532.872 20.554 532.626ZM22.1351 532.626C22.1432 532.246 22.088 531.868 21.9725 531.514C21.857 531.159 21.6837 530.837 21.4627 530.565C21.2418 530.292 20.9776 530.076 20.6859 529.928C20.3942 529.78 20.0808 529.704 19.7642 529.704C19.4476 529.704 19.1342 529.78 18.8425 529.928C18.5508 530.076 18.2867 530.292 18.0657 530.565C17.8447 530.837 17.6714 531.159 17.5559 531.514C17.4405 531.868 17.3852 532.246 17.3934 532.626C17.4093 533.368 17.6661 534.074 18.109 534.592C18.5519 535.111 19.1458 535.401 19.7642 535.401C20.3826 535.401 20.9765 535.111 21.4194 534.592C21.8623 534.074 22.1191 533.368 22.1351 532.626Z" fill="#1890FF"/>
</g>
<path fill-rule="evenodd" clip-rule="evenodd" d="M426.104 596.237L429.266 600.035H635.598L638.76 596.237V385.94L635.598 382.142H550.219V389.738H632.436V592.439H432.428V467.59H426.104V596.237Z" fill="#9254DE"/>
<path fill-rule="evenodd" clip-rule="evenodd" d="M552.986 494.174H485V486.579H552.986V494.174ZM635.598 562.058H553.777V554.463H635.598V562.058Z" fill="#9254DE"/>
<path fill-rule="evenodd" clip-rule="evenodd" d="M549.429 596.237V454.299H555.753V596.237H549.429ZM555.753 396.858H628.483V389.263H555.753V396.858ZM630.064 398.757V387.364H554.172V398.757H630.064ZM432.428 585.793H438.753V498.447H432.428V585.793ZM440.334 587.692V496.548H430.847V587.692H440.334Z" fill="#9254DE"/>
<mask id="mask3_592_1670" style="mask-type:luminance" maskUnits="userSpaceOnUse" x="328" y="611" width="39" height="46">
<path d="M328.076 611.428H366.022V657H328.076V611.428Z" fill="white"/>
</mask>
<g mask="url(#mask3_592_1670)">
<path d="M366.022 634.214C366.022 646.798 357.528 657 347.049 657C336.571 657 328.076 646.798 328.076 634.214C328.076 621.629 336.571 611.428 347.049 611.428C357.528 611.428 366.022 621.629 366.022 634.214Z" fill="#52C41A"/>
<path fill-rule="evenodd" clip-rule="evenodd" d="M347.84 627.645V643.075H346.259V627.645L341.284 633.62L340.166 632.277L347.049 624.01L353.933 632.277L352.815 633.62L347.84 627.645Z" fill="white"/>
</g>
<mask id="mask4_592_1670" style="mask-type:luminance" maskUnits="userSpaceOnUse" x="847" y="464" width="39" height="46">
<path d="M847.464 464.267H885.411V509.84H847.464V464.267Z" fill="white"/>
</mask>
<g mask="url(#mask4_592_1670)">
<path d="M885.411 487.053C885.411 499.638 876.912 509.84 866.437 509.84C855.963 509.84 847.464 499.638 847.464 487.053C847.464 474.469 855.963 464.267 866.437 464.267C876.912 464.267 885.411 474.469 885.411 487.053Z" fill="#EB2F96"/>
<path d="M869.418 482.137L871.221 485.027L865.837 492.553L867.039 493.791L872.833 485.686L872.865 484.498L870.683 480.998L869.418 482.137Z" fill="white"/>
<path fill-rule="evenodd" clip-rule="evenodd" d="M859.141 475.977L858.469 476.417L854.176 484.536L854.239 485.663L865.837 501.913H867.038L878.636 485.663L878.699 484.529L874.327 476.41L873.663 475.977H859.141ZM855.821 484.961L859.568 477.875H873.228L877.047 484.966L866.438 499.836L855.821 484.961Z" fill="white"/>
</g>
<mask id="mask5_592_1670" style="mask-type:luminance" maskUnits="userSpaceOnUse" x="533" y="430" width="39" height="46">
<path d="M533.618 430.088H571.564V475.66H533.618V430.088Z" fill="white"/>
</mask>
<g mask="url(#mask5_592_1670)">
<path d="M571.564 452.874C571.564 465.459 563.069 475.66 552.591 475.66C542.112 475.66 533.618 465.459 533.618 452.874C533.618 440.29 542.112 430.088 552.591 430.088C563.069 430.088 571.564 440.29 571.564 452.874Z" fill="#9254DE"/>
<path fill-rule="evenodd" clip-rule="evenodd" d="M549.032 443.246H555.997L563.361 446.246L564.813 456.835L564.379 460.49L560.751 462.43L557.482 456.87L547.432 456.784L544.182 462.446L540.684 460.482L540.215 456.841L541.668 446.246L549.032 443.246ZM549.293 445.145L543.075 447.679L541.817 456.85L542.118 459.191L543.64 460.045L546.605 454.877L558.305 454.978L561.294 460.061L562.937 459.183L563.214 456.855L561.955 447.679L555.736 445.145H549.293Z" fill="white"/>
<path fill-rule="evenodd" clip-rule="evenodd" d="M550.393 447.368L549.888 444.333L548.337 444.705L549.096 449.266H556.085L556.844 444.705L555.294 444.333L554.788 447.368H550.393Z" fill="white"/>
</g>
<mask id="mask6_592_1670" style="mask-type:luminance" maskUnits="userSpaceOnUse" x="316" y="379" width="39" height="47">
<path d="M316.218 379.769H354.164V425.341H316.218V379.769Z" fill="white"/>
</mask>
<g mask="url(#mask6_592_1670)">
<path d="M354.164 402.555C354.164 415.14 345.67 425.341 335.191 425.341C324.712 425.341 316.218 415.14 316.218 402.555C316.218 389.97 324.712 379.769 335.191 379.769C345.67 379.769 354.164 389.97 354.164 402.555Z" fill="#6D6D6D"/>
<path fill-rule="evenodd" clip-rule="evenodd" d="M330.184 394.96C330.183 393.77 330.477 392.607 331.027 391.618C331.577 390.628 332.359 389.857 333.274 389.402C334.189 388.947 335.196 388.828 336.167 389.06C337.139 389.293 338.031 389.866 338.731 390.708C339.196 391.266 339.565 391.929 339.816 392.659C340.068 393.388 340.197 394.17 340.197 394.96V400.34H340.461C340.842 400.339 341.219 400.429 341.571 400.604C341.922 400.779 342.242 401.035 342.511 401.358C342.78 401.682 342.994 402.066 343.139 402.488C343.285 402.911 343.36 403.363 343.359 403.82V411.416C343.359 413.011 342.831 414.54 341.893 415.668C341.428 416.227 340.876 416.67 340.269 416.972C339.661 417.274 339.01 417.43 338.353 417.429H332.029C330.701 417.429 329.428 416.795 328.488 415.668C328.023 415.11 327.654 414.447 327.402 413.718C327.151 412.988 327.021 412.206 327.022 411.416V403.82C327.022 403.363 327.096 402.911 327.242 402.488C327.387 402.066 327.601 401.682 327.87 401.358C328.139 401.035 328.459 400.779 328.811 400.604C329.162 400.429 329.539 400.339 329.92 400.34H330.184V394.96ZM331.765 400.34H338.616V394.96C338.615 393.869 338.254 392.823 337.612 392.052C336.97 391.28 336.099 390.847 335.191 390.846C334.282 390.847 333.412 391.28 332.769 392.052C332.127 392.823 331.766 393.869 331.765 394.96V400.34ZM329.92 402.239C329.193 402.239 328.603 402.947 328.603 403.82V411.416C328.603 411.956 328.691 412.491 328.863 412.991C329.035 413.49 329.288 413.944 329.606 414.326C329.924 414.708 330.302 415.011 330.717 415.218C331.133 415.424 331.579 415.531 332.029 415.531H338.353C338.803 415.531 339.248 415.424 339.664 415.217C340.08 415.011 340.457 414.707 340.775 414.325C341.093 413.943 341.346 413.49 341.518 412.99C341.69 412.491 341.778 411.956 341.778 411.416V403.82C341.778 402.947 341.189 402.239 340.461 402.239H329.92ZM335.191 408.568C335.156 408.568 335.122 408.576 335.09 408.592C335.058 408.608 335.029 408.631 335.005 408.661C334.98 408.69 334.961 408.725 334.947 408.763C334.934 408.801 334.927 408.842 334.927 408.884C334.927 408.925 334.934 408.966 334.947 409.005C334.961 409.043 334.98 409.078 335.005 409.107C335.029 409.136 335.058 409.16 335.09 409.176C335.122 409.192 335.156 409.2 335.191 409.2C335.225 409.2 335.259 409.192 335.291 409.176C335.323 409.16 335.352 409.136 335.376 409.107C335.401 409.078 335.421 409.043 335.434 409.005C335.447 408.966 335.454 408.925 335.454 408.884C335.454 408.842 335.447 408.801 335.434 408.763C335.421 408.725 335.401 408.69 335.376 408.661C335.352 408.631 335.323 408.608 335.291 408.592C335.259 408.576 335.225 408.568 335.191 408.568ZM333.346 408.885C333.347 408.297 333.541 407.734 333.886 407.318C334.057 407.112 334.26 406.948 334.484 406.836C334.708 406.725 334.948 406.668 335.19 406.669C335.679 406.669 336.148 406.902 336.494 407.317C336.666 407.522 336.803 407.766 336.895 408.035C336.988 408.304 337.036 408.592 337.035 408.883C337.035 409.174 336.988 409.462 336.895 409.73C336.802 409.999 336.667 410.244 336.495 410.449C336.15 410.865 335.681 411.098 335.191 411.099C334.702 411.099 334.233 410.866 333.887 410.451C333.541 410.035 333.347 409.472 333.346 408.885Z" fill="white"/>
</g>
<mask id="mask7_592_1670" style="mask-type:luminance" maskUnits="userSpaceOnUse" x="75" y="572" width="39" height="47">
<path d="M75.8921 572.501H113.838V618.074H75.8921V572.501Z" fill="white"/>
</mask>
<g mask="url(#mask7_592_1670)">
<path d="M113.838 595.288C113.838 607.872 105.344 618.074 94.8652 618.074C84.3865 618.074 75.8921 607.872 75.8921 595.288C75.8921 582.703 84.3865 572.501 94.8652 572.501C105.344 572.501 113.838 582.703 113.838 595.288Z" fill="#1890FF"/>
<path fill-rule="evenodd" clip-rule="evenodd" d="M82.2402 589.021H87.9456L89.2105 598.136H100.52L101.785 589.021H107.491L105.344 605.351H84.3874L82.2402 589.021ZM84.0909 590.92L85.7384 603.453H103.993L105.64 590.92H103.124L101.859 600.035H87.8713L86.6064 590.92H84.0909Z" fill="white"/>
<path fill-rule="evenodd" clip-rule="evenodd" d="M84.5879 582.945H105.142V589.971H103.561V584.844H86.169V589.971H84.5879V582.945ZM87.1176 604.402V607.946H85.5365V604.402H87.1176ZM102.612 607.946V604.402H104.193V607.946H102.612Z" fill="white"/>
</g>
<mask id="mask8_592_1670" style="mask-type:luminance" maskUnits="userSpaceOnUse" x="491" y="7" width="39" height="47">
<path d="M491.719 7.59546H529.665V53.1677H491.719V7.59546Z" fill="white"/>
</mask>
<g mask="url(#mask8_592_1670)">
<path d="M529.665 30.3816C529.665 42.9662 521.171 53.1677 510.692 53.1677C500.213 53.1677 491.719 42.9662 491.719 30.3816C491.719 17.797 500.213 7.59546 510.692 7.59546C521.171 7.59546 529.665 17.797 529.665 30.3816Z" fill="#050505"/>
<path fill-rule="evenodd" clip-rule="evenodd" d="M508.584 19.9379C507.856 19.9379 507.267 20.6462 507.267 21.5206V21.8368H514.117V21.5206C514.117 20.6471 513.528 19.9379 512.8 19.9379H508.584ZM515.699 21.8368V21.5206C515.698 20.8322 515.528 20.1594 515.21 19.587C514.891 19.0145 514.439 18.5681 513.91 18.304C513.558 18.129 513.181 18.039 512.8 18.0391H508.584C508.203 18.0388 507.826 18.1287 507.474 18.3036C507.122 18.4785 506.803 18.7349 506.534 19.0583C506.264 19.3816 506.051 19.7655 505.905 20.188C505.76 20.6106 505.685 21.0634 505.685 21.5206V21.8368H502.259V23.7356H519.125V21.8368H515.699ZM503.577 39.2425V26.5839H505.158V39.2425C505.158 40.116 505.748 40.8252 506.476 40.8252H514.908C515.636 40.8252 516.226 40.1169 516.226 39.2425V26.5839H517.807V39.2425C517.806 40.1657 517.501 41.0511 516.958 41.7044C516.689 42.0279 516.369 42.2846 516.018 42.4596C515.666 42.6345 515.289 42.7244 514.908 42.724H506.476C505.707 42.724 504.97 42.3572 504.426 41.7043C503.883 41.0514 503.577 40.1659 503.577 39.2425ZM507.793 36.7113V27.8494H509.374V36.7113H507.793ZM512.01 36.7113V27.8494H513.591V36.7113H512.01Z" fill="#6D6D6D"/>
</g>
<mask id="mask9_592_1670" style="mask-type:luminance" maskUnits="userSpaceOnUse" x="638" y="382" width="39" height="47">
<path d="M638.76 382.617H676.706V428.189H638.76V382.617Z" fill="white"/>
</mask>
<g mask="url(#mask9_592_1670)">
<path d="M676.706 405.403C676.706 417.988 668.212 428.189 657.733 428.189C647.255 428.189 638.76 417.988 638.76 405.403C638.76 392.819 647.255 382.617 657.733 382.617C668.212 382.617 676.706 392.819 676.706 405.403Z" fill="#050505"/>
<path fill-rule="evenodd" clip-rule="evenodd" d="M655.625 394.96C654.898 394.96 654.308 395.668 654.308 396.542V396.858H661.159V396.542C661.159 395.668 660.569 394.96 659.842 394.96H655.625ZM662.74 396.858V396.542C662.739 395.619 662.434 394.734 661.891 394.082C661.347 393.429 660.61 393.062 659.842 393.061H655.625C655.052 393.061 654.492 393.266 654.015 393.648C653.539 394.031 653.167 394.574 652.948 395.21C652.802 395.633 652.727 396.085 652.727 396.542V396.858H649.301V398.757H666.166V396.858H662.74ZM650.619 414.264V401.606H652.2V414.264C652.2 415.139 652.789 415.847 653.518 415.847H661.95C662.678 415.847 663.267 415.139 663.267 414.264V401.606H664.848V414.264C664.849 414.721 664.774 415.174 664.628 415.597C664.482 416.019 664.269 416.403 664 416.726C663.73 417.05 663.411 417.306 663.059 417.481C662.707 417.656 662.33 417.746 661.95 417.746H653.518C652.749 417.745 652.012 417.378 651.468 416.725C650.925 416.072 650.619 415.187 650.619 414.264ZM654.835 411.733V402.871H656.416V411.733H654.835ZM659.051 411.733V402.871H660.632V411.733H659.051Z" fill="#6D6D6D"/>
</g>
<mask id="mask10_592_1670" style="mask-type:luminance" maskUnits="userSpaceOnUse" x="595" y="7" width="39" height="47">
<path d="M595.28 7.59546H633.226V53.1677H595.28V7.59546Z" fill="white"/>
</mask>
<g mask="url(#mask10_592_1670)">
<path d="M633.226 30.3816C633.226 42.9662 624.732 53.1677 614.253 53.1677C603.775 53.1677 595.28 42.9662 595.28 30.3816C595.28 17.797 603.775 7.59546 614.253 7.59546C624.732 7.59546 633.226 17.797 633.226 30.3816Z" fill="#050505"/>
<path fill-rule="evenodd" clip-rule="evenodd" d="M612.145 19.9379C611.418 19.9379 610.828 20.6462 610.828 21.5206V21.8368H617.679V21.5206C617.679 20.6471 617.089 19.9379 616.362 19.9379H612.145ZM619.26 21.8368V21.5206C619.26 20.8322 619.089 20.1594 618.771 19.587C618.453 19.0145 618 18.5681 617.471 18.304C617.119 18.129 616.743 18.039 616.362 18.0391H612.145C611.764 18.0388 611.387 18.1287 611.036 18.3036C610.684 18.4785 610.364 18.7349 610.095 19.0583C609.826 19.3816 609.613 19.7655 609.467 20.188C609.321 20.6106 609.247 21.0634 609.247 21.5206V21.8368H605.821V23.7356H622.686V21.8368H619.26ZM607.139 39.2425V26.5839H608.72V39.2425C608.72 40.116 609.309 40.8252 610.038 40.8252H618.47C619.198 40.8252 619.787 40.1169 619.787 39.2425V26.5839H621.368V39.2425C621.368 40.1657 621.063 41.0511 620.519 41.7044C620.25 42.0279 619.931 42.2846 619.579 42.4596C619.227 42.6345 618.85 42.7244 618.47 42.724H610.038C609.269 42.724 608.531 42.3572 607.988 41.7043C607.444 41.0514 607.139 40.1659 607.139 39.2425ZM611.355 36.7113V27.8494H612.936V36.7113H611.355ZM615.571 36.7113V27.8494H617.152V36.7113H615.571Z" fill="#6D6D6D"/>
</g>
<mask id="mask11_592_1670" style="mask-type:luminance" maskUnits="userSpaceOnUse" x="825" y="382" width="39" height="47">
<path d="M825.329 382.617H863.275V428.189H825.329V382.617Z" fill="white"/>
</mask>
<g mask="url(#mask11_592_1670)">
<path d="M863.275 405.403C863.275 417.988 854.777 428.189 844.302 428.189C833.827 428.189 825.329 417.988 825.329 405.403C825.329 392.819 833.827 382.617 844.302 382.617C854.777 382.617 863.275 392.819 863.275 405.403Z" fill="#050505"/>
<path fill-rule="evenodd" clip-rule="evenodd" d="M842.192 394.96C841.464 394.96 840.879 395.668 840.879 396.542V396.858H847.725V396.542C847.725 395.668 847.14 394.96 846.413 394.96H842.192ZM849.306 396.858V396.542C849.307 396.086 849.233 395.633 849.088 395.211C848.943 394.789 848.73 394.405 848.461 394.082C847.917 393.43 847.181 393.063 846.413 393.061H842.192C841.425 393.062 840.69 393.429 840.144 394.082C839.875 394.405 839.662 394.789 839.517 395.211C839.371 395.633 839.297 396.086 839.298 396.542V396.858H835.867V398.757H852.737V396.858H849.306ZM837.187 414.264V401.606H838.769V414.264C838.769 415.139 839.361 415.847 840.089 415.847H848.516C849.243 415.847 849.836 415.139 849.836 414.264V401.606H851.417V414.264C851.417 414.722 851.346 415.175 851.196 415.597C851.052 416.022 850.839 416.408 850.569 416.732C850.299 417.055 849.977 417.31 849.623 417.482C849.275 417.657 848.895 417.746 848.516 417.746H840.089C839.709 417.746 839.33 417.657 838.982 417.482C838.629 417.308 838.31 417.052 838.041 416.727C837.767 416.407 837.552 416.022 837.409 415.597C837.264 415.174 837.189 414.722 837.187 414.264ZM841.401 411.733V402.871H842.982V411.733H841.401ZM845.623 411.733V402.871H847.204V411.733H845.623Z" fill="#6D6D6D"/>
</g>
<mask id="mask12_592_1670" style="mask-type:luminance" maskUnits="userSpaceOnUse" x="940" y="301" width="39" height="47">
<path d="M940.748 301.916H978.694V347.489H940.748V301.916Z" fill="white"/>
</mask>
<g mask="url(#mask12_592_1670)">
<path d="M978.694 324.702C978.694 337.287 970.196 347.489 959.721 347.489C949.246 347.489 940.748 337.287 940.748 324.702C940.748 312.118 949.246 301.916 959.721 301.916C970.196 301.916 978.694 312.118 978.694 324.702Z" fill="#050505"/>
<path fill-rule="evenodd" clip-rule="evenodd" d="M957.61 314.259C956.883 314.259 956.298 314.967 956.298 315.841V316.158H963.144V315.841C963.144 314.967 962.559 314.259 961.832 314.259H957.61ZM964.725 316.158V315.841C964.726 315.385 964.652 314.932 964.507 314.51C964.362 314.088 964.149 313.704 963.88 313.381C963.336 312.729 962.6 312.362 961.832 312.36H957.61C956.844 312.361 956.108 312.728 955.563 313.381C955.294 313.704 955.081 314.088 954.936 314.51C954.79 314.932 954.716 315.385 954.717 315.841V316.158H951.286V318.056H968.156V316.158H964.725ZM952.606 333.563V320.905H954.187V333.563C954.187 334.438 954.78 335.146 955.508 335.146H963.935C964.662 335.146 965.255 334.438 965.255 333.563V320.905H966.836V333.563C966.836 334.021 966.765 334.474 966.615 334.896C966.471 335.321 966.258 335.707 965.988 336.031C965.717 336.354 965.396 336.61 965.042 336.781C964.694 336.956 964.314 337.045 963.935 337.045H955.508C955.128 337.045 954.749 336.956 954.401 336.781C954.048 336.607 953.728 336.351 953.46 336.026C953.186 335.706 952.971 335.322 952.828 334.896C952.683 334.473 952.608 334.021 952.606 333.563ZM956.82 331.032V322.17H958.401V331.032H956.82ZM961.042 331.032V322.17H962.623V331.032H961.042Z" fill="#6D6D6D"/>
</g>
<mask id="mask13_592_1670" style="mask-type:luminance" maskUnits="userSpaceOnUse" x="985" y="106" width="38" height="46">
<path d="M985.019 106.335H1022.96V151.907H985.019V106.335Z" fill="white"/>
</mask>
<g mask="url(#mask13_592_1670)">
<path d="M1022.96 129.121C1022.96 141.706 1014.47 151.907 1003.99 151.907C993.517 151.907 985.019 141.706 985.019 129.121C985.019 116.537 993.517 106.335 1003.99 106.335C1014.47 106.335 1022.96 116.537 1022.96 129.121Z" fill="#050505"/>
<path fill-rule="evenodd" clip-rule="evenodd" d="M1001.88 118.678C1001.15 118.678 1000.57 119.386 1000.57 120.26V120.576H1007.41V120.26C1007.41 119.386 1006.83 118.678 1006.1 118.678H1001.88ZM1009 120.576V120.26C1009 119.338 1008.7 118.454 1008.15 117.8C1007.61 117.148 1006.87 116.781 1006.1 116.779H1001.88C1001.11 116.78 1000.38 117.147 999.834 117.8C999.565 118.123 999.351 118.507 999.206 118.929C999.061 119.351 998.987 119.804 998.988 120.26V120.576H995.557V122.475H1012.43V120.576H1009ZM996.877 137.982V125.324H998.458V137.982C998.458 138.857 999.051 139.565 999.778 139.565H1008.21C1008.93 139.565 1009.53 138.857 1009.53 137.982V125.324H1011.11V137.982C1011.11 138.44 1011.04 138.893 1010.89 139.315C1010.74 139.74 1010.53 140.126 1010.26 140.45C1009.99 140.773 1009.67 141.028 1009.31 141.2C1008.96 141.375 1008.58 141.464 1008.21 141.464H999.778C999.399 141.464 999.019 141.375 998.671 141.2C998.319 141.026 997.999 140.77 997.731 140.445C997.457 140.125 997.241 139.74 997.098 139.315C996.954 138.892 996.879 138.44 996.877 137.982ZM1001.09 135.451V126.589H1002.67V135.451H1001.09ZM1005.31 135.451V126.589H1006.89V135.451H1005.31Z" fill="#6D6D6D"/>
</g>
<path fill-rule="evenodd" clip-rule="evenodd" d="M22.3992 451.925C21.6711 451.925 21.0813 452.633 21.0813 453.507V453.824H27.9322V453.507C27.9322 452.633 27.3425 451.925 26.6152 451.925H22.3992ZM29.5141 453.824V453.507C29.5137 452.584 29.208 451.699 28.6643 451.046C28.1205 450.393 27.3832 450.026 26.6144 450.026H22.3976C21.629 450.026 20.8919 450.393 20.3485 451.046C19.8051 451.699 19.4997 452.584 19.4995 453.507V453.824H16.0732V455.722H32.9387V453.824H29.5125H29.5141ZM17.3919 471.229V458.571H18.973V471.229C18.973 472.104 19.5627 472.812 20.2908 472.812H28.7228C29.4508 472.812 30.0406 472.104 30.0406 471.229V458.571H31.6217V471.229C31.6211 472.152 31.3155 473.037 30.7722 473.69C30.2288 474.343 29.4921 474.71 28.7235 474.711H20.29C19.5214 474.71 18.7843 474.343 18.2409 473.691C17.6975 473.038 17.3921 472.152 17.3919 471.229ZM21.6086 468.698V459.836H23.1897V468.698H21.6086ZM25.8246 468.698V459.836H27.4057V468.698H25.8246Z" fill="#6D6D6D"/>
</g>
</g>
</g>
<defs>
<clipPath id="clip0_592_1670">
<rect width="1204" height="657" fill="white"/>
</clipPath>
</defs>
</svg>
