<svg width="260" height="17" viewBox="0 0 260 17" fill="none" xmlns="http://www.w3.org/2000/svg">
<mask id="path-1-outside-1_379_675" maskUnits="userSpaceOnUse" x="-1" y="-1" width="262" height="19" fill="black">
<rect fill="white" x="-1" y="-1" width="262" height="19"/>
<path d="M14.6 7.4V5C14.6 3.68 13.52 2.6 12.2 2.6H2.6V9.8H12.2C13.52 9.8 14.6 8.72 14.6 7.4ZM17 5V7.4C17 9.944 14.888 12.2 12.2 12.2H2.6V17H0.2V0.199999H12.2C14.768 0.199999 16.928 2.336 17 5ZM25.8866 0.199999H33.0866C35.6546 0.199999 37.8146 2.336 37.8866 5H35.4866C35.4866 3.68 34.4066 2.6 33.0866 2.6H25.8866C24.5666 2.6 23.4866 3.68 23.4866 5V12.2C23.4866 13.52 24.5666 14.6 25.8866 14.6H33.0866C34.4066 14.6 35.4866 13.52 35.4866 12.2H37.8866C37.8866 14.744 35.7746 17 33.0866 17H25.8866C23.3186 17 21.0866 14.912 21.0866 12.2V5C21.0866 2.408 23.1986 0.271999 25.8866 0.199999ZM66.2047 2.6H59.0047C57.6847 2.6 56.6047 3.68 56.6047 5V9.8H68.6047V5C68.6047 3.68 67.5247 2.6 66.2047 2.6ZM71.0047 5V17H68.6047V12.2H56.6047V17H54.2047V5C54.2047 2.456 56.3167 0.199999 59.0047 0.199999H66.2047C68.7727 0.199999 70.9327 2.336 71.0047 5ZM82.76 9.8V7.4H92.36V12.2C92.36 14.744 90.248 17 87.56 17H80.36C77.792 17 75.56 14.912 75.56 12.2V5C75.56 2.456 77.672 0.199999 80.36 0.199999H87.56C90.128 0.199999 92.288 2.336 92.36 5H89.96C89.96 3.68 88.88 2.6 87.56 2.6H80.36C79.04 2.6 77.96 3.68 77.96 5V12.2C77.96 13.52 79.04 14.6 80.36 14.6H87.56C88.88 14.6 89.96 13.52 89.96 12.2V9.8H82.76ZM103.887 9.8V7.4H113.487V12.2C113.487 14.744 111.375 17 108.687 17H101.487C98.9186 17 96.6866 14.912 96.6866 12.2V5C96.6866 2.456 98.7986 0.199999 101.487 0.199999H108.687C111.255 0.199999 113.415 2.336 113.487 5H111.087C111.087 3.68 110.007 2.6 108.687 2.6H101.487C100.167 2.6 99.0866 3.68 99.0866 5V12.2C99.0866 13.52 100.167 14.6 101.487 14.6H108.687C110.007 14.6 111.087 13.52 111.087 12.2V9.8H103.887ZM132.453 7.4V5C132.453 3.68 131.373 2.6 130.053 2.6H120.453V9.8H130.053C131.373 9.8 132.453 8.72 132.453 7.4ZM134.853 17H133.149L128.349 12.2H120.453V17H118.053V0.199999H130.053C132.573 0.199999 134.853 2.336 134.853 5V7.4C134.853 9.44 133.509 11.288 131.517 11.96L134.853 15.296V17ZM141.814 2.6V7.4H153.814V9.8H141.814V14.6H156.214V17H139.414V0.199999H156.214V2.6H141.814ZM167.501 9.8V7.4H177.101V12.2C177.101 14.744 174.989 17 172.301 17H165.101C162.533 17 160.301 14.912 160.301 12.2V5C160.301 2.456 162.413 0.199999 165.101 0.199999H172.301C174.869 0.199999 177.029 2.336 177.101 5H174.701C174.701 3.68 173.621 2.6 172.301 2.6H165.101C163.781 2.6 162.701 3.68 162.701 5V12.2C162.701 13.52 163.781 14.6 165.101 14.6H172.301C173.621 14.6 174.701 13.52 174.701 12.2V9.8H167.501ZM193.667 2.6H186.467C185.147 2.6 184.067 3.68 184.067 5V9.8H196.067V5C196.067 3.68 194.987 2.6 193.667 2.6ZM198.467 5V17H196.067V12.2H184.067V17H181.667V5C181.667 2.456 183.779 0.199999 186.467 0.199999H193.667C196.235 0.199999 198.395 2.336 198.467 5ZM218.136 2.6H210.936V17H208.536V2.6H201.336V0.199999H218.136V2.6ZM235.432 12.2V5C235.432 3.68 234.352 2.6 233.032 2.6H225.832C224.512 2.6 223.432 3.68 223.432 5V12.2C223.432 13.52 224.512 14.6 225.832 14.6H233.032C234.352 14.6 235.432 13.52 235.432 12.2ZM237.832 5V12.2C237.832 14.84 235.672 17 233.032 17H225.832C223.168 17 221.032 14.864 221.032 12.2V5C221.032 2.36 223.192 0.199999 225.832 0.199999H233.032C235.576 0.199999 237.832 2.384 237.832 5ZM256.798 7.4V5C256.798 3.68 255.718 2.6 254.398 2.6H244.798V9.8H254.398C255.718 9.8 256.798 8.72 256.798 7.4ZM259.198 17H257.494L252.694 12.2H244.798V17H242.398V0.199999H254.398C256.918 0.199999 259.198 2.336 259.198 5V7.4C259.198 9.44 257.854 11.288 255.862 11.96L259.198 15.296V17Z"/>
</mask>
<path d="M14.6 7.4V5C14.6 3.68 13.52 2.6 12.2 2.6H2.6V9.8H12.2C13.52 9.8 14.6 8.72 14.6 7.4ZM17 5V7.4C17 9.944 14.888 12.2 12.2 12.2H2.6V17H0.2V0.199999H12.2C14.768 0.199999 16.928 2.336 17 5ZM25.8866 0.199999H33.0866C35.6546 0.199999 37.8146 2.336 37.8866 5H35.4866C35.4866 3.68 34.4066 2.6 33.0866 2.6H25.8866C24.5666 2.6 23.4866 3.68 23.4866 5V12.2C23.4866 13.52 24.5666 14.6 25.8866 14.6H33.0866C34.4066 14.6 35.4866 13.52 35.4866 12.2H37.8866C37.8866 14.744 35.7746 17 33.0866 17H25.8866C23.3186 17 21.0866 14.912 21.0866 12.2V5C21.0866 2.408 23.1986 0.271999 25.8866 0.199999ZM66.2047 2.6H59.0047C57.6847 2.6 56.6047 3.68 56.6047 5V9.8H68.6047V5C68.6047 3.68 67.5247 2.6 66.2047 2.6ZM71.0047 5V17H68.6047V12.2H56.6047V17H54.2047V5C54.2047 2.456 56.3167 0.199999 59.0047 0.199999H66.2047C68.7727 0.199999 70.9327 2.336 71.0047 5ZM82.76 9.8V7.4H92.36V12.2C92.36 14.744 90.248 17 87.56 17H80.36C77.792 17 75.56 14.912 75.56 12.2V5C75.56 2.456 77.672 0.199999 80.36 0.199999H87.56C90.128 0.199999 92.288 2.336 92.36 5H89.96C89.96 3.68 88.88 2.6 87.56 2.6H80.36C79.04 2.6 77.96 3.68 77.96 5V12.2C77.96 13.52 79.04 14.6 80.36 14.6H87.56C88.88 14.6 89.96 13.52 89.96 12.2V9.8H82.76ZM103.887 9.8V7.4H113.487V12.2C113.487 14.744 111.375 17 108.687 17H101.487C98.9186 17 96.6866 14.912 96.6866 12.2V5C96.6866 2.456 98.7986 0.199999 101.487 0.199999H108.687C111.255 0.199999 113.415 2.336 113.487 5H111.087C111.087 3.68 110.007 2.6 108.687 2.6H101.487C100.167 2.6 99.0866 3.68 99.0866 5V12.2C99.0866 13.52 100.167 14.6 101.487 14.6H108.687C110.007 14.6 111.087 13.52 111.087 12.2V9.8H103.887ZM132.453 7.4V5C132.453 3.68 131.373 2.6 130.053 2.6H120.453V9.8H130.053C131.373 9.8 132.453 8.72 132.453 7.4ZM134.853 17H133.149L128.349 12.2H120.453V17H118.053V0.199999H130.053C132.573 0.199999 134.853 2.336 134.853 5V7.4C134.853 9.44 133.509 11.288 131.517 11.96L134.853 15.296V17ZM141.814 2.6V7.4H153.814V9.8H141.814V14.6H156.214V17H139.414V0.199999H156.214V2.6H141.814ZM167.501 9.8V7.4H177.101V12.2C177.101 14.744 174.989 17 172.301 17H165.101C162.533 17 160.301 14.912 160.301 12.2V5C160.301 2.456 162.413 0.199999 165.101 0.199999H172.301C174.869 0.199999 177.029 2.336 177.101 5H174.701C174.701 3.68 173.621 2.6 172.301 2.6H165.101C163.781 2.6 162.701 3.68 162.701 5V12.2C162.701 13.52 163.781 14.6 165.101 14.6H172.301C173.621 14.6 174.701 13.52 174.701 12.2V9.8H167.501ZM193.667 2.6H186.467C185.147 2.6 184.067 3.68 184.067 5V9.8H196.067V5C196.067 3.68 194.987 2.6 193.667 2.6ZM198.467 5V17H196.067V12.2H184.067V17H181.667V5C181.667 2.456 183.779 0.199999 186.467 0.199999H193.667C196.235 0.199999 198.395 2.336 198.467 5ZM218.136 2.6H210.936V17H208.536V2.6H201.336V0.199999H218.136V2.6ZM235.432 12.2V5C235.432 3.68 234.352 2.6 233.032 2.6H225.832C224.512 2.6 223.432 3.68 223.432 5V12.2C223.432 13.52 224.512 14.6 225.832 14.6H233.032C234.352 14.6 235.432 13.52 235.432 12.2ZM237.832 5V12.2C237.832 14.84 235.672 17 233.032 17H225.832C223.168 17 221.032 14.864 221.032 12.2V5C221.032 2.36 223.192 0.199999 225.832 0.199999H233.032C235.576 0.199999 237.832 2.384 237.832 5ZM256.798 7.4V5C256.798 3.68 255.718 2.6 254.398 2.6H244.798V9.8H254.398C255.718 9.8 256.798 8.72 256.798 7.4ZM259.198 17H257.494L252.694 12.2H244.798V17H242.398V0.199999H254.398C256.918 0.199999 259.198 2.336 259.198 5V7.4C259.198 9.44 257.854 11.288 255.862 11.96L259.198 15.296V17Z" fill="white"/>
<path d="M2.6 2.6V1.6H1.6V2.6H2.6ZM2.6 9.8H1.6V10.8H2.6V9.8ZM17 5H18V4.98649L17.9996 4.97298L17 5ZM2.6 12.2V11.2H1.6V12.2H2.6ZM2.6 17V18H3.6V17H2.6ZM0.2 17H-0.8V18H0.2V17ZM0.2 0.199999V-0.800001H-0.8V0.199999H0.2ZM15.6 7.4V5H13.6V7.4H15.6ZM15.6 5C15.6 3.12772 14.0723 1.6 12.2 1.6V3.6C12.9677 3.6 13.6 4.23228 13.6 5H15.6ZM12.2 1.6H2.6V3.6H12.2V1.6ZM1.6 2.6V9.8H3.6V2.6H1.6ZM2.6 10.8H12.2V8.8H2.6V10.8ZM12.2 10.8C14.0723 10.8 15.6 9.27228 15.6 7.4H13.6C13.6 8.16771 12.9677 8.8 12.2 8.8V10.8ZM16 5V7.4H18V5H16ZM16 7.4C16 9.41125 14.3164 11.2 12.2 11.2V13.2C15.4596 13.2 18 10.4767 18 7.4H16ZM12.2 11.2H2.6V13.2H12.2V11.2ZM1.6 12.2V17H3.6V12.2H1.6ZM2.6 16H0.2V18H2.6V16ZM1.2 17V0.199999H-0.8V17H1.2ZM0.2 1.2H12.2V-0.800001H0.2V1.2ZM12.2 1.2C14.2044 1.2 15.9424 2.88253 16.0004 5.02702L17.9996 4.97298C17.9136 1.78947 15.3316 -0.800001 12.2 -0.800001V1.2ZM25.8866 0.199999V-0.800001H25.8732L25.8598 -0.799643L25.8866 0.199999ZM37.8866 5V6H38.914L38.8862 4.97298L37.8866 5ZM35.4866 5H34.4866V6H35.4866V5ZM35.4866 12.2V11.2H34.4866V12.2H35.4866ZM37.8866 12.2H38.8866V11.2H37.8866V12.2ZM25.8866 1.2H33.0866V-0.800001H25.8866V1.2ZM33.0866 1.2C35.091 1.2 36.829 2.88253 36.8869 5.02702L38.8862 4.97298C38.8002 1.78947 36.2181 -0.800001 33.0866 -0.800001V1.2ZM37.8866 4H35.4866V6H37.8866V4ZM36.4866 5C36.4866 3.12772 34.9588 1.6 33.0866 1.6V3.6C33.8543 3.6 34.4866 4.23228 34.4866 5H36.4866ZM33.0866 1.6H25.8866V3.6H33.0866V1.6ZM25.8866 1.6C24.0143 1.6 22.4866 3.12772 22.4866 5H24.4866C24.4866 4.23228 25.1188 3.6 25.8866 3.6V1.6ZM22.4866 5V12.2H24.4866V5H22.4866ZM22.4866 12.2C22.4866 14.0723 24.0143 15.6 25.8866 15.6V13.6C25.1188 13.6 24.4866 12.9677 24.4866 12.2H22.4866ZM25.8866 15.6H33.0866V13.6H25.8866V15.6ZM33.0866 15.6C34.9588 15.6 36.4866 14.0723 36.4866 12.2H34.4866C34.4866 12.9677 33.8543 13.6 33.0866 13.6V15.6ZM35.4866 13.2H37.8866V11.2H35.4866V13.2ZM36.8866 12.2C36.8866 14.2113 35.2029 16 33.0866 16V18C36.3462 18 38.8866 15.2767 38.8866 12.2H36.8866ZM33.0866 16H25.8866V18H33.0866V16ZM25.8866 16C23.8512 16 22.0866 14.3403 22.0866 12.2H20.0866C20.0866 15.4837 22.7859 18 25.8866 18V16ZM22.0866 12.2V5H20.0866V12.2H22.0866ZM22.0866 5C22.0866 2.97142 23.7452 1.25772 25.9133 1.19964L25.8598 -0.799643C22.6519 -0.713717 20.0866 1.84458 20.0866 5H22.0866ZM56.6047 9.8H55.6047V10.8H56.6047V9.8ZM68.6047 9.8V10.8H69.6047V9.8H68.6047ZM71.0047 5H72.0047V4.98649L72.0043 4.97298L71.0047 5ZM71.0047 17V18H72.0047V17H71.0047ZM68.6047 17H67.6047V18H68.6047V17ZM68.6047 12.2H69.6047V11.2H68.6047V12.2ZM56.6047 12.2V11.2H55.6047V12.2H56.6047ZM56.6047 17V18H57.6047V17H56.6047ZM54.2047 17H53.2047V18H54.2047V17ZM66.2047 1.6H59.0047V3.6H66.2047V1.6ZM59.0047 1.6C57.1324 1.6 55.6047 3.12772 55.6047 5H57.6047C57.6047 4.23228 58.237 3.6 59.0047 3.6V1.6ZM55.6047 5V9.8H57.6047V5H55.6047ZM56.6047 10.8H68.6047V8.8H56.6047V10.8ZM69.6047 9.8V5H67.6047V9.8H69.6047ZM69.6047 5C69.6047 3.12772 68.077 1.6 66.2047 1.6V3.6C66.9724 3.6 67.6047 4.23228 67.6047 5H69.6047ZM70.0047 5V17H72.0047V5H70.0047ZM71.0047 16H68.6047V18H71.0047V16ZM69.6047 17V12.2H67.6047V17H69.6047ZM68.6047 11.2H56.6047V13.2H68.6047V11.2ZM55.6047 12.2V17H57.6047V12.2H55.6047ZM56.6047 16H54.2047V18H56.6047V16ZM55.2047 17V5H53.2047V17H55.2047ZM55.2047 5C55.2047 2.98875 56.8883 1.2 59.0047 1.2V-0.800001C55.7451 -0.800001 53.2047 1.92325 53.2047 5H55.2047ZM59.0047 1.2H66.2047V-0.800001H59.0047V1.2ZM66.2047 1.2C68.2091 1.2 69.9471 2.88253 70.0051 5.02702L72.0043 4.97298C71.9183 1.78947 69.3362 -0.800001 66.2047 -0.800001V1.2ZM82.76 9.8H81.76V10.8H82.76V9.8ZM82.76 7.4V6.4H81.76V7.4H82.76ZM92.36 7.4H93.36V6.4H92.36V7.4ZM92.36 5V6H93.3874L93.3596 4.97298L92.36 5ZM89.96 5H88.96V6H89.96V5ZM89.96 9.8H90.96V8.8H89.96V9.8ZM83.76 9.8V7.4H81.76V9.8H83.76ZM82.76 8.4H92.36V6.4H82.76V8.4ZM91.36 7.4V12.2H93.36V7.4H91.36ZM91.36 12.2C91.36 14.2113 89.6764 16 87.56 16V18C90.8196 18 93.36 15.2767 93.36 12.2H91.36ZM87.56 16H80.36V18H87.56V16ZM80.36 16C78.3247 16 76.56 14.3403 76.56 12.2H74.56C74.56 15.4837 77.2593 18 80.36 18V16ZM76.56 12.2V5H74.56V12.2H76.56ZM76.56 5C76.56 2.98875 78.2436 1.2 80.36 1.2V-0.800001C77.1004 -0.800001 74.56 1.92325 74.56 5H76.56ZM80.36 1.2H87.56V-0.800001H80.36V1.2ZM87.56 1.2C89.5644 1.2 91.3024 2.88253 91.3604 5.02702L93.3596 4.97298C93.2736 1.78947 90.6916 -0.800001 87.56 -0.800001V1.2ZM92.36 4H89.96V6H92.36V4ZM90.96 5C90.96 3.12772 89.4323 1.6 87.56 1.6V3.6C88.3277 3.6 88.96 4.23228 88.96 5H90.96ZM87.56 1.6H80.36V3.6H87.56V1.6ZM80.36 1.6C78.4877 1.6 76.96 3.12772 76.96 5H78.96C78.96 4.23228 79.5923 3.6 80.36 3.6V1.6ZM76.96 5V12.2H78.96V5H76.96ZM76.96 12.2C76.96 14.0723 78.4877 15.6 80.36 15.6V13.6C79.5923 13.6 78.96 12.9677 78.96 12.2H76.96ZM80.36 15.6H87.56V13.6H80.36V15.6ZM87.56 15.6C89.4323 15.6 90.96 14.0723 90.96 12.2H88.96C88.96 12.9677 88.3277 13.6 87.56 13.6V15.6ZM90.96 12.2V9.8H88.96V12.2H90.96ZM89.96 8.8H82.76V10.8H89.96V8.8ZM103.887 9.8H102.887V10.8H103.887V9.8ZM103.887 7.4V6.4H102.887V7.4H103.887ZM113.487 7.4H114.487V6.4H113.487V7.4ZM113.487 5V6H114.514L114.486 4.97298L113.487 5ZM111.087 5H110.087V6H111.087V5ZM111.087 9.8H112.087V8.8H111.087V9.8ZM104.887 9.8V7.4H102.887V9.8H104.887ZM103.887 8.4H113.487V6.4H103.887V8.4ZM112.487 7.4V12.2H114.487V7.4H112.487ZM112.487 12.2C112.487 14.2113 110.803 16 108.687 16V18C111.946 18 114.487 15.2767 114.487 12.2H112.487ZM108.687 16H101.487V18H108.687V16ZM101.487 16C99.4512 16 97.6866 14.3403 97.6866 12.2H95.6866C95.6866 15.4837 98.3859 18 101.487 18V16ZM97.6866 12.2V5H95.6866V12.2H97.6866ZM97.6866 5C97.6866 2.98875 99.3702 1.2 101.487 1.2V-0.800001C98.2269 -0.800001 95.6866 1.92325 95.6866 5H97.6866ZM101.487 1.2H108.687V-0.800001H101.487V1.2ZM108.687 1.2C110.691 1.2 112.429 2.88253 112.487 5.02702L114.486 4.97298C114.4 1.78947 111.818 -0.800001 108.687 -0.800001V1.2ZM113.487 4H111.087V6H113.487V4ZM112.087 5C112.087 3.12772 110.559 1.6 108.687 1.6V3.6C109.454 3.6 110.087 4.23228 110.087 5H112.087ZM108.687 1.6H101.487V3.6H108.687V1.6ZM101.487 1.6C99.6143 1.6 98.0866 3.12772 98.0866 5H100.087C100.087 4.23228 100.719 3.6 101.487 3.6V1.6ZM98.0866 5V12.2H100.087V5H98.0866ZM98.0866 12.2C98.0866 14.0723 99.6143 15.6 101.487 15.6V13.6C100.719 13.6 100.087 12.9677 100.087 12.2H98.0866ZM101.487 15.6H108.687V13.6H101.487V15.6ZM108.687 15.6C110.559 15.6 112.087 14.0723 112.087 12.2H110.087C110.087 12.9677 109.454 13.6 108.687 13.6V15.6ZM112.087 12.2V9.8H110.087V12.2H112.087ZM111.087 8.8H103.887V10.8H111.087V8.8ZM120.453 2.6V1.6H119.453V2.6H120.453ZM120.453 9.8H119.453V10.8H120.453V9.8ZM134.853 17V18H135.853V17H134.853ZM133.149 17L132.442 17.7071L132.735 18H133.149V17ZM128.349 12.2L129.056 11.4929L128.763 11.2H128.349V12.2ZM120.453 12.2V11.2H119.453V12.2H120.453ZM120.453 17V18H121.453V17H120.453ZM118.053 17H117.053V18H118.053V17ZM118.053 0.199999V-0.800001H117.053V0.199999H118.053ZM131.517 11.96L131.197 11.0125L129.671 11.5276L130.81 12.6671L131.517 11.96ZM134.853 15.296H135.853V14.8818L135.56 14.5889L134.853 15.296ZM133.453 7.4V5H131.453V7.4H133.453ZM133.453 5C133.453 3.12772 131.925 1.6 130.053 1.6V3.6C130.821 3.6 131.453 4.23228 131.453 5H133.453ZM130.053 1.6H120.453V3.6H130.053V1.6ZM119.453 2.6V9.8H121.453V2.6H119.453ZM120.453 10.8H130.053V8.8H120.453V10.8ZM130.053 10.8C131.925 10.8 133.453 9.27228 133.453 7.4H131.453C131.453 8.16771 130.821 8.8 130.053 8.8V10.8ZM134.853 16H133.149V18H134.853V16ZM133.856 16.2929L129.056 11.4929L127.642 12.9071L132.442 17.7071L133.856 16.2929ZM128.349 11.2H120.453V13.2H128.349V11.2ZM119.453 12.2V17H121.453V12.2H119.453ZM120.453 16H118.053V18H120.453V16ZM119.053 17V0.199999H117.053V17H119.053ZM118.053 1.2H130.053V-0.800001H118.053V1.2ZM130.053 1.2C132.04 1.2 133.853 2.90756 133.853 5H135.853C135.853 1.76444 133.106 -0.800001 130.053 -0.800001V1.2ZM133.853 5V7.4H135.853V5H133.853ZM133.853 7.4C133.853 8.99771 132.796 10.4734 131.197 11.0125L131.837 12.9075C134.223 12.1026 135.853 9.88229 135.853 7.4H133.853ZM130.81 12.6671L134.146 16.0031L135.56 14.5889L132.224 11.2529L130.81 12.6671ZM133.853 15.296V17H135.853V15.296H133.853ZM141.814 2.6V1.6H140.814V2.6H141.814ZM141.814 7.4H140.814V8.4H141.814V7.4ZM153.814 7.4H154.814V6.4H153.814V7.4ZM153.814 9.8V10.8H154.814V9.8H153.814ZM141.814 9.8V8.8H140.814V9.8H141.814ZM141.814 14.6H140.814V15.6H141.814V14.6ZM156.214 14.6H157.214V13.6H156.214V14.6ZM156.214 17V18H157.214V17H156.214ZM139.414 17H138.414V18H139.414V17ZM139.414 0.199999V-0.800001H138.414V0.199999H139.414ZM156.214 0.199999H157.214V-0.800001H156.214V0.199999ZM156.214 2.6V3.6H157.214V2.6H156.214ZM140.814 2.6V7.4H142.814V2.6H140.814ZM141.814 8.4H153.814V6.4H141.814V8.4ZM152.814 7.4V9.8H154.814V7.4H152.814ZM153.814 8.8H141.814V10.8H153.814V8.8ZM140.814 9.8V14.6H142.814V9.8H140.814ZM141.814 15.6H156.214V13.6H141.814V15.6ZM155.214 14.6V17H157.214V14.6H155.214ZM156.214 16H139.414V18H156.214V16ZM140.414 17V0.199999H138.414V17H140.414ZM139.414 1.2H156.214V-0.800001H139.414V1.2ZM155.214 0.199999V2.6H157.214V0.199999H155.214ZM156.214 1.6H141.814V3.6H156.214V1.6ZM167.501 9.8H166.501V10.8H167.501V9.8ZM167.501 7.4V6.4H166.501V7.4H167.501ZM177.101 7.4H178.101V6.4H177.101V7.4ZM177.101 5V6H178.128L178.1 4.97298L177.101 5ZM174.701 5H173.701V6H174.701V5ZM174.701 9.8H175.701V8.8H174.701V9.8ZM168.501 9.8V7.4H166.501V9.8H168.501ZM167.501 8.4H177.101V6.4H167.501V8.4ZM176.101 7.4V12.2H178.101V7.4H176.101ZM176.101 12.2C176.101 14.2113 174.417 16 172.301 16V18C175.56 18 178.101 15.2767 178.101 12.2H176.101ZM172.301 16H165.101V18H172.301V16ZM165.101 16C163.065 16 161.301 14.3403 161.301 12.2H159.301C159.301 15.4837 162 18 165.101 18V16ZM161.301 12.2V5H159.301V12.2H161.301ZM161.301 5C161.301 2.98875 162.984 1.2 165.101 1.2V-0.800001C161.841 -0.800001 159.301 1.92325 159.301 5H161.301ZM165.101 1.2H172.301V-0.800001H165.101V1.2ZM172.301 1.2C174.305 1.2 176.043 2.88253 176.101 5.02702L178.1 4.97298C178.014 1.78947 175.432 -0.800001 172.301 -0.800001V1.2ZM177.101 4H174.701V6H177.101V4ZM175.701 5C175.701 3.12772 174.173 1.6 172.301 1.6V3.6C173.068 3.6 173.701 4.23228 173.701 5H175.701ZM172.301 1.6H165.101V3.6H172.301V1.6ZM165.101 1.6C163.228 1.6 161.701 3.12772 161.701 5H163.701C163.701 4.23228 164.333 3.6 165.101 3.6V1.6ZM161.701 5V12.2H163.701V5H161.701ZM161.701 12.2C161.701 14.0723 163.228 15.6 165.101 15.6V13.6C164.333 13.6 163.701 12.9677 163.701 12.2H161.701ZM165.101 15.6H172.301V13.6H165.101V15.6ZM172.301 15.6C174.173 15.6 175.701 14.0723 175.701 12.2H173.701C173.701 12.9677 173.068 13.6 172.301 13.6V15.6ZM175.701 12.2V9.8H173.701V12.2H175.701ZM174.701 8.8H167.501V10.8H174.701V8.8ZM184.067 9.8H183.067V10.8H184.067V9.8ZM196.067 9.8V10.8H197.067V9.8H196.067ZM198.467 5H199.467V4.98649L199.467 4.97298L198.467 5ZM198.467 17V18H199.467V17H198.467ZM196.067 17H195.067V18H196.067V17ZM196.067 12.2H197.067V11.2H196.067V12.2ZM184.067 12.2V11.2H183.067V12.2H184.067ZM184.067 17V18H185.067V17H184.067ZM181.667 17H180.667V18H181.667V17ZM193.667 1.6H186.467V3.6H193.667V1.6ZM186.467 1.6C184.595 1.6 183.067 3.12772 183.067 5H185.067C185.067 4.23228 185.699 3.6 186.467 3.6V1.6ZM183.067 5V9.8H185.067V5H183.067ZM184.067 10.8H196.067V8.8H184.067V10.8ZM197.067 9.8V5H195.067V9.8H197.067ZM197.067 5C197.067 3.12772 195.539 1.6 193.667 1.6V3.6C194.435 3.6 195.067 4.23228 195.067 5H197.067ZM197.467 5V17H199.467V5H197.467ZM198.467 16H196.067V18H198.467V16ZM197.067 17V12.2H195.067V17H197.067ZM196.067 11.2H184.067V13.2H196.067V11.2ZM183.067 12.2V17H185.067V12.2H183.067ZM184.067 16H181.667V18H184.067V16ZM182.667 17V5H180.667V17H182.667ZM182.667 5C182.667 2.98875 184.351 1.2 186.467 1.2V-0.800001C183.208 -0.800001 180.667 1.92325 180.667 5H182.667ZM186.467 1.2H193.667V-0.800001H186.467V1.2ZM193.667 1.2C195.672 1.2 197.41 2.88253 197.468 5.02702L199.467 4.97298C199.381 1.78947 196.799 -0.800001 193.667 -0.800001V1.2ZM218.136 2.6V3.6H219.136V2.6H218.136ZM210.936 2.6V1.6H209.936V2.6H210.936ZM210.936 17V18H211.936V17H210.936ZM208.536 17H207.536V18H208.536V17ZM208.536 2.6H209.536V1.6H208.536V2.6ZM201.336 2.6H200.336V3.6H201.336V2.6ZM201.336 0.199999V-0.800001H200.336V0.199999H201.336ZM218.136 0.199999H219.136V-0.800001H218.136V0.199999ZM218.136 1.6H210.936V3.6H218.136V1.6ZM209.936 2.6V17H211.936V2.6H209.936ZM210.936 16H208.536V18H210.936V16ZM209.536 17V2.6H207.536V17H209.536ZM208.536 1.6H201.336V3.6H208.536V1.6ZM202.336 2.6V0.199999H200.336V2.6H202.336ZM201.336 1.2H218.136V-0.800001H201.336V1.2ZM217.136 0.199999V2.6H219.136V0.199999H217.136ZM236.432 12.2V5H234.432V12.2H236.432ZM236.432 5C236.432 3.12772 234.904 1.6 233.032 1.6V3.6C233.8 3.6 234.432 4.23228 234.432 5H236.432ZM233.032 1.6H225.832V3.6H233.032V1.6ZM225.832 1.6C223.96 1.6 222.432 3.12772 222.432 5H224.432C224.432 4.23228 225.064 3.6 225.832 3.6V1.6ZM222.432 5V12.2H224.432V5H222.432ZM222.432 12.2C222.432 14.0723 223.96 15.6 225.832 15.6V13.6C225.064 13.6 224.432 12.9677 224.432 12.2H222.432ZM225.832 15.6H233.032V13.6H225.832V15.6ZM233.032 15.6C234.904 15.6 236.432 14.0723 236.432 12.2H234.432C234.432 12.9677 233.8 13.6 233.032 13.6V15.6ZM236.832 5V12.2H238.832V5H236.832ZM236.832 12.2C236.832 14.2877 235.12 16 233.032 16V18C236.224 18 238.832 15.3923 238.832 12.2H236.832ZM233.032 16H225.832V18H233.032V16ZM225.832 16C223.72 16 222.032 14.3117 222.032 12.2H220.032C220.032 15.4163 222.616 18 225.832 18V16ZM222.032 12.2V5H220.032V12.2H222.032ZM222.032 5C222.032 2.91228 223.744 1.2 225.832 1.2V-0.800001C222.64 -0.800001 220.032 1.80771 220.032 5H222.032ZM225.832 1.2H233.032V-0.800001H225.832V1.2ZM233.032 1.2C235.033 1.2 236.832 2.94593 236.832 5H238.832C238.832 1.82207 236.118 -0.800001 233.032 -0.800001V1.2ZM244.798 2.6V1.6H243.798V2.6H244.798ZM244.798 9.8H243.798V10.8H244.798V9.8ZM259.198 17V18H260.198V17H259.198ZM257.494 17L256.787 17.7071L257.08 18H257.494V17ZM252.694 12.2L253.402 11.4929L253.109 11.2H252.694V12.2ZM244.798 12.2V11.2H243.798V12.2H244.798ZM244.798 17V18H245.798V17H244.798ZM242.398 17H241.398V18H242.398V17ZM242.398 0.199999V-0.800001H241.398V0.199999H242.398ZM255.862 11.96L255.543 11.0125L254.016 11.5276L255.155 12.6671L255.862 11.96ZM259.198 15.296H260.198V14.8818L259.906 14.5889L259.198 15.296ZM257.798 7.4V5H255.798V7.4H257.798ZM257.798 5C257.798 3.12772 256.271 1.6 254.398 1.6V3.6C255.166 3.6 255.798 4.23228 255.798 5H257.798ZM254.398 1.6H244.798V3.6H254.398V1.6ZM243.798 2.6V9.8H245.798V2.6H243.798ZM244.798 10.8H254.398V8.8H244.798V10.8ZM254.398 10.8C256.271 10.8 257.798 9.27228 257.798 7.4H255.798C255.798 8.16771 255.166 8.8 254.398 8.8V10.8ZM259.198 16H257.494V18H259.198V16ZM258.202 16.2929L253.402 11.4929L251.987 12.9071L256.787 17.7071L258.202 16.2929ZM252.694 11.2H244.798V13.2H252.694V11.2ZM243.798 12.2V17H245.798V12.2H243.798ZM244.798 16H242.398V18H244.798V16ZM243.398 17V0.199999H241.398V17H243.398ZM242.398 1.2H254.398V-0.800001H242.398V1.2ZM254.398 1.2C256.386 1.2 258.198 2.90756 258.198 5H260.198C260.198 1.76444 257.451 -0.800001 254.398 -0.800001V1.2ZM258.198 5V7.4H260.198V5H258.198ZM258.198 7.4C258.198 8.99771 257.141 10.4734 255.543 11.0125L256.182 12.9075C258.568 12.1026 260.198 9.88229 260.198 7.4H258.198ZM255.155 12.6671L258.491 16.0031L259.906 14.5889L256.57 11.2529L255.155 12.6671ZM258.198 15.296V17H260.198V15.296H258.198Z" fill="white" mask="url(#path-1-outside-1_379_675)"/>
</svg>
