<svg width="100" height="100" viewBox="0 0 100 100" fill="red" xmlns="http://www.w3.org/2000/svg">
<g clip-path="url(#clip0_347_879)">
<g clip-path="url(#clip1_347_879)">
<g clip-path="url(#clip2_347_879)">
<g clip-path="url(#clip3_347_879)">
<g clip-path="url(#clip4_347_879)">
<g clip-path="url(#clip5_347_879)">
<g clip-path="url(#clip6_347_879)">
<g clip-path="url(#clip7_347_879)">
<path d="M49.9998 79.2858C66.1739 79.2858 79.2855 66.1741 79.2855 50.0001C79.2855 33.826 66.1739 20.7144 49.9998 20.7144C33.8258 20.7144 20.7141 33.826 20.7141 50.0001C20.7141 66.1741 33.8258 79.2858 49.9998 79.2858Z" fill="white"/>
<g clip-path="url(#clip8_347_879)">
<path d="M70.3741 47.1792C70.343 47.0821 70.3228 46.9799 70.3173 46.8767C70.2376 45.7177 70.0162 44.7387 69.8439 44.1237C69.8297 44.0774 69.8049 43.9972 69.7848 43.9138C68.8952 40.4513 67.5633 38.5809 67.5501 38.5626C67.4016 38.3573 67.3195 38.1061 67.3186 37.8522C67.3076 37.7102 67.1192 36.1716 63.9038 36.1716H61.8226C60.3858 36.1716 59.3386 36.4847 58.795 37.0754C58.493 37.4026 58.0333 37.541 57.6067 37.4311C55.894 37.0012 53.7858 36.5942 49.9791 36.5296C46.2127 36.5942 44.1027 37.0012 42.3895 37.4311C41.9596 37.5406 41.5013 37.4026 41.2011 37.0745C40.6585 36.4842 39.6113 36.1716 38.1754 36.1716H36.091C32.8733 36.1716 32.6863 37.7079 32.6748 37.8829C32.6537 38.2551 32.4654 38.5933 32.1835 38.8115C31.8132 39.4586 30.9104 41.2029 30.2096 43.9216C29.8301 45.4377 29.722 46.3877 29.6702 46.8442C28.9653 51.4117 29.4341 59.6172 32.096 62.7231C32.7349 63.4683 33.4365 63.8286 34.2409 63.8286C35.9068 63.8286 36.0745 63.4078 36.8087 60.8702C36.9879 60.2524 37.1868 59.5631 37.4444 58.8092C38.8354 54.7161 41.0151 54.4383 45.7947 53.8306L46.4267 53.749C47.6655 53.6257 48.7174 53.5643 49.9772 53.5433C51.282 53.5657 52.3325 53.6262 53.5332 53.7454L54.2001 53.8306C58.9788 54.4383 61.1608 54.7165 62.5518 58.8092C62.8093 59.5636 63.0082 60.2547 63.1888 60.8748C63.923 63.4078 64.0903 63.8286 65.7567 63.8286C66.561 63.8286 67.2627 63.4683 67.9007 62.7231C70.5107 59.6795 71.0121 51.7169 70.3741 47.1792ZM38.8693 52.3155C35.6749 52.3155 33.0832 49.7242 33.0832 46.5293C33.0832 43.3349 35.6744 40.7432 38.8693 40.7432C42.0651 40.7432 44.654 43.3349 44.654 46.5293C44.654 49.7242 42.0651 52.3155 38.8693 52.3155ZM61.1287 40.7428C62.2768 40.7428 63.2113 41.6741 63.2113 42.8253C63.2113 43.9761 62.2768 44.9074 61.1287 44.9074C59.9798 44.9074 59.0444 43.9761 59.0444 42.8253C59.0444 41.6741 59.9798 40.7428 61.1287 40.7428ZM57.4252 48.6114C56.2712 48.6114 55.3403 47.6811 55.3403 46.5293C55.3403 45.379 56.2712 44.4482 57.4252 44.4482C58.5732 44.4482 59.5054 45.379 59.5054 46.5293C59.5054 47.6811 58.5732 48.6114 57.4252 48.6114ZM61.1287 52.3155C59.9798 52.3155 59.0444 51.3814 59.0444 50.2315C59.0444 49.0826 59.9798 48.149 61.1287 48.149C62.2768 48.149 63.2113 49.0826 63.2113 50.2315C63.2113 51.3814 62.2768 52.3155 61.1287 52.3155ZM64.8286 48.6114C63.681 48.6114 62.7475 47.6811 62.7475 46.5293C62.7475 45.379 63.681 44.4482 64.8286 44.4482C65.9827 44.4482 66.9144 45.379 66.9144 46.5293C66.9144 47.6811 65.9827 48.6114 64.8286 48.6114Z" fill="black"/>
<path d="M41.2837 45.2346H40.1627V44.114C40.1627 43.3991 39.583 42.8207 38.8694 42.8207C38.1567 42.8207 37.576 43.3991 37.576 44.114V45.2346H36.4536C35.7387 45.2346 35.1589 45.8152 35.1589 46.5293C35.1589 47.2452 35.7387 47.8226 36.4536 47.8226H37.576V48.9436C37.576 49.6586 38.1567 50.2379 38.8694 50.2379C39.5834 50.2379 40.1627 49.6586 40.1627 48.9436V47.8226H41.2837C41.9978 47.8226 42.5784 47.2447 42.5784 46.5293C42.5784 45.8152 41.9978 45.2346 41.2837 45.2346Z" fill="white"/>
</g>
</g>
<path d="M12.5746 38.1233L12.2903 39.0508L2.94995 36.184L3.48209 34.4493C3.66102 33.8668 3.90745 33.4801 4.22138 33.2893C4.53531 33.0986 4.96495 33.0783 5.51031 33.2286C6.03459 33.3676 6.50245 33.5004 6.91388 33.6265C7.32745 33.7533 7.74924 33.894 8.17888 34.0476C8.70924 34.2297 9.05066 34.489 9.20316 34.8254C9.35531 35.1618 9.34174 35.6222 9.16245 36.2072L8.91852 37.0011L12.5746 38.1233ZM4.06852 35.5126L8.08459 36.7454L8.32852 35.9515C8.41602 35.6668 8.42781 35.454 8.36388 35.3126C8.30245 35.1718 8.15674 35.0604 7.92638 34.9776C7.63102 34.8697 7.34495 34.7711 7.06852 34.6815C6.79138 34.594 6.50102 34.5047 6.19781 34.414C5.89388 34.3258 5.55959 34.234 5.19424 34.139C4.95352 34.0747 4.76817 34.0836 4.63888 34.1658C4.50852 34.2497 4.40102 34.4297 4.31602 34.7054L4.06852 35.5126Z" fill="white"/>
<path d="M15.3925 31.4315C15.105 32.0108 14.7765 32.379 14.4075 32.5358C14.0397 32.6908 13.5843 32.6372 13.0418 32.3758C12.5022 32.1183 11.9897 31.8715 11.5043 31.6358C11.02 31.3979 10.5465 31.164 10.0836 30.934C9.6211 30.7043 9.14967 30.469 8.66967 30.2279C8.19038 29.9847 7.68431 29.7254 7.15074 29.4504C6.62681 29.1825 6.31431 28.8543 6.21324 28.4665C6.11324 28.0765 6.20717 27.5922 6.49467 27.0129C6.78217 26.4336 7.11324 26.0654 7.48753 25.9086C7.8586 25.7525 8.31181 25.7947 8.84681 26.0343C9.04038 26.12 9.22538 26.2054 9.40181 26.2904C9.57574 26.3743 9.74717 26.4608 9.91574 26.5497C10.0847 26.6386 10.2632 26.7365 10.4518 26.8429L10.0218 27.7086C9.82788 27.6018 9.64395 27.5043 9.47038 27.4154C9.29645 27.3265 9.12181 27.2386 8.94681 27.1515C8.77181 27.0647 8.58646 26.9775 8.39038 26.8908C8.10824 26.7636 7.88324 26.7375 7.7161 26.8129C7.54788 26.8904 7.3886 27.08 7.2386 27.3822C7.09181 27.6779 7.03931 27.9143 7.08145 28.0911C7.1236 28.2679 7.2811 28.4293 7.55395 28.5754C8.11967 28.8693 8.6411 29.14 9.11824 29.3872C9.59431 29.6315 10.0575 29.8654 10.5075 30.0886C10.9575 30.3122 11.4236 30.5397 11.9061 30.7715C12.3893 31.0011 12.9222 31.254 13.5043 31.5304C13.7854 31.6597 14.0097 31.6865 14.1772 31.6111C14.3465 31.5368 14.5036 31.3536 14.6486 31.0622C14.8079 30.7415 14.8675 30.4879 14.8275 30.3018C14.7897 30.1168 14.6347 29.95 14.3629 29.8022C14.1982 29.71 14.0347 29.6236 13.8722 29.5429C13.7097 29.4622 13.5265 29.3736 13.3218 29.2775C13.1175 29.1815 12.8754 29.0675 12.5954 28.9361L13.0268 28.0672C13.384 28.2265 13.6975 28.3718 13.9675 28.5033C14.2354 28.6336 14.4993 28.7711 14.7597 28.9161C15.289 29.205 15.6018 29.5447 15.699 29.9358C15.7957 30.3268 15.6936 30.8254 15.3925 31.4315Z" fill="white"/>
<path d="M21.81 22.3447C21.3746 22.8229 20.9582 23.0868 20.5603 23.1372C20.1643 23.1854 19.7407 23.0093 19.2907 22.6086C18.8425 22.2129 18.4171 21.8354 18.015 21.4754C17.6143 21.114 17.2232 20.7593 16.841 20.4115C16.4593 20.064 16.0703 19.7083 15.6746 19.3447C15.2803 18.9793 14.8646 18.5915 14.4268 18.1808C13.9964 17.7793 13.7857 17.3783 13.795 16.9776C13.8057 16.5754 14.0289 16.1351 14.4643 15.6568C14.8996 15.1786 15.3185 14.9154 15.7214 14.8668C16.121 14.8186 16.5453 14.9829 16.9946 15.3604C17.1575 15.4961 17.3118 15.6286 17.4578 15.7586C17.6021 15.8868 17.7432 16.0168 17.881 16.149C18.0189 16.2808 18.1639 16.424 18.3164 16.5779L17.6657 17.2926C17.5085 17.1368 17.3585 16.9926 17.2153 16.8593C17.0725 16.7261 16.9285 16.5936 16.7843 16.4622C16.6396 16.3308 16.4853 16.1961 16.3207 16.059C16.0839 15.8593 15.875 15.7729 15.6935 15.7993C15.5103 15.8276 15.3053 15.9665 15.0782 16.2161C14.8557 16.4604 14.7407 16.6733 14.7328 16.8547C14.725 17.0361 14.8321 17.2347 15.0546 17.4497C15.5182 17.8876 15.9453 18.2904 16.3364 18.6593C16.7275 19.0247 17.1085 19.3765 17.4803 19.7147C17.8518 20.0529 18.2378 20.3997 18.6382 20.7547C19.04 21.1079 19.4832 21.4972 19.9675 21.9226C20.2025 22.124 20.4107 22.2115 20.5921 22.1847C20.7753 22.1597 20.9768 22.0268 21.196 21.7858C21.4371 21.5208 21.5639 21.2933 21.5764 21.1033C21.5907 20.9151 21.4871 20.7122 21.2664 20.4954C21.1332 20.3618 20.9996 20.2336 20.8657 20.1118C20.7314 19.9897 20.5793 19.8543 20.4093 19.7058C20.2393 19.5572 20.0375 19.3815 19.8043 19.1783L20.4571 18.4611C20.7571 18.7122 21.0189 18.9379 21.2425 19.1379C21.4643 19.3365 21.6803 19.5415 21.891 19.7522C22.321 20.1751 22.5289 20.5876 22.515 20.9904C22.501 21.3929 22.266 21.8443 21.81 22.3447Z" fill="white"/>
<path d="M26.1085 18.2042L25.3621 18.8296L19.0881 11.3396L19.8346 10.7146L26.1085 18.2042Z" fill="white"/>
<path d="M29.8341 15.7604C29.4577 15.9965 29.1063 16.0733 28.7791 15.99C28.4523 15.9068 28.1427 15.6329 27.8509 15.1679L24.7341 10.2029L25.5677 9.67968L28.7331 14.709C28.8716 14.9297 29.0166 15.0597 29.1677 15.0993C29.3209 15.1379 29.5009 15.0918 29.7077 14.9622C29.9106 14.8347 30.0627 14.6636 30.1645 14.449C30.2652 14.2375 30.2927 14.0143 30.2466 13.7793L27.0777 8.73147L27.9113 8.20825L31.8073 14.4147L30.9738 14.9379L30.6138 14.3643L30.4691 14.4554C30.4888 14.7536 30.4441 15.0108 30.3356 15.2272C30.2277 15.4404 30.0606 15.6183 29.8341 15.7604Z" fill="white"/>
<path d="M36.7795 12.2918C36.4788 12.4164 36.222 12.4536 36.0099 12.4032C35.7974 12.3529 35.5767 12.2364 35.3477 12.0546L35.2124 12.1107L35.4717 12.7361L34.5563 13.1157L30.8127 4.09107L31.7281 3.71143L32.9206 6.58643L33.1077 6.50893C33.1363 6.22 33.2095 5.98321 33.3267 5.79857C33.4442 5.61393 33.6531 5.45928 33.9538 5.33428C34.3535 5.16857 34.6992 5.15214 34.9913 5.28535C35.2863 5.42 35.5456 5.74178 35.7695 6.25071C35.8917 6.5275 36.0274 6.83643 36.1767 7.1775C36.3256 7.51857 36.4774 7.875 36.6317 8.24678C36.7867 8.62071 36.9345 8.98607 37.0752 9.34357C37.216 9.70071 37.3452 10.0311 37.4635 10.3346C37.6577 10.8457 37.6938 11.2579 37.572 11.5704C37.4499 11.8829 37.1856 12.1236 36.7795 12.2918ZM36.2142 11.7218C36.4442 11.6264 36.5856 11.5061 36.6388 11.3604C36.6938 11.2139 36.6749 11.0193 36.5813 10.7761C36.4431 10.4129 36.3099 10.0639 36.1813 9.72928C36.0495 9.39357 35.9145 9.05928 35.7763 8.72607C35.6381 8.39285 35.4931 8.04893 35.341 7.69428C35.1856 7.33821 35.0192 6.96143 34.8417 6.56393C34.7367 6.33535 34.6127 6.18535 34.4699 6.11393C34.3245 6.04321 34.136 6.05607 33.9042 6.15214C33.6635 6.25214 33.481 6.39178 33.3567 6.57178C33.2324 6.75178 33.1752 6.96928 33.1852 7.22464L34.9474 11.4729C35.1295 11.6693 35.3317 11.7832 35.5538 11.8143C35.7749 11.8436 35.9952 11.8125 36.2142 11.7218Z" fill="white"/>
<path d="M45.7203 9.94214L44.7324 10.0568L44.6467 0.230714L46.6292 0L48.7949 9.58429L47.8139 9.69821L47.2453 6.98571L45.6439 7.17214L45.7203 9.94214ZM45.5782 4.22179L45.6299 6.29571L47.0646 6.12857L46.6382 4.09143L46.0021 0.951071L45.4821 1.01179L45.5782 4.22179Z" fill="white"/>
<path d="M53.122 11.7104C52.5248 11.6811 52.062 11.5711 51.7338 11.3804C51.4052 11.1918 51.2331 10.9239 51.2177 10.5761C51.2159 10.52 51.2148 10.4675 51.2148 10.4189C51.2148 10.37 51.2159 10.3236 51.2181 10.2793C51.2381 10.0589 51.3341 9.88428 51.5059 9.75535C51.6798 9.62892 51.8698 9.55428 52.0759 9.53178L52.0841 9.36428C51.8502 9.28749 51.692 9.19356 51.6088 9.08249C51.5234 8.97106 51.4763 8.84178 51.467 8.69499C51.4684 8.66928 51.4677 8.63464 51.4652 8.58999C51.4652 8.54571 51.4673 8.50035 51.4716 8.45392C51.4959 8.29214 51.5734 8.15606 51.7048 8.04606C51.8338 7.93356 51.9931 7.86928 52.1823 7.85285L52.1909 7.67856C51.9431 7.55249 51.7681 7.37249 51.6652 7.13928C51.5623 6.90606 51.5088 6.59928 51.5041 6.21964C51.5016 6.07964 51.5034 5.89928 51.5095 5.67856C51.5181 5.45785 51.5281 5.22642 51.5398 4.98464C51.5516 4.74071 51.5641 4.51178 51.577 4.29821C51.5923 4.08249 51.6077 3.90499 51.6241 3.76606C51.6713 3.37464 51.7634 3.06356 51.9002 2.83285C52.037 2.60428 52.2373 2.44285 52.5002 2.34856C52.7609 2.25642 53.1002 2.22071 53.5188 2.24142C53.9534 2.26249 54.2966 2.33642 54.5491 2.46285C54.8038 2.58928 54.9852 2.78356 55.0934 3.04499L55.2538 3.05285C55.287 2.84964 55.3795 2.69678 55.5313 2.59463C55.6831 2.49249 55.8784 2.44749 56.1177 2.45928L56.0806 3.22249L55.9481 3.21606C55.7484 3.20642 55.5845 3.26714 55.457 3.39821C55.3316 3.53178 55.2616 3.74606 55.2473 4.04106L55.2327 4.34071C55.232 4.35714 55.2284 4.44999 55.2227 4.61999C55.217 4.78749 55.2081 4.98713 55.1966 5.21964C55.1852 5.45214 55.1731 5.67713 55.1602 5.89535C55.1473 6.11142 55.1331 6.28071 55.1181 6.40356C55.0806 6.79285 54.992 7.10178 54.8523 7.33035C54.7152 7.56106 54.5177 7.72035 54.2598 7.80785C53.9991 7.89749 53.6577 7.93214 53.2345 7.91142C52.9095 7.89071 52.6684 7.91392 52.5116 7.98071C52.3523 8.04499 52.2688 8.15856 52.2606 8.32142L52.2573 8.39106C52.2523 8.49106 52.2856 8.57428 52.357 8.64071C52.4259 8.70464 52.5366 8.75535 52.6884 8.79285C52.8402 8.83071 53.0381 8.85785 53.2816 8.87428C53.9473 8.92999 54.4359 9.05892 54.7477 9.26071C55.0591 9.46214 55.2231 9.77892 55.2391 10.2104C55.2434 10.2643 55.2441 10.3225 55.2413 10.385C55.2381 10.4478 55.2316 10.5078 55.222 10.5657C55.1809 10.8804 55.0666 11.1253 54.8784 11.3004C54.6906 11.475 54.4473 11.5914 54.1488 11.6489C53.8477 11.7086 53.5056 11.7293 53.122 11.7104ZM53.1531 11.0096C53.4134 11.0225 53.6302 11.0154 53.8038 10.9893C53.9773 10.9628 54.1141 10.9078 54.2134 10.8239C54.3152 10.7428 54.3813 10.6271 54.412 10.4775C54.4263 10.4246 54.4334 10.3761 54.4334 10.3318C54.4356 10.2875 54.4331 10.2411 54.4263 10.1914C54.412 10.0557 54.3648 9.94749 54.2848 9.86678C54.207 9.78856 54.0831 9.72892 53.9127 9.68785C53.7448 9.64714 53.5145 9.61714 53.222 9.59821C52.8831 9.57464 52.6134 9.58928 52.4127 9.64249C52.2145 9.69571 52.0966 9.84606 52.0588 10.0932C52.0484 10.165 52.0423 10.2171 52.0406 10.2496C52.0391 10.2821 52.0406 10.3218 52.0452 10.3686C52.0534 10.5321 52.102 10.6568 52.1913 10.7425C52.2823 10.8307 52.4088 10.8939 52.5698 10.9321C52.7331 10.9728 52.9277 10.9986 53.1531 11.0096ZM53.2777 7.16928C53.5866 7.18428 53.8045 7.13464 53.9313 7.01964C54.0556 6.90464 54.1348 6.71392 54.1691 6.44785C54.1848 6.31821 54.1998 6.12928 54.2141 5.88071C54.2309 5.63249 54.2463 5.36856 54.2598 5.08964C54.2734 4.80856 54.2841 4.54821 54.2909 4.30892C54.3006 4.06713 54.3034 3.88928 54.2998 3.77464C54.2963 3.51142 54.237 3.31856 54.122 3.19642C54.0045 3.07428 53.7938 3.00571 53.4891 2.99106C53.1848 2.97606 52.9634 3.02356 52.8252 3.13321C52.687 3.24285 52.6031 3.43892 52.5731 3.72178C52.5634 3.82392 52.5506 3.99321 52.5341 4.22999C52.5202 4.46928 52.5052 4.72821 52.4891 5.00678C52.4731 5.28785 52.4613 5.55142 52.4541 5.79821C52.4445 6.04464 52.4413 6.23071 52.4441 6.35642C52.452 6.62714 52.5145 6.82571 52.6316 6.95249C52.7488 7.08178 52.9641 7.15392 53.2777 7.16928Z" fill="white"/>
<path d="M59.3664 12.5618C58.7821 12.4346 58.3439 12.2504 58.0514 12.0082C57.7582 11.7682 57.6328 11.4757 57.6746 11.13C57.6817 11.0743 57.6896 11.0225 57.6974 10.9743C57.7057 10.9261 57.7142 10.8804 57.7239 10.8371C57.7799 10.6232 57.9032 10.4668 58.0939 10.3675C58.2864 10.2711 58.486 10.2289 58.6928 10.2407L58.7282 10.0771C58.5103 9.96322 58.3692 9.84429 58.3057 9.72108C58.2396 9.59715 58.2142 9.46215 58.2296 9.31536C58.2349 9.29036 58.2403 9.25572 58.2449 9.21143C58.2521 9.16786 58.2617 9.12358 58.2739 9.07858C58.3242 8.92286 58.4235 8.80143 58.571 8.71429C58.7167 8.62465 58.8842 8.58715 59.0739 8.6025L59.1107 8.43179C58.8871 8.26643 58.7439 8.06036 58.681 7.81358C58.6182 7.56643 58.6153 7.25536 58.6732 6.88C58.6939 6.74179 58.7253 6.56393 58.7678 6.34679C58.8124 6.13036 58.8607 5.90393 58.9117 5.6675C58.9635 5.42893 59.0135 5.205 59.061 4.99643C59.1114 4.78608 59.156 4.61358 59.1949 4.47929C59.3057 4.10108 59.4478 3.80929 59.621 3.60429C59.7935 3.40143 60.0174 3.275 60.2924 3.22536C60.5646 3.1775 60.9053 3.19786 61.3146 3.28679C61.7396 3.37929 62.0664 3.50858 62.2946 3.67465C62.5249 3.84143 62.6721 4.0625 62.7357 4.33822L62.8928 4.3725C62.9589 4.1775 63.0753 4.04215 63.2417 3.96608C63.4082 3.89036 63.6085 3.87786 63.8424 3.92893L63.6803 4.67572L63.5507 4.6475C63.3553 4.605 63.1839 4.63786 63.0364 4.74643C62.8907 4.8575 62.7867 5.0575 62.7239 5.34643L62.6599 5.63965C62.6564 5.65572 62.6378 5.74679 62.6042 5.91322C62.571 6.0775 62.5296 6.27322 62.4803 6.50036C62.431 6.7275 62.3817 6.94786 62.3328 7.16108C62.2846 7.37215 62.2428 7.53679 62.2078 7.65536C62.1067 8.03322 61.9685 8.32358 61.7935 8.52572C61.6203 8.73108 61.3992 8.85536 61.1303 8.89929C60.8585 8.945 60.5157 8.92286 60.1021 8.83286C59.7849 8.75929 59.5432 8.7425 59.3774 8.7825C59.2099 8.82 59.1089 8.91822 59.0739 9.0775L59.0592 9.14572C59.0382 9.24358 59.0571 9.33107 59.1164 9.40786C59.1739 9.48215 59.2746 9.55072 59.4182 9.61286C59.5617 9.675 59.7524 9.73429 59.9903 9.79072C60.6378 9.95536 61.0985 10.1625 61.3728 10.4125C61.6471 10.6625 61.7564 11.0018 61.7014 11.4304C61.6967 11.4843 61.6878 11.5418 61.6746 11.6029C61.6614 11.6643 61.6449 11.7225 61.626 11.7782C61.5339 12.0818 61.3807 12.3046 61.1664 12.4461C60.9524 12.5875 60.6932 12.6621 60.3892 12.67C60.0824 12.6796 59.7414 12.6436 59.3664 12.5618ZM59.5121 11.8757C59.7667 11.9311 59.9817 11.96 60.1574 11.9625C60.3332 11.965 60.4767 11.9332 60.5889 11.8668C60.7028 11.8036 60.7871 11.7004 60.8417 11.5575C60.8646 11.5079 60.8792 11.4611 60.8864 11.4175C60.8957 11.3743 60.901 11.3279 60.9024 11.2782C60.9107 11.1418 60.8821 11.0275 60.8164 10.9343C60.7528 10.8443 60.6399 10.765 60.4789 10.6968C60.3199 10.6289 60.0974 10.5614 59.8121 10.4946C59.4817 10.4157 59.2132 10.3861 59.0067 10.4054C58.8024 10.4254 58.6614 10.5539 58.5835 10.7918C58.5614 10.8607 58.5467 10.9111 58.5399 10.9432C58.5332 10.975 58.5282 11.0143 58.5249 11.0614C58.5064 11.2239 58.5339 11.355 58.6074 11.4543C58.6828 11.5564 58.7971 11.6396 58.9496 11.7036C59.1042 11.7704 59.2917 11.8279 59.5121 11.8757ZM60.2667 8.10822C60.5692 8.17393 60.7921 8.16036 60.936 8.06786C61.0778 7.975 61.1871 7.8 61.2642 7.54286C61.301 7.4175 61.3471 7.23358 61.4021 6.99108C61.4596 6.74893 61.5178 6.49143 61.5774 6.21822C61.6371 5.94322 61.6903 5.68822 61.7364 5.45322C61.7857 5.21643 61.8174 5.04108 61.8328 4.92786C61.8728 4.6675 61.846 4.46786 61.7524 4.32822C61.6567 4.18822 61.4599 4.08608 61.1621 4.02143C60.8642 3.95679 60.6382 3.96715 60.4839 4.0525C60.3296 4.13786 60.2142 4.31786 60.1382 4.59143C60.1117 4.69036 60.0714 4.85536 60.0164 5.08643C59.9632 5.32 59.906 5.57322 59.8442 5.84536C59.7821 6.12 59.7271 6.37822 59.6796 6.62C59.6296 6.86143 59.5957 7.04465 59.5782 7.16929C59.5414 7.4375 59.5703 7.64358 59.6649 7.78822C59.7592 7.935 59.9599 8.04143 60.2667 8.10822Z" fill="white"/>
<path d="M65.5434 12.2389L64.6091 11.8878L67.1863 5.0282L68.1206 5.37927L67.8652 6.05891L68.0581 6.13106C68.2252 5.8982 68.4113 5.75927 68.617 5.71498C68.8227 5.67034 69.0648 5.7007 69.3434 5.80534C69.4152 5.83248 69.4845 5.8632 69.5509 5.8982C69.6202 5.93177 69.6909 5.96213 69.7627 5.98891L69.4938 6.70427L69.0759 6.54713C68.7298 6.41713 68.4366 6.37034 68.1966 6.40677C67.9577 6.44106 67.7488 6.58641 67.5706 6.84284L65.5434 12.2389Z" fill="white"/>
<path d="M70.7634 14.8064C70.1991 14.5003 69.8541 14.1703 69.7284 13.8164C69.6038 13.4603 69.663 13.0293 69.9059 12.5232C70.0373 12.261 70.1873 11.9678 70.3552 11.6435C70.5252 11.3203 70.7027 10.9878 70.888 10.6464C71.0734 10.305 71.2573 9.97068 71.4398 9.64354C71.6205 9.31533 71.7923 9.01568 71.9552 8.74426C72.2559 8.24854 72.5913 7.95926 72.9616 7.87676C73.3327 7.79747 73.7902 7.90533 74.3341 8.20033C74.8802 8.4964 75.2138 8.82033 75.3355 9.17211C75.4538 9.52461 75.3948 9.9439 75.1577 10.4293C75.1163 10.5153 75.0341 10.6743 74.9109 10.9068C74.7888 11.1368 74.6473 11.3975 74.4866 11.6889C74.3259 11.9803 74.1691 12.255 74.0155 12.5132L71.6813 11.2475C71.5205 11.5439 71.3602 11.8446 71.2002 12.1493C71.0423 12.4553 70.8809 12.7646 70.7163 13.0778C70.5905 13.3246 70.5613 13.5271 70.6291 13.6853C70.6977 13.8418 70.8591 13.9885 71.1123 14.1264C71.3659 14.2639 71.572 14.316 71.7302 14.2828C71.8916 14.2485 72.0434 14.1128 72.1855 13.8746C72.2513 13.7728 72.3338 13.6282 72.4327 13.441C72.5316 13.2539 72.6302 13.0571 72.7288 12.8514L73.5816 13.3139C73.5223 13.4378 73.4427 13.5971 73.3423 13.7914C73.2423 13.9857 73.157 14.1382 73.0866 14.2482C72.7905 14.736 72.4659 15.0243 72.113 15.1135C71.7613 15.206 71.3113 15.1035 70.7634 14.8064ZM72.0355 10.5939L73.5388 11.4089C73.6495 11.2096 73.762 11.0071 73.8759 10.8021C73.9898 10.5968 74.0888 10.4121 74.1723 10.2482C74.2591 10.0835 74.3155 9.96711 74.3416 9.89926C74.4591 9.64818 74.487 9.44354 74.4245 9.28533C74.3609 9.12926 74.2116 8.98747 73.9766 8.85997C73.7045 8.71247 73.4838 8.6614 73.3134 8.70676C73.1441 8.75533 72.9973 8.88711 72.8723 9.10247C72.7363 9.34354 72.597 9.58818 72.4545 9.83676C72.3141 10.086 72.1745 10.3385 72.0359 10.5939H72.0355Z" fill="white"/>
<path d="M74.7952 19.8978C74.3248 19.5289 74.0109 19.1717 73.8531 18.826C73.6938 18.4825 73.7084 18.1642 73.897 17.8714C73.9277 17.8246 73.9573 17.7814 73.9856 17.7414C74.0138 17.7014 74.0416 17.6642 74.0691 17.6292C74.2127 17.461 74.392 17.3739 74.6066 17.3682C74.8216 17.3653 75.0198 17.4142 75.2009 17.515L75.3045 17.3832C75.1581 17.1853 75.0831 17.0171 75.0795 16.8785C75.0741 16.7382 75.1102 16.6057 75.1877 16.4803C75.2034 16.4603 75.2231 16.4314 75.247 16.3935C75.2723 16.3575 75.3006 16.3217 75.3309 16.2864C75.4441 16.1682 75.5863 16.1025 75.7566 16.0885C75.927 16.0714 76.0941 16.1107 76.2581 16.2067L76.3659 16.0696C76.2366 15.8235 76.1977 15.5753 76.2488 15.3257C76.2998 15.076 76.4331 14.7946 76.6488 14.4821C76.7277 14.3664 76.8334 14.2203 76.9663 14.0435C77.1009 13.8682 77.2427 13.6853 77.392 13.495C77.5427 13.3028 77.6852 13.1232 77.8191 12.9564C77.9563 12.7889 78.0716 12.6532 78.1648 12.5492C78.4295 12.2571 78.6845 12.0564 78.9298 11.9475C79.1738 11.84 79.4302 11.8239 79.6995 11.8992C79.9656 11.975 80.2631 12.1417 80.5927 12.4C80.9348 12.6685 81.1723 12.9271 81.3052 13.1764C81.4398 13.4267 81.4759 13.69 81.4131 13.966L81.5391 14.0653C81.6838 13.9185 81.8473 13.8475 82.0306 13.8517C82.2134 13.856 82.3991 13.9325 82.5873 14.0803L82.1159 14.6814L82.0113 14.5996C81.8538 14.476 81.6852 14.431 81.5056 14.4646C81.3259 14.501 81.1452 14.6357 80.9627 14.8682L80.7773 15.1042C80.7673 15.1171 80.7109 15.191 80.6081 15.326C80.5066 15.4592 80.3841 15.6175 80.2402 15.8003C80.0966 15.9832 79.9563 16.1603 79.8198 16.3307C79.6845 16.4996 79.5752 16.6296 79.4916 16.7207C79.2359 17.0167 78.9848 17.2175 78.7391 17.3235C78.4938 17.4328 78.2406 17.4485 77.9795 17.3707C77.7148 17.2932 77.4163 17.1239 77.0831 16.8628C76.8298 16.6582 76.6195 16.5378 76.4527 16.5014C76.2856 16.4621 76.1516 16.5064 76.0513 16.6342L76.0084 16.6892C75.9466 16.7678 75.9256 16.855 75.9456 16.9503C75.9648 17.0425 76.0259 17.1478 76.1277 17.2664C76.2298 17.385 76.3756 17.5214 76.5648 17.676C77.0759 18.1064 77.4002 18.4939 77.5381 18.8382C77.6759 19.1828 77.6266 19.5357 77.3898 19.8975C77.3623 19.9439 77.3291 19.9917 77.2906 20.041C77.2516 20.0903 77.2116 20.136 77.1702 20.1775C76.9548 20.4107 76.7198 20.5442 76.4656 20.5782C76.2113 20.6121 75.9456 20.5664 75.6688 20.441C75.3884 20.3157 75.0973 20.1346 74.7952 19.8978ZM75.2256 19.3439C75.4306 19.5046 75.6116 19.6246 75.7684 19.7032C75.9256 19.7821 76.0688 19.816 76.1984 19.8053C76.3284 19.7978 76.4491 19.7417 76.5609 19.6371C76.6031 19.6021 76.637 19.5667 76.6623 19.5307C76.6895 19.496 76.7148 19.4564 76.7373 19.4121C76.8041 19.2932 76.8284 19.1775 76.8098 19.0653C76.7916 18.9564 76.7248 18.836 76.6095 18.7042C76.4959 18.5739 76.3252 18.4164 76.0977 18.2317C75.8348 18.0167 75.6063 17.8728 75.412 17.8003C75.2195 17.7292 75.0363 17.7835 74.8623 17.9635C74.8123 18.016 74.7773 18.055 74.7573 18.0807C74.7373 18.1064 74.7156 18.1396 74.6923 18.1803C74.6045 18.3185 74.5723 18.4482 74.5952 18.57C74.6184 18.6946 74.6848 18.8192 74.7945 18.9435C74.9045 19.071 75.0481 19.2046 75.2256 19.3439ZM77.5473 16.2821C77.7909 16.4732 77.9973 16.5582 78.1673 16.5378C78.3352 16.516 78.5102 16.406 78.6916 16.2085C78.7795 16.1117 78.9009 15.966 79.0563 15.7717C79.2134 15.5789 79.3784 15.3725 79.5506 15.1528C79.7241 14.9314 79.8834 14.725 80.0277 14.5335C80.1752 14.3417 80.2806 14.1982 80.3434 14.1028C80.4927 13.886 80.5559 13.6942 80.5323 13.5282C80.507 13.3607 80.3745 13.1828 80.1348 12.9946C79.8952 12.8064 79.687 12.7175 79.5113 12.7271C79.3352 12.7367 79.1531 12.8482 78.9648 13.0614C78.8981 13.1389 78.7895 13.27 78.6395 13.4535C78.4898 13.6407 78.3277 13.8432 78.1538 14.0617C77.9781 14.2817 77.8163 14.4903 77.6677 14.6871C77.5173 14.8825 77.407 15.0325 77.337 15.1371C77.187 15.3625 77.1231 15.5607 77.1452 15.7317C77.1663 15.905 77.3002 16.0882 77.5473 16.2821Z" fill="white"/>
<path d="M80.5335 22.4857C80.2257 22.1557 80.0742 21.8182 80.0792 21.4728C80.0828 21.1289 80.2485 20.7782 80.5771 20.4207C80.6503 20.3492 80.7217 20.2774 80.7917 20.2057C80.8617 20.1339 80.9356 20.0649 81.0135 19.9985C81.2389 19.8103 81.4667 19.6707 81.6971 19.5799C81.9306 19.4892 82.186 19.4528 82.4635 19.4703C82.7442 19.4882 83.0692 19.5699 83.4378 19.716C83.636 19.7921 83.8446 19.8771 84.0635 19.9721C84.2824 20.0699 84.4896 20.1728 84.6849 20.2796L85.746 19.2889C85.9432 19.1046 86.0464 18.9321 86.0549 18.771C86.0653 18.6085 85.9714 18.421 85.7728 18.2085C85.606 18.0299 85.4353 17.9221 85.2606 17.8846C85.0874 17.8457 84.9017 17.911 84.7035 18.0807C84.6085 18.1596 84.5035 18.2517 84.3878 18.356C84.2706 18.4624 84.1624 18.5646 84.0639 18.6635C83.9635 18.7607 83.886 18.8378 83.831 18.8949L83.181 18.1989C83.3071 18.0749 83.4356 17.9499 83.5667 17.8242C83.6978 17.6953 83.8278 17.5739 83.9567 17.4599C84.2296 17.2274 84.4917 17.0767 84.7424 17.0078C84.9967 16.9392 85.2535 16.9617 85.5128 17.076C85.7739 17.1921 86.0535 17.4096 86.3521 17.7296C86.6489 18.0474 86.8382 18.3353 86.9199 18.5932C87.0035 18.8496 86.9864 19.1007 86.8696 19.3471C86.7542 19.5917 86.5503 19.8507 86.2581 20.1235L82.076 24.0196L81.4139 23.3107L81.9085 22.8485L81.8156 22.7492C81.5724 22.8332 81.3517 22.8674 81.1532 22.8524C80.956 22.8392 80.7496 22.7167 80.5335 22.4857ZM81.2428 22.1717C81.4017 22.3417 81.5781 22.4442 81.7731 22.4785C81.9696 22.5149 82.1778 22.4874 82.3981 22.3964L84.0806 20.8439C83.9339 20.7582 83.7735 20.6785 83.5999 20.6053C83.4278 20.5335 83.2221 20.4649 82.9824 20.3992C82.691 20.3085 82.4478 20.2971 82.2528 20.3642C82.0564 20.4332 81.8653 20.5492 81.6803 20.7128C81.5957 20.7857 81.5231 20.8514 81.4639 20.9103C81.4024 20.9707 81.3421 21.0321 81.2824 21.0942C81.1235 21.2682 81.0389 21.4503 81.0289 21.641C81.0192 21.8317 81.0903 22.0085 81.2432 22.1717H81.2428Z" fill="white"/>
<path d="M84.8913 28.0682C84.5216 27.5264 84.3631 27.0768 84.4152 26.7203C84.4677 26.3635 84.7359 26.02 85.2202 25.6896L89.3895 22.8418L89.0652 22.366L89.6906 21.9393L90.0309 22.4382L91.7459 21.2682L92.2966 22.0753L90.5813 23.2453L91.297 24.2946L90.6716 24.7214L89.9402 23.6489L85.6784 26.5596C85.4363 26.7246 85.3038 26.8814 85.2809 27.0296C85.2548 27.1771 85.3348 27.3871 85.5209 27.66C85.5891 27.76 85.6509 27.8443 85.7066 27.9135C85.7602 27.9839 85.8255 28.0632 85.9027 28.1514L85.3002 28.5625C85.2316 28.491 85.1638 28.416 85.0963 28.3382C85.0277 28.2582 84.9591 28.1682 84.8913 28.0682Z" fill="white"/>
<path d="M87.2911 32.4014C87.0947 32.0079 86.9893 31.6668 86.9751 31.3775C86.9608 31.0882 87.0383 30.8325 87.2083 30.61C87.379 30.3843 87.6429 30.1736 88.0001 29.9768C88.2154 29.8564 88.4736 29.7171 88.7743 29.5593C89.0783 29.4025 89.3979 29.2404 89.7329 29.0732C90.0679 28.9061 90.4011 28.7425 90.7322 28.5825C91.0643 28.4246 91.3683 28.2836 91.6436 28.1589C92.0276 27.9907 92.3597 27.9057 92.6397 27.9036C92.9186 27.905 93.1676 27.9975 93.3868 28.1821C93.6061 28.3664 93.814 28.6554 94.0104 29.0486C94.2097 29.4482 94.3158 29.7907 94.3279 30.0757C94.3422 30.3596 94.2629 30.6125 94.0901 30.8339C93.9183 31.0521 93.6529 31.2628 93.2936 31.4653C93.0511 31.5993 92.7783 31.7457 92.4754 31.9046C92.1726 32.0636 91.8576 32.2246 91.5311 32.3878C91.2065 32.55 90.8822 32.7079 90.5583 32.8614C90.2347 33.015 89.9318 33.1557 89.6497 33.2836C89.2761 33.4464 88.949 33.5307 88.6679 33.5354C88.3879 33.5371 88.1379 33.4475 87.9176 33.2664C87.6972 33.0854 87.4883 32.7968 87.2911 32.4014ZM87.9686 32.0632C88.1118 32.3504 88.2658 32.5232 88.4301 32.5818C88.5965 32.6393 88.7983 32.6139 89.0358 32.5057C89.3718 32.3511 89.7065 32.1957 90.0393 32.04C90.3733 31.8811 90.7076 31.7196 91.0418 31.5557C91.3758 31.3918 91.7104 31.2207 92.0454 31.0429C92.3815 30.8671 92.7168 30.6871 93.0508 30.5025C93.2901 30.3725 93.4318 30.2239 93.4758 30.0564C93.5197 29.8889 93.4718 29.6657 93.3329 29.3868C93.1926 29.1057 93.0393 28.9314 92.8729 28.8636C92.7043 28.7968 92.4968 28.8211 92.2501 28.9364C91.9533 29.0714 91.6408 29.2157 91.3118 29.3696C90.984 29.5254 90.6493 29.6886 90.3079 29.8586C89.9643 30.03 89.6201 30.2043 89.2747 30.3821C88.9301 30.5618 88.594 30.7425 88.2661 30.9243C88.0236 31.0582 87.8779 31.2118 87.8286 31.3843C87.7818 31.5561 87.8283 31.7821 87.9686 32.0632Z" fill="white"/>
<path d="M89.5318 37.7735L89.2253 36.8239L96.1996 34.5753L96.5061 35.5253L95.8153 35.7478L95.8782 35.9439C96.1646 35.93 96.3889 35.9892 96.5521 36.1225C96.715 36.2557 96.8418 36.4642 96.9332 36.7475C96.9568 36.8207 96.9757 36.8939 96.9893 36.9678C97.0061 37.0432 97.0264 37.1171 97.05 37.1903L96.3228 37.4246L96.1857 36.9996C96.0721 36.6475 95.9264 36.3889 95.7486 36.2239C95.5728 36.0582 95.3293 35.985 95.0182 36.005L89.5318 37.7735Z" fill="white"/>
<path d="M6.00391 50.1154C6.00391 49.4926 6.50891 48.9872 7.13212 48.9875C7.75498 48.9875 8.26033 49.4926 8.26033 50.1154C8.26033 50.7383 7.75533 51.2436 7.13212 51.2436C6.50926 51.2436 6.00391 50.7386 6.00391 50.1154Z" fill="white"/>
<path d="M93.939 50.1154C93.939 49.4926 94.444 48.9872 95.0668 48.9875C95.6897 48.9875 96.195 49.4926 96.195 50.1154C96.195 50.7383 95.69 51.2436 95.0668 51.2436C94.444 51.2436 93.9386 50.7386 93.939 50.1154Z" fill="white"/>
<path d="M5.54811 64.28L5.26025 63.3428L14.6695 60.4514L15.2067 62.1993C15.387 62.7864 15.3999 63.2482 15.2456 63.5853C15.0913 63.9225 14.7442 64.1836 14.2049 64.3689C13.6899 64.5464 13.2245 64.6993 12.8088 64.8271C12.3931 64.955 11.9635 65.0771 11.5199 65.1939C10.9713 65.3407 10.5392 65.3164 10.2235 65.1214C9.90561 64.9271 9.65633 64.535 9.47561 63.9457L9.23061 63.1486L5.54811 64.28ZM14.117 61.6471L10.071 62.8903L10.316 63.6875C10.4042 63.9743 10.5142 64.1582 10.6463 64.2393C10.7792 64.3225 10.9649 64.3336 11.2038 64.2725C11.511 64.195 11.8053 64.1157 12.087 64.0339C12.3685 63.9521 12.6599 63.8628 12.961 63.7653C13.2642 63.6671 13.596 63.5546 13.9556 63.4271C14.191 63.345 14.3399 63.2325 14.4031 63.0889C14.4638 62.9461 14.4517 62.7357 14.366 62.4575L14.117 61.6471Z" fill="white"/>
<path d="M8.65341 72.1728C8.36234 71.5875 8.26591 71.1003 8.36341 70.7114C8.46198 70.3193 8.78163 69.9853 9.3227 69.7086C9.85806 69.4321 10.3691 69.1718 10.8552 68.9275C11.3406 68.6811 11.8166 68.4418 12.2834 68.2096C12.7481 67.9786 13.2238 67.7446 13.7113 67.5078C14.1977 67.2686 14.7127 67.0193 15.2563 66.7593C15.7927 66.5003 16.247 66.45 16.6191 66.6082C16.9923 66.7632 17.3241 67.1332 17.6152 67.7182C17.9052 68.3014 17.9998 68.7896 17.8988 69.1828C17.7959 69.5768 17.4856 69.9168 16.9681 70.2028C16.7795 70.3043 16.5995 70.3993 16.4273 70.4871C16.2534 70.5761 16.0788 70.6618 15.9038 70.7432C15.7298 70.8271 15.5431 70.9107 15.3431 70.9946L14.9113 70.1261C15.1123 70.0339 15.302 69.945 15.4798 69.8589C15.6559 69.7739 15.8323 69.6875 16.0095 69.5996C16.1845 69.5125 16.3684 69.4175 16.5613 69.3139C16.8341 69.1628 16.9913 68.9975 17.032 68.8186C17.072 68.6375 17.0163 68.395 16.8652 68.0911C16.717 67.7932 16.5595 67.6064 16.392 67.5314C16.2248 67.4561 15.9998 67.4846 15.7177 67.6171C15.1345 67.8914 14.5995 68.1457 14.1134 68.3796C13.6259 68.6114 13.1563 68.8396 12.7041 69.0643C12.2498 69.29 11.7834 69.5271 11.3041 69.7757C10.8238 70.0221 10.2973 70.2957 9.72449 70.5961C9.44841 70.7411 9.28841 70.905 9.24449 71.0878C9.20127 71.2678 9.25341 71.5057 9.4002 71.8014C9.56056 72.1243 9.72734 72.3261 9.89984 72.4064C10.0745 72.4861 10.3045 72.4625 10.5898 72.3364C10.7616 72.2589 10.9288 72.1796 11.0913 72.0989C11.2559 72.0171 11.4381 71.9239 11.6381 71.8193C11.8413 71.7157 12.0802 71.5903 12.3552 71.4432L12.7902 72.3182C12.4463 72.51 12.1391 72.6728 11.8681 72.8075C11.6002 72.9432 11.3295 73.0725 11.0559 73.1957C10.5009 73.4432 10.0366 73.4868 9.66341 73.3268C9.29234 73.1657 8.95556 72.7811 8.65341 72.1728Z" fill="white"/>
<path d="M16.2458 82.9689C15.8058 82.4857 15.5794 82.0435 15.5669 81.6428C15.5544 81.2389 15.7705 80.8299 16.2148 80.4157C16.6541 80.0032 17.0741 79.6128 17.4748 79.2446C17.8741 78.8746 18.2666 78.5142 18.6519 78.1635C19.0355 77.8142 19.4291 77.4589 19.833 77.0971C20.2355 76.7339 20.6623 76.3528 21.1141 75.9542C21.5591 75.5585 21.9823 75.3857 22.3833 75.4357C22.7848 75.4824 23.2051 75.7474 23.6455 76.2307C24.0841 76.7121 24.3087 77.156 24.3191 77.5614C24.328 77.9685 24.1226 78.3807 23.7033 78.7974C23.5498 78.9467 23.4023 79.0871 23.2612 79.2189C23.1183 79.3521 22.9741 79.4821 22.828 79.6085C22.6837 79.7367 22.5269 79.8685 22.3573 80.0042L21.7041 79.2867C21.8723 79.1432 22.0301 79.0057 22.178 78.8742C22.3241 78.7442 22.4701 78.6128 22.6162 78.4799C22.7608 78.3485 22.9116 78.2064 23.0687 78.0539C23.2898 77.8335 23.3955 77.6321 23.3858 77.4485C23.3748 77.2635 23.2548 77.0457 23.0262 76.7946C22.8023 76.5485 22.5994 76.4124 22.418 76.3857C22.2366 76.3592 22.028 76.4482 21.793 76.6528C21.3073 77.0764 20.8623 77.4671 20.4583 77.8257C20.053 78.1821 19.6637 78.5303 19.2908 78.8699C18.9158 79.2114 18.5319 79.5671 18.1391 79.9378C17.7448 80.3064 17.3133 80.7135 16.8444 81.1592C16.6187 81.3742 16.5094 81.5757 16.5173 81.7639C16.5251 81.9485 16.6401 82.1632 16.8626 82.4074C17.1055 82.6739 17.3208 82.8224 17.5087 82.8524C17.6983 82.881 17.913 82.7957 18.153 82.596C18.2969 82.4742 18.4362 82.3524 18.5705 82.2303C18.7062 82.1067 18.8562 81.9671 19.0198 81.8117C19.1869 81.6564 19.3823 81.4707 19.6066 81.2535L20.2644 81.976C19.9862 82.2546 19.7355 82.4957 19.5116 82.6992C19.2912 82.9032 19.0662 83.1017 18.8366 83.2949C18.3705 83.6849 17.9358 83.8539 17.5333 83.8021C17.1323 83.7489 16.7033 83.471 16.2462 82.9689H16.2458Z" fill="white"/>
<path d="M21.3898 87.6689L20.6409 87.0414L26.9623 79.4957L27.7112 80.1232L21.3898 87.6689Z" fill="white"/>
<path d="M25.821 90.8492C25.4428 90.6117 25.2192 90.3271 25.1503 89.9953C25.0846 89.6628 25.1989 89.2621 25.4932 88.7931L28.635 83.7903L29.4714 84.3156L26.2925 89.3899C26.1528 89.6124 26.0989 89.801 26.1307 89.956C26.1628 90.1106 26.2821 90.2531 26.4889 90.3828C26.6939 90.5114 26.9153 90.5764 27.1535 90.5778C27.391 90.576 27.606 90.5021 27.7992 90.3567L30.9932 85.2714L31.8325 85.7985L27.9053 92.051L27.066 91.5242L27.43 90.9449L27.285 90.8539C27.0207 91.0039 26.7671 91.0767 26.5253 91.0731C26.2842 91.0674 26.0496 90.9928 25.821 90.8492Z" fill="white"/>
<path d="M33.8991 94.9032C33.5963 94.7775 33.3866 94.6214 33.2702 94.4343C33.1548 94.2453 33.0809 94.0043 33.0484 93.7118L32.9098 93.6539L32.6481 94.2857L31.7295 93.9046L35.5016 84.8125L36.4202 85.1939L35.2181 88.0911L35.4084 88.17C35.6341 87.9839 35.8552 87.8668 36.0716 87.8182C36.2873 87.7718 36.5466 87.8114 36.8498 87.9371C37.2516 88.1039 37.5091 88.3393 37.6223 88.6429C37.7356 88.9468 37.6895 89.3607 37.4845 89.8854C37.3773 90.1682 37.2534 90.4846 37.1134 90.8346C36.9763 91.1832 36.8298 91.5457 36.6738 91.9214C36.5188 92.2954 36.3634 92.6604 36.2081 93.0164C36.0559 93.3714 35.9123 93.6986 35.7784 93.9979C35.552 94.5007 35.2848 94.8207 34.9759 94.9571C34.6663 95.0907 34.3073 95.0725 33.8991 94.9032ZM33.9031 94.0925C34.1331 94.1879 34.3191 94.2036 34.4616 94.1393C34.6041 94.075 34.7291 93.9229 34.8363 93.6825C34.9988 93.3268 35.1531 92.9829 35.2984 92.6504C35.4459 92.3186 35.5895 91.9854 35.7284 91.6504C35.8673 91.315 36.0084 90.9668 36.1509 90.605C36.2941 90.2414 36.4448 89.8543 36.6023 89.4439C36.6931 89.2071 36.7123 89.0121 36.6598 88.8593C36.6073 88.7064 36.4641 88.5814 36.2298 88.4846C35.987 88.3839 35.757 88.3525 35.5395 88.3907C35.3241 88.43 35.1284 88.5439 34.952 88.7325L33.1763 93.0129C33.1673 93.2836 33.2309 93.5089 33.3677 93.6893C33.5034 93.8664 33.6816 94.0011 33.9031 94.0925Z" fill="white"/>
<path d="M44.852 97.5917L43.8538 97.4753L46.0473 87.8207L48.0438 88.0535L47.9505 97.9532L46.9591 97.8375L47.0316 95.046L45.4166 94.8578L44.852 97.5917ZM46.0366 91.951L45.6052 93.9942L47.0538 94.1632L47.1048 92.0685L47.2109 88.8418L46.6838 88.7803L46.0366 91.951Z" fill="white"/>
<path d="M53.673 99.9932C53.0713 100.023 52.5966 99.9582 52.2488 99.8004C51.9009 99.6425 51.7013 99.3904 51.6495 99.0436C51.6445 98.9879 51.6395 98.9357 51.6348 98.8872C51.6302 98.8361 51.6266 98.7886 51.6245 98.7443C51.6205 98.5232 51.7002 98.34 51.8634 98.1947C52.0241 98.0493 52.2059 97.9557 52.4084 97.9132L52.4002 97.7457C52.1602 97.6921 51.992 97.6132 51.8963 97.5086C51.8002 97.4039 51.7405 97.2786 51.7173 97.1329C51.7163 97.1071 51.7134 97.0725 51.7088 97.0286C51.702 96.9847 51.6998 96.9393 51.702 96.8925C51.7102 96.7289 51.773 96.5839 51.8905 96.4571C52.0102 96.3325 52.1638 96.2539 52.3505 96.2218L52.342 96.0439C52.083 95.94 51.8913 95.7771 51.7663 95.555C51.6388 95.3307 51.5545 95.0286 51.5123 94.6486C51.4963 94.5097 51.4805 94.3286 51.4648 94.1057C51.4516 93.8829 51.4391 93.6493 51.4273 93.4054C51.4155 93.1614 51.4052 92.93 51.397 92.7118C51.3913 92.4954 51.3895 92.3175 51.392 92.1775C51.4005 91.7789 51.463 91.4579 51.5791 91.2147C51.693 90.9693 51.8763 90.7879 52.1291 90.6707C52.382 90.5514 52.7195 90.4814 53.1427 90.4607C53.582 90.4393 53.9341 90.4793 54.1998 90.5804C54.4659 90.6839 54.6666 90.8614 54.8023 91.1136L54.9591 91.1057C54.9745 90.8975 55.053 90.7354 55.1941 90.6193C55.3373 90.5004 55.5298 90.4354 55.7713 90.4236L55.8088 91.1936L55.673 91.2004C55.4734 91.21 55.3163 91.2875 55.2023 91.4329C55.0884 91.5782 55.0384 91.7997 55.0527 92.0968L55.0677 92.4C55.0684 92.4164 55.0741 92.5093 55.0848 92.6789C55.093 92.8486 55.103 93.0507 55.1141 93.2854C55.1255 93.5179 55.1363 93.7432 55.147 93.9614C55.1555 94.1822 55.158 94.3547 55.1548 94.4779C55.153 94.8714 55.0952 95.19 54.9813 95.4332C54.8648 95.6764 54.6816 95.8554 54.4309 95.97C54.1805 96.0872 53.8413 96.1561 53.4138 96.1768C53.0859 96.1882 52.8459 96.2336 52.6938 96.3132C52.5416 96.395 52.4698 96.5186 52.478 96.6836L52.4813 96.7496C52.4863 96.8518 52.5273 96.9325 52.6048 96.9918C52.682 97.0486 52.798 97.0882 52.9527 97.1111C53.1077 97.1361 53.3084 97.1439 53.5548 97.1343C54.2277 97.1272 54.7298 97.2086 55.062 97.3786C55.3941 97.5486 55.5891 97.85 55.6477 98.2829C55.6595 98.3357 55.667 98.3936 55.6698 98.4564C55.673 98.5214 55.6713 98.5821 55.6648 98.6386C55.6573 98.9604 55.5673 99.2175 55.3948 99.4096C55.2248 99.6043 54.992 99.745 54.6959 99.8314C54.3998 99.9204 54.0588 99.9743 53.673 99.9932ZM53.6352 99.2857C53.8977 99.2729 54.1141 99.245 54.2845 99.2018C54.457 99.1586 54.5902 99.0914 54.6834 99.0007C54.7745 98.9079 54.8288 98.7839 54.847 98.6293C54.8559 98.5754 54.8584 98.5264 54.8538 98.4822C54.8491 98.4382 54.8423 98.3918 54.833 98.3436C54.8055 98.2075 54.748 98.1043 54.6605 98.0339C54.573 97.9614 54.4427 97.9129 54.2695 97.8889C54.0959 97.8647 53.8616 97.8575 53.5663 97.8672C53.2245 97.8768 52.9563 97.9179 52.7616 97.9904C52.5648 98.0629 52.4609 98.225 52.4498 98.4772C52.4441 98.5518 52.442 98.6057 52.4438 98.6382C52.4452 98.6707 52.452 98.7089 52.4634 98.7525C52.4877 98.9168 52.5484 99.0382 52.6452 99.1175C52.7445 99.1964 52.8773 99.2472 53.0441 99.2693C53.213 99.2914 53.4098 99.2968 53.6352 99.2857ZM53.3841 95.4236C53.6955 95.4086 53.9088 95.3375 54.0238 95.2107C54.1388 95.0839 54.2002 94.8854 54.2077 94.615C54.2084 94.4847 54.2048 94.2936 54.1973 94.0425C54.1898 93.7914 54.1791 93.5254 54.1655 93.2439C54.1516 92.9604 54.1366 92.6979 54.1202 92.4568C54.1038 92.2154 54.0895 92.0379 54.0766 91.9243C54.0473 91.6579 53.9684 91.4697 53.8395 91.3593C53.7105 91.2493 53.493 91.2014 53.1863 91.2164C52.8795 91.2314 52.6616 91.3004 52.5327 91.4232C52.4059 91.5457 52.3413 91.7514 52.3391 92.0404C52.3395 92.1429 52.343 92.3139 52.3502 92.5536C52.3595 92.7929 52.3698 93.0547 52.3813 93.3379C52.3927 93.6193 52.4066 93.8839 52.4234 94.1325C52.4377 94.3811 52.4527 94.5679 52.4684 94.6929C52.5027 94.9636 52.5852 95.1575 52.7166 95.2747C52.8455 95.3897 53.068 95.4393 53.3841 95.4236Z" fill="white"/>
<path d="M61.7999 98.8943C61.211 99.0221 60.7324 99.0368 60.3635 98.9382C59.9945 98.8396 59.756 98.6239 59.6477 98.2903C59.6335 98.2364 59.6202 98.1857 59.6077 98.1385C59.5945 98.0889 59.5835 98.0428 59.5738 97.9993C59.5338 97.7818 59.582 97.5882 59.7192 97.4178C59.8538 97.2482 60.0174 97.1257 60.2106 97.0503L60.1749 96.8868C59.9292 96.8735 59.7502 96.8232 59.6385 96.7357C59.5267 96.6482 59.447 96.5343 59.4002 96.3946C59.3949 96.3696 59.3863 96.3357 59.3745 96.2928C59.3606 96.2507 59.351 96.2064 59.3456 96.16C59.327 95.9975 59.3649 95.8439 59.4599 95.6996C59.5574 95.5571 59.696 95.4543 59.8752 95.3914L59.8374 95.2175C59.5649 95.1575 59.3488 95.0285 59.1888 94.83C59.0263 94.6296 58.8931 94.3453 58.7895 93.9775C58.751 93.8432 58.7056 93.6671 58.6535 93.45C58.6038 93.2321 58.5531 93.0039 58.5013 92.7653C58.4495 92.5268 58.4013 92.3003 58.3574 92.086C58.316 91.8735 58.2849 91.6982 58.2645 91.56C58.2074 91.1653 58.216 90.8385 58.2906 90.5796C58.3624 90.3189 58.5135 90.11 58.7438 89.9525C58.9735 89.7932 59.2952 89.6685 59.7088 89.5789C60.1385 89.4857 60.4927 89.4671 60.7713 89.5228C61.0506 89.581 61.2777 89.7235 61.4531 89.9496L61.6067 89.9164C61.5877 89.7085 61.6381 89.5357 61.7585 89.3978C61.8802 89.2571 62.0592 89.161 62.2956 89.1096L62.4592 89.8632L62.3263 89.8921C62.131 89.9346 61.9888 90.0368 61.9002 90.1989C61.8117 90.361 61.7988 90.5875 61.862 90.8785L61.9267 91.1753C61.9302 91.1914 61.951 91.2818 61.9892 91.4471C62.0252 91.6132 62.0681 91.8107 62.1181 92.0407C62.1674 92.2682 62.2152 92.4885 62.2617 92.7021C62.3063 92.9185 62.337 93.0882 62.3545 93.2103C62.4174 93.5989 62.4127 93.9225 62.3402 94.181C62.2656 94.44 62.1142 94.6468 61.886 94.8014C61.6581 94.9582 61.3349 95.0818 60.9167 95.1725C60.5952 95.2375 60.366 95.3218 60.2288 95.4253C60.0924 95.531 60.0417 95.6646 60.0767 95.8264L60.0906 95.891C60.1124 95.991 60.1663 96.0639 60.2524 96.1093C60.3381 96.1525 60.4588 96.1728 60.6156 96.17C60.7724 96.1693 60.9717 96.1439 61.2131 96.0936C61.8756 95.9757 62.3845 95.9735 62.7399 96.0868C63.0952 96.2 63.3374 96.4653 63.4663 96.8825C63.4867 96.9328 63.5038 96.9885 63.517 97.05C63.531 97.1135 63.5392 97.1735 63.5417 97.2303C63.587 97.5489 63.5406 97.8175 63.4024 98.0353C63.2667 98.2553 63.0602 98.4321 62.7824 98.5664C62.5049 98.7028 62.1774 98.8121 61.7999 98.8943ZM61.6463 98.2025C61.9031 98.1468 62.112 98.0835 62.2727 98.0128C62.436 97.9418 62.556 97.8535 62.6331 97.7489C62.7074 97.6421 62.741 97.5114 62.7335 97.3557C62.7335 97.301 62.7277 97.2521 62.716 97.2096C62.7042 97.1668 62.6899 97.1225 62.6727 97.0764C62.6231 96.9468 62.5495 96.8543 62.452 96.7993C62.3538 96.7421 62.2174 96.7157 62.042 96.7203C61.867 96.725 61.6345 96.7564 61.3449 96.815C61.0092 96.8807 60.7513 96.9653 60.5717 97.0685C60.3895 97.1725 60.3138 97.3496 60.3442 97.6C60.351 97.6746 60.3577 97.7278 60.3645 97.7596C60.3713 97.7914 60.3842 97.8278 60.4027 97.8693C60.4538 98.0271 60.5335 98.1371 60.642 98.1993C60.7531 98.2607 60.8924 98.2889 61.0602 98.2835C61.2302 98.2775 61.4256 98.2507 61.6463 98.2025ZM60.7635 94.4343C61.0681 94.3682 61.2667 94.2632 61.3592 94.1193C61.4517 93.9753 61.4795 93.7693 61.4427 93.5014C61.422 93.3725 61.387 93.185 61.3385 92.9385C61.2895 92.6921 61.2352 92.4314 61.1756 92.156C61.1152 91.8785 61.0574 91.6225 61.0013 91.3868C60.9452 91.1514 60.902 90.9785 60.871 90.8689C60.7981 90.611 60.6892 90.4382 60.5442 90.3507C60.3992 90.2632 60.1763 90.2521 59.8763 90.3171C59.5763 90.3825 59.3727 90.486 59.2656 90.6285C59.1606 90.7703 59.131 90.9839 59.176 91.2693C59.1931 91.3703 59.2249 91.5382 59.2713 91.7735C59.3199 92.0082 59.3731 92.2643 59.4313 92.5421C59.4888 92.8178 59.5463 93.0764 59.6035 93.3189C59.6585 93.5618 59.7042 93.7435 59.7399 93.8639C59.8181 94.1253 59.9317 94.3032 60.0806 94.3971C60.2267 94.4893 60.4545 94.5018 60.7635 94.4343Z" fill="white"/>
<path d="M68.1209 94.8807L67.1834 95.2325L64.5884 88.32L65.5259 87.9682L65.7834 88.6539L65.9794 88.5804C65.9509 88.2929 65.9994 88.0646 66.1248 87.8961C66.2516 87.7243 66.4555 87.5857 66.7366 87.48C66.8084 87.4529 66.8819 87.4304 66.9569 87.4121C67.0312 87.3918 67.1044 87.3679 67.1762 87.3411L67.4473 88.0629L67.0259 88.2211C66.6773 88.3518 66.4237 88.5104 66.2652 88.6968C66.1087 88.8821 66.0469 89.1314 66.0802 89.4446L68.1209 94.8807Z" fill="white"/>
<path d="M74.3457 92.055C73.7771 92.3632 73.3086 92.4729 72.9403 92.384C72.5721 92.295 72.2411 92.009 71.9471 91.5254C71.7982 91.27 71.6343 90.9818 71.455 90.6607C71.2739 90.3407 71.09 90.0093 70.9039 89.6657C70.7168 89.32 70.5353 88.9804 70.3596 88.6468C70.1821 88.3143 70.0232 88.0036 69.8825 87.715C69.63 87.1904 69.5707 86.749 69.7046 86.3904C69.8418 86.0329 70.1843 85.7057 70.7321 85.409C71.2821 85.1107 71.7396 85.0072 72.1039 85.0982C72.4661 85.1904 72.7875 85.4711 73.0686 85.9407C73.1171 86.0204 73.2053 86.1761 73.3336 86.4082C73.4621 86.6404 73.605 86.9043 73.7625 87.1997C73.9189 87.4932 74.0646 87.7768 74.1996 88.0504L71.8464 89.3254C72.0082 89.624 72.1739 89.9247 72.3432 90.2272C72.5146 90.5286 72.6871 90.8347 72.8607 91.1454C73 91.3875 73.1553 91.5229 73.3268 91.5515C73.4964 91.5811 73.7089 91.5268 73.9646 91.3886C74.2203 91.25 74.3778 91.104 74.4375 90.9497C74.4971 90.7957 74.4653 90.5932 74.3425 90.3425C74.2911 90.2329 74.2143 90.084 74.1121 89.8957C74.0082 89.7086 73.895 89.5172 73.7732 89.3215L74.6353 88.8543C74.7078 88.9736 74.7989 89.1293 74.9082 89.3215C75.0164 89.5115 75.0982 89.6672 75.1532 89.7879C75.4014 90.3043 75.4664 90.7372 75.3489 91.0868C75.2321 91.4332 74.8978 91.7557 74.3457 92.055ZM71.4893 88.6657L73.0018 87.8465C72.8961 87.6418 72.7882 87.4357 72.6782 87.2279C72.5671 87.0182 72.4653 86.8325 72.3728 86.6711C72.28 86.5097 72.2128 86.3979 72.1711 86.3357C72.0239 86.0982 71.8657 85.9629 71.6971 85.9297C71.5318 85.8975 71.3303 85.9461 71.0932 86.0747C70.8193 86.2232 70.6553 86.3822 70.6014 86.5515C70.5464 86.7186 70.5761 86.9147 70.6893 87.1386C70.8182 87.3861 70.9482 87.6386 71.0796 87.8957C71.2128 88.1515 71.3496 88.4082 71.4893 88.6657Z" fill="white"/>
<path d="M81.876 89.3768C81.4017 89.7486 80.9774 89.9707 80.6024 90.0428C80.2274 90.115 79.9185 90.0246 79.676 89.7718C79.6396 89.7293 79.6057 89.6896 79.5735 89.6525C79.5399 89.6135 79.5099 89.5768 79.4824 89.5421C79.3517 89.3639 79.3107 89.1685 79.3596 88.9553C79.4067 88.7439 79.5007 88.5625 79.6417 88.4107L79.5385 88.2789C79.3117 88.3739 79.1289 88.4068 78.9899 88.3764C78.851 88.3464 78.7299 88.2785 78.6267 88.1732C78.611 88.1532 78.5885 88.1264 78.5592 88.0932C78.5282 88.0614 78.5003 88.0257 78.4753 87.986C78.3878 87.8478 78.3549 87.6932 78.3774 87.5218C78.4032 87.3511 78.4828 87.1982 78.6167 87.0636L78.5071 86.9236C78.2357 86.9886 77.9849 86.9664 77.7546 86.8575C77.521 86.7478 77.2774 86.5503 77.0235 86.2643C76.9299 86.1603 76.8124 86.0218 76.671 85.8489C76.5314 85.6746 76.3864 85.4914 76.2357 85.2993C76.0849 85.1071 75.9432 84.9243 75.8099 84.7507C75.6799 84.5775 75.5757 84.4332 75.4971 84.3175C75.2735 83.9871 75.1389 83.6893 75.0932 83.4236C75.0442 83.1575 75.0889 82.9035 75.2274 82.6621C75.3646 82.4185 75.5999 82.1661 75.9332 81.905C76.2792 81.6336 76.5899 81.4625 76.8653 81.3914C77.1421 81.3221 77.4085 81.3511 77.6649 81.4782L77.7885 81.3814C77.681 81.2028 77.651 81.025 77.6989 80.8486C77.7471 80.6689 77.8664 80.5043 78.0567 80.355L78.5328 80.9618L78.4257 81.0457C78.2682 81.1693 78.1849 81.3232 78.1757 81.5078C78.1667 81.6925 78.2539 81.9018 78.4378 82.1357L78.6249 82.3746C78.6349 82.3875 78.6932 82.46 78.7999 82.5921C78.9046 82.7257 79.0296 82.885 79.1746 83.07C79.3182 83.2532 79.4574 83.4307 79.5924 83.6028C79.7271 83.7782 79.8285 83.9171 79.8974 84.02C80.1235 84.3421 80.2603 84.6357 80.3078 84.8996C80.3535 85.1653 80.3074 85.4175 80.1692 85.6561C80.0324 85.8964 79.7957 86.1486 79.4585 86.4125C79.1974 86.6111 79.0278 86.7871 78.9499 86.94C78.8732 87.0946 78.8857 87.2371 78.9878 87.3671L79.0285 87.4193C79.0917 87.5 79.1721 87.5418 79.2692 87.5453C79.3653 87.5471 79.4828 87.5125 79.6224 87.4414C79.7635 87.3725 79.9317 87.2625 80.1271 87.1121C80.6721 86.7175 81.1289 86.4935 81.4982 86.4407C81.8674 86.3875 82.201 86.5207 82.4989 86.84C82.5392 86.8764 82.5789 86.9193 82.6174 86.9689C82.6578 87.0203 82.6914 87.0707 82.7182 87.12C82.8978 87.3871 82.9732 87.6489 82.9439 87.9053C82.9178 88.1625 82.8089 88.4118 82.6171 88.6539C82.4267 88.8975 82.1799 89.1386 81.876 89.3768ZM81.4364 88.8214C81.6432 88.6593 81.8035 88.5114 81.9174 88.3778C82.0332 88.2428 82.1032 88.111 82.1267 87.9832C82.1471 87.8546 82.1203 87.7221 82.0457 87.5857C82.0217 87.5364 81.9953 87.495 81.9664 87.4618C81.9374 87.4286 81.9049 87.3946 81.8692 87.3603C81.7682 87.2653 81.6617 87.2143 81.5496 87.2075C81.4364 87.1989 81.3017 87.2346 81.1464 87.315C80.9907 87.3957 80.7953 87.5253 80.5599 87.7039C80.2864 87.9093 80.0914 88.0978 79.9746 88.2693C79.856 88.4421 79.8649 88.6346 80.0017 88.8468C80.0403 88.911 80.0696 88.9561 80.0896 88.9818C80.1096 89.0075 80.1371 89.0346 80.1717 89.0636C80.2864 89.1836 80.4064 89.2478 80.531 89.2564C80.6578 89.2635 80.7953 89.2278 80.9442 89.1496C81.0946 89.07 81.2589 88.9607 81.4364 88.8218V88.8214ZM78.9992 85.815C79.2446 85.6225 79.3774 85.4414 79.3978 85.2718C79.4185 85.1018 79.3535 84.9043 79.2035 84.6793C79.1285 84.5725 79.0157 84.4189 78.8642 84.2182C78.7128 84.0175 78.5503 83.8064 78.3767 83.585C78.2017 83.3618 78.0374 83.156 77.8846 82.9685C77.7317 82.781 77.6171 82.6446 77.5414 82.5593C77.3635 82.3589 77.1903 82.2507 77.0214 82.2353C76.8524 82.22 76.6474 82.3068 76.4057 82.4964C76.1639 82.6861 76.026 82.8678 75.9917 83.0428C75.9592 83.2161 76.0253 83.4214 76.1907 83.6582C76.2503 83.7418 76.3521 83.8789 76.496 84.0707C76.6421 84.2607 76.8017 84.4682 76.9749 84.6928C77.1467 84.9157 77.3114 85.1239 77.4689 85.3168C77.6242 85.511 77.7446 85.655 77.8292 85.7482C78.0135 85.9496 78.1932 86.06 78.3682 86.0793C78.5399 86.0986 78.7503 86.0103 78.9992 85.815Z" fill="white"/>
<path d="M86.0185 82.8829C85.7071 83.2161 85.3792 83.3918 85.0342 83.41C84.6878 83.43 84.3232 83.2868 83.9407 82.9804C83.8628 82.9139 83.7864 82.8475 83.7117 82.7807C83.6339 82.7143 83.5589 82.6443 83.4875 82.5711C83.2828 82.3575 83.1264 82.1382 83.0182 81.9132C82.91 81.6847 82.8553 81.43 82.8539 81.1482C82.8542 80.8686 82.9153 80.5372 83.0375 80.1547C83.0982 79.95 83.1696 79.7339 83.2525 79.5054C83.3353 79.2804 83.4242 79.0657 83.5196 78.8618L82.4489 77.8614C82.2517 77.6772 82.071 77.5861 81.9064 77.5886C81.7435 77.5893 81.5621 77.6964 81.3617 77.9107C81.195 78.0893 81.0982 78.2679 81.0714 78.4461C81.046 78.6229 81.1246 78.8064 81.3071 78.9961C81.3925 79.0854 81.4914 79.1839 81.6035 79.2922C81.7175 79.4018 81.8278 79.5036 81.935 79.5972C82.0417 79.6907 82.1242 79.7629 82.1817 79.8132L81.5264 80.5147C81.3975 80.3972 81.2632 80.2768 81.1242 80.1529C80.9867 80.0307 80.8567 79.9093 80.7342 79.7882C80.4817 79.53 80.3121 79.2757 80.2242 79.0254C80.1385 78.7764 80.1435 78.5172 80.24 78.2472C80.3396 77.9772 80.5392 77.6814 80.8392 77.3604C81.1378 77.0407 81.4139 76.8307 81.6675 76.73C81.9207 76.6293 82.175 76.6297 82.4303 76.7314C82.6839 76.8314 82.9578 77.0189 83.2517 77.2936L87.456 81.2268L86.7867 81.9432L86.2867 81.4764L86.1939 81.5757C86.2975 81.8157 86.3485 82.0354 86.3471 82.2347C86.3457 82.4339 86.236 82.65 86.0185 82.8829ZM85.6542 82.1889C85.8132 82.0189 85.9039 81.835 85.9271 81.6368C85.95 81.4386 85.9085 81.2307 85.8021 81.0139L84.1264 79.4289C84.0492 79.5829 83.981 79.75 83.921 79.9297C83.8596 80.1079 83.8042 80.3204 83.7553 80.5672C83.6846 80.8643 83.6896 81.1093 83.7703 81.3025C83.8525 81.4939 83.9821 81.6772 84.1592 81.8522C84.2378 81.9318 84.3092 82 84.3735 82.0572C84.4382 82.1143 84.5032 82.1704 84.5692 82.2257C84.7553 82.3743 84.9446 82.4457 85.1371 82.4411C85.3278 82.4379 85.5003 82.3539 85.6542 82.1889Z" fill="white"/>
<path d="M91.1141 76.4139C90.7416 76.9596 90.3798 77.2732 90.0287 77.3543C89.6741 77.4364 89.253 77.3107 88.7652 76.9779L84.5588 74.1157L84.2323 74.5943L83.6009 74.1636L83.9452 73.6593L82.2188 72.4811L82.7734 71.6682L84.4998 72.8464L85.2216 71.7886L85.853 72.2193L85.1134 73.3032L89.412 76.2279C89.6559 76.3943 89.852 76.4621 90.0002 76.4307C90.147 76.4014 90.3141 76.2493 90.5016 75.9746C90.5712 75.8729 90.628 75.7836 90.672 75.7064C90.7159 75.6296 90.7666 75.5386 90.8238 75.4339L91.4291 75.8471C91.3873 75.9371 91.342 76.0286 91.2927 76.1214C91.2434 76.2143 91.1837 76.3118 91.1141 76.4139Z" fill="white"/>
<path d="M94.0277 71.2078C93.8291 71.6053 93.6188 71.8968 93.3959 72.0821C93.1723 72.2696 92.9191 72.3628 92.6359 72.3618C92.352 72.3578 92.0227 72.2725 91.648 72.1061C91.418 72.0043 91.1491 71.8789 90.8413 71.7303C90.5323 71.5839 90.2091 71.4264 89.872 71.2578C89.5348 71.0896 89.2013 70.9189 88.8713 70.7464C88.5402 70.5761 88.2423 70.4178 87.977 70.2725C87.6077 70.0646 87.3384 69.8482 87.1698 69.6239C87.0013 69.3993 86.9241 69.1425 86.9388 68.8528C86.9541 68.5668 87.0613 68.225 87.2598 67.8275C87.4616 67.4239 87.673 67.1303 87.8945 66.9471C88.1148 66.7661 88.3666 66.6786 88.6495 66.6846C88.9302 66.6896 89.2606 66.7753 89.6406 66.9418C89.8956 67.0561 90.1784 67.1871 90.4898 67.3346C90.8009 67.4821 91.1209 67.6382 91.4498 67.8025C91.7788 67.9668 92.1027 68.1325 92.422 68.2996C92.7413 68.4671 93.0381 68.6253 93.3116 68.7753C93.6684 68.9771 93.9338 69.1903 94.108 69.4146C94.2809 69.636 94.3605 69.8903 94.347 70.1778C94.3334 70.465 94.227 70.8082 94.0277 71.2078ZM93.347 70.8678C93.4916 70.5785 93.537 70.3493 93.4841 70.1796C93.4298 70.0121 93.2873 69.8657 93.0563 69.7396C92.7284 69.5628 92.4002 69.3871 92.0713 69.2128C91.7434 69.0414 91.4116 68.8703 91.0755 68.6996C90.7416 68.5303 90.4016 68.3643 90.0563 68.2025C89.712 68.0382 89.3634 67.8771 89.0105 67.7193C88.7609 67.605 88.5559 67.5807 88.3955 67.6461C88.2323 67.7128 88.0805 67.8864 87.9402 68.1675C87.7988 68.4503 87.752 68.6793 87.8002 68.8543C87.8481 69.0289 87.9938 69.1825 88.2373 69.3143C88.5256 69.4714 88.8309 69.6353 89.1534 69.8071C89.4748 69.9757 89.8084 70.1461 90.1541 70.3186C90.4995 70.4911 90.848 70.6625 91.1998 70.8328C91.5548 71.0021 91.9041 71.1639 92.2488 71.3178C92.5038 71.4321 92.7156 71.4561 92.8838 71.3893C93.0513 71.3246 93.2056 71.151 93.347 70.8678Z" fill="white"/>
<path d="M96.5259 64.7328L96.2181 65.6857L89.1917 63.4171L89.4995 62.4639L90.1966 62.6892L90.2613 62.49C90.0184 62.3332 89.8702 62.1535 89.8159 61.95C89.7602 61.7439 89.7784 61.4978 89.8706 61.2125C89.8942 61.1392 89.922 61.0678 89.9545 60.9975C89.9849 60.9264 90.0117 60.8546 90.0352 60.7817L90.7692 61.0185L90.6309 61.4471C90.5166 61.8014 90.4831 62.0985 90.5302 62.3385C90.5781 62.5764 90.7349 62.78 91.0002 62.9485L96.5259 64.7328Z" fill="white"/>
</g>
</g>
</g>
</g>
</g>
</g>
</g>
<defs>
<clipPath id="clip0_347_879">
<rect width="100" height="100" fill="white"/>
</clipPath>
<clipPath id="clip1_347_879">
<rect width="100" height="100" fill="white" transform="translate(0 0.000244141)"/>
</clipPath>
<clipPath id="clip2_347_879">
<rect width="100" height="100" fill="white"/>
</clipPath>
<clipPath id="clip3_347_879">
<rect width="100" height="100" fill="white"/>
</clipPath>
<clipPath id="clip4_347_879">
<rect width="100" height="100" fill="white"/>
</clipPath>
<clipPath id="clip5_347_879">
<rect width="100" height="100" fill="white"/>
</clipPath>
<clipPath id="clip6_347_879">
<rect width="100" height="100" fill="white"/>
</clipPath>
<clipPath id="clip7_347_879">
<rect width="58.9256" height="58.9256" fill="white" transform="translate(20.5371 20.5372)"/>
</clipPath>
<clipPath id="clip8_347_879">
<rect width="41.2479" height="41.2479" fill="white" transform="translate(29.376 29.3761)"/>
</clipPath>
</defs>
</svg>
