<svg width="13" height="13" viewBox="0 0 13 13" fill="none" xmlns="http://www.w3.org/2000/svg">
<path d="M0.797008 5.25374C0.797008 5.25374 6.5466 2.61951 8.54065 1.69194C9.30507 1.32094 11.8974 0.133639 11.8974 0.133639C11.8974 0.133639 13.0938 -0.38576 12.9941 0.875689C12.9608 1.39514 12.695 3.21311 12.4291 5.17954C12.0303 7.96221 11.5982 11.0046 11.5982 11.0046C11.5982 11.0046 11.5318 11.8579 10.9668 12.0063C10.4018 12.1547 9.47121 11.4869 9.30507 11.3385C9.17209 11.2272 6.81246 9.55759 5.94836 8.74134C5.71571 8.51874 5.44985 8.07354 5.98157 7.55409C7.17804 6.32971 8.60711 4.80854 9.47121 3.84389C9.87004 3.39864 10.2688 2.35979 8.60711 3.62124C6.24748 5.43926 3.92106 7.14596 3.92106 7.14596C3.92106 7.14596 3.38929 7.51696 2.39227 7.18304C1.3952 6.84916 0.231984 6.40391 0.231984 6.40391C0.231984 6.40391 -0.565599 5.84739 0.797008 5.25374Z" fill="white" fill-opacity="0.4"/>
</svg>
