<svg width="28" height="26" viewBox="0 0 28 26" fill="none" xmlns="http://www.w3.org/2000/svg">
<path d="M2.42828 13.6723L2.16775 14.3756L2.16785 14.3756L2.16819 14.3758L2.16946 14.3762L2.17431 14.378L2.19306 14.385L2.26523 14.4116C2.32813 14.4347 2.41986 14.4683 2.5356 14.5106C2.76705 14.595 3.09472 14.7137 3.48019 14.8512C4.25006 15.1257 5.25484 15.4765 6.18519 15.7781C7.22587 16.1155 8.0596 16.1068 8.65914 15.9919C8.9563 15.9349 9.18985 15.853 9.35725 15.7798C9.44089 15.7432 9.50795 15.7089 9.5582 15.6809C9.58333 15.6668 9.60427 15.6544 9.62101 15.6441L9.64297 15.6303L9.65159 15.6246L9.6553 15.6222L9.65701 15.621L9.65783 15.6205C9.65823 15.6202 9.65863 15.6199 9.23888 14.9984M2.42828 13.6723C2.00849 14.2938 2.0081 14.2936 2.00769 14.2933L2.00686 14.2927L2.00507 14.2915L2.00107 14.2888L1.99136 14.282C1.98417 14.2769 1.9755 14.2707 1.96557 14.2633C1.94577 14.2486 1.92058 14.2292 1.89163 14.2052C1.83447 14.1579 1.7588 14.0897 1.6798 14.0018C1.53092 13.8362 1.31983 13.5448 1.26382 13.147C1.20227 12.7097 1.34509 12.2711 1.68685 11.8871C2.00633 11.528 2.49821 11.214 3.17347 10.9286L3.17504 10.9279L3.19788 10.9178L3.2874 10.8781L3.63054 10.7258L4.88319 10.17C5.93575 9.70277 7.37749 9.06259 8.93425 8.37062C12.0454 6.98774 15.6136 5.39903 17.4539 4.57042C18.1699 4.23421 19.7221 3.53678 21.0891 2.92605C21.7761 2.61916 22.4188 2.33303 22.8898 2.12363L23.4517 1.87404L23.6061 1.80549L23.6465 1.78757L23.6569 1.78299L23.6595 1.78183L23.6601 1.78153L23.6603 1.78146L23.9643 2.46707M2.42828 13.6723L2.00849 14.2938L2.08318 14.3443L2.1677 14.3756L2.42828 13.6723ZM9.23888 14.9984L9.65863 15.6199L9.66593 15.615L9.67312 15.6099L9.23888 14.9984ZM9.23888 14.9984L9.67319 15.6098L9.67335 15.6097L9.67396 15.6093L9.67637 15.6076L9.68581 15.6009L9.72289 15.5745L9.86716 15.4718C9.99345 15.3818 10.1786 15.2497 10.4144 15.0811C10.8859 14.7438 11.5598 14.2604 12.37 13.6753C13.9325 12.547 16.003 11.0398 18.106 9.47395C16.5255 11.148 14.3727 13.3546 12.5209 15.1891C11.9002 15.7791 11.6443 16.4393 11.7411 17.0967C11.8301 17.7015 12.197 18.145 12.472 18.3997L12.4755 18.4029C13.3104 19.1664 14.8342 20.3019 16.147 21.2504C16.8099 21.7293 17.43 22.1684 17.8984 22.4992C17.9606 22.5432 18.0201 22.5852 18.0766 22.6251C18.2332 22.7357 18.3667 22.8299 18.4731 22.9055C18.5454 22.9568 18.6034 22.9982 18.6463 23.0293C18.6803 23.0539 18.6977 23.0669 18.704 23.0716C18.9213 23.2553 19.4691 23.642 20.1016 23.9574C20.43 24.1212 20.8048 24.2778 21.1869 24.3741C21.5608 24.4683 22.0017 24.5202 22.4312 24.411C23.3078 24.1881 23.7281 23.4536 23.9195 22.9612C24.0212 22.6993 24.08 22.4534 24.1136 22.2756C24.1306 22.1855 24.1417 22.11 24.1488 22.0549C24.1523 22.0273 24.1548 22.0047 24.1566 21.9877L24.1569 21.9841L24.1633 21.9405L24.1899 21.7595L24.2903 21.0757C24.3766 20.4883 24.4993 19.6534 24.645 18.663C24.9364 16.6824 25.3199 14.0802 25.688 11.5942L25.688 11.5942L25.6889 11.5881C25.8216 10.6373 25.9554 9.69956 26.0811 8.81902C26.414 6.48565 26.6896 4.55413 26.7371 3.84846C26.7906 3.18241 26.6803 2.60336 26.3395 2.17079C25.9906 1.72789 25.5086 1.57495 25.1159 1.53805C24.731 1.50187 24.3667 1.56826 24.1222 1.63028C23.995 1.66254 23.8882 1.69678 23.8115 1.72356C23.773 1.73703 23.7415 1.74881 23.7183 1.75781L23.6896 1.76915L23.68 1.77305L23.6765 1.77451L23.675 1.77512L23.6744 1.77539C23.6741 1.77551 23.6738 1.77564 23.9643 2.46707M23.9643 2.46707L23.6738 1.77564L23.667 1.77847L23.6604 1.78143L23.9643 2.46707ZM19.3855 7.84102C19.3857 7.84088 19.3854 7.84399 19.384 7.85069C19.3846 7.8445 19.3853 7.84116 19.3855 7.84102Z" stroke="white" stroke-width="1.5"/>
</svg>
