<svg width="28" height="18" viewBox="0 0 28 18" fill="none" xmlns="http://www.w3.org/2000/svg">
<path d="M20.2052 2.69961L20.2051 2.69957L20.2003 2.71056L20.2003 2.7106L20.2003 2.71065L20.2002 2.7108L20.1999 2.7115L20.1977 2.71654L20.1875 2.7393C20.1782 2.75997 20.164 2.79148 20.145 2.83281C20.1069 2.91551 20.0498 3.03741 19.9751 3.19053C19.8256 3.49707 19.6065 3.92712 19.33 4.41728C18.7754 5.40081 18.0096 6.59072 17.1322 7.51479C16.9873 7.65035 16.872 7.75319 16.7782 7.8315V3.22013C16.7782 2.86559 16.7312 2.42013 16.4483 2.06519C16.1306 1.6664 15.6729 1.56476 15.2781 1.56476H11.1521C10.3711 1.56476 9.73403 2.14256 9.73403 2.88089C9.73403 3.25521 9.89272 3.53079 10.0295 3.71644C10.0937 3.80355 10.1645 3.88586 10.2188 3.94894L10.22 3.9503L10.2261 3.95743C10.2831 4.02358 10.3309 4.07919 10.3788 4.14023C10.5431 4.34984 10.7356 4.65412 10.7772 5.30438V8.8592C10.7504 8.83451 10.7224 8.80784 10.6932 8.77909C10.3933 8.48431 10.0306 8.03538 9.64015 7.45655C8.8618 6.30274 8.02692 4.71329 7.40525 3.01454L7.40456 3.01266C7.27108 2.65092 7.09179 2.25599 6.7609 1.97018C6.39801 1.65673 5.96533 1.56476 5.52583 1.56476H2.90022C2.43547 1.56476 1.97676 1.66459 1.64421 1.99004C1.30361 2.32338 1.25 2.74134 1.25 3.01133C1.25 3.28619 1.33184 3.69591 1.46976 4.17029C1.61437 4.66771 1.83928 5.29834 2.16578 6.03781C2.81886 7.51691 3.88434 9.44501 5.54505 11.6292C7.8304 14.7055 11.095 16.4353 14.1528 16.4353C14.9851 16.4353 15.6549 16.3584 16.1158 16.0684C16.3813 15.9014 16.5658 15.673 16.67 15.4018C16.7649 15.1549 16.7783 14.9099 16.7783 14.7274V12.5186C16.7783 12.4859 16.7787 12.4561 16.7794 12.4289C16.9642 12.4546 17.507 12.6296 18.8215 13.8178C19.2509 14.2208 19.5916 14.569 19.8799 14.8686C19.9323 14.9231 19.9838 14.9768 20.0343 15.0296C20.2557 15.2607 20.4594 15.4733 20.6454 15.6483C20.8777 15.8667 21.1274 16.0709 21.4215 16.2153C21.7301 16.3669 22.0508 16.4353 22.4047 16.4353H25.0304C25.4874 16.4353 26.029 16.3335 26.3996 15.9299C26.809 15.4842 26.8077 14.9051 26.6553 14.4159L26.6522 14.4061L26.6488 14.3963C26.4873 13.9242 26.1482 13.4175 25.7553 12.9186C25.3523 12.4071 24.8416 11.8413 24.2752 11.2434C23.9427 10.8757 23.5363 10.5023 23.2032 10.1961L23.2029 10.1959C22.8325 9.85555 22.601 9.63921 22.5133 9.52398L22.5038 9.51158L22.4939 9.49958C22.4756 9.47751 22.4605 9.45825 22.4481 9.44161C22.4512 9.43652 22.4545 9.43116 22.458 9.42553C22.4775 9.39406 22.5005 9.35886 22.5287 9.31626L22.5523 9.28494C22.5764 9.25284 22.6116 9.20589 22.6563 9.1458C22.7457 9.02565 22.8735 8.85286 23.0277 8.64119C23.3359 8.21826 23.7511 7.63816 24.1777 7.01147C24.6032 6.38639 25.0456 5.70678 25.4053 5.08654C25.743 4.5042 26.055 3.8961 26.1727 3.41957C26.2775 3.07584 26.3423 2.56395 26.0139 2.12347C25.6792 1.67453 25.1321 1.56476 24.6553 1.56476H22.0297C21.5655 1.56476 21.1641 1.68239 20.837 1.91418C20.5162 2.14157 20.3248 2.43794 20.2052 2.69961ZM16.7989 12.2283C16.7989 12.2283 16.7988 12.2287 16.7985 12.2295L16.7989 12.2283Z" stroke="white" stroke-width="1.5"/>
</svg>
