<svg width="16" height="11" viewBox="0 0 16 11" fill="none" xmlns="http://www.w3.org/2000/svg">
<path fill-rule="evenodd" clip-rule="evenodd" d="M15.6329 0.744847C15.7441 0.315493 15.6329 0 15.1035 0H13.3531C12.908 0 12.7029 0.272539 12.5916 0.573071C12.5916 0.573071 11.7014 3.08477 10.4404 4.71628C10.0325 5.18855 9.847 5.33882 9.62446 5.33882C9.51321 5.33882 9.35215 5.18855 9.35215 4.75923V0.744849C9.35215 0.229622 9.22298 0 8.85206 0H6.10142C5.82329 0 5.65602 0.239129 5.65602 0.465759C5.65602 0.954182 6.28649 1.06682 6.35148 2.44075V5.42472C6.35148 6.07895 6.24942 6.19756 6.02688 6.19756C5.43349 6.19756 3.99005 3.67464 3.13395 0.787765C2.96618 0.226658 2.79791 0 2.35055 0H0.600145C0.100028 0 0 0.272539 0 0.573071C0 1.10977 0.593426 3.77174 2.76309 7.29237C4.20953 9.69668 6.24745 11 8.10188 11C9.21453 11 9.35218 10.7105 9.35218 10.2119V8.39474C9.35218 7.81579 9.45758 7.70025 9.80992 7.70025C10.0695 7.70025 10.5146 7.85051 11.5531 9.00975C12.7399 10.3837 12.9356 11 13.6032 11H15.3536C15.8537 11 16.1037 10.7105 15.9595 10.1393C15.8016 9.56992 15.235 8.74386 14.4831 7.76464C14.0751 7.2065 13.4632 6.60544 13.2777 6.30484C13.0181 5.91847 13.0923 5.74669 13.2777 5.40325C13.2777 5.40325 15.4103 1.92553 15.6329 0.744847Z" fill="white" fill-opacity="0.4"/>
</svg>
