<svg width="16" height="17" viewBox="0 0 16 17" fill="none" xmlns="http://www.w3.org/2000/svg">
<path d="M0 16.9445L1.14889 12.4282C0.222339 10.6688 -0.0720356 8.61579 0.319785 6.64584C0.711605 4.67589 1.76334 2.92115 3.28199 1.70362C4.80064 0.486082 6.68434 -0.112579 8.58743 0.0174907C10.4905 0.14756 12.2853 0.997635 13.6425 2.41172C14.9997 3.82581 15.8283 5.70907 15.9761 7.7159C16.124 9.72273 15.5812 11.7185 14.4474 13.3371C13.3137 14.9556 11.6649 16.0883 9.80374 16.5273C7.94258 16.9663 5.99384 16.6822 4.31512 15.7271L0 16.9445ZM4.52319 14.0371L4.79006 14.2041C6.00599 14.9648 7.42617 15.2796 8.8293 15.0995C10.2324 14.9193 11.5397 14.2543 12.5473 13.208C13.555 12.1618 14.2064 10.7932 14.4002 9.31534C14.5939 7.83752 14.3191 6.33356 13.6184 5.03784C12.9178 3.74211 11.8308 2.7274 10.5267 2.15184C9.22268 1.57628 7.77488 1.47219 6.40893 1.8558C5.04298 2.23941 3.83563 3.08917 2.97501 4.27265C2.1144 5.45614 1.64887 6.90686 1.65097 8.39876C1.64982 9.63579 1.97395 10.8489 2.58727 11.903L2.75462 12.1942L2.11233 14.715L4.52319 14.0371Z" fill="white" fill-opacity="0.4"/>
<path fill-rule="evenodd" clip-rule="evenodd" d="M11.0002 9.55846C10.8437 9.42528 10.6606 9.33154 10.4646 9.28438C10.2686 9.23722 10.0651 9.23789 9.8694 9.28633C9.57539 9.41524 9.38541 9.9022 9.19544 10.1457C9.15538 10.2041 9.09652 10.245 9.02989 10.2608C8.96327 10.2766 8.89347 10.2662 8.83358 10.2316C7.75721 9.78665 6.85499 8.97064 6.27346 7.91615C6.22386 7.85034 6.20038 7.76679 6.20798 7.68309C6.21557 7.59938 6.25364 7.52205 6.31417 7.46738C6.52605 7.24598 6.68162 6.97176 6.76649 6.67009C6.78533 6.33734 6.7131 6.00588 6.55842 5.71526C6.43884 5.30781 6.21125 4.94501 5.90256 4.66972C5.74334 4.59413 5.5668 4.56879 5.39425 4.59675C5.22169 4.6247 5.06048 4.70476 4.93007 4.82726C4.70367 5.03343 4.52397 5.29058 4.4042 5.57976C4.28443 5.86895 4.22764 6.1828 4.23802 6.49822C4.23872 6.67535 4.25999 6.85171 4.30135 7.02338C4.40638 7.43582 4.5679 7.82987 4.7808 8.19305C4.93441 8.47125 5.10201 8.74058 5.28288 8.99988C5.87069 9.85158 6.60958 10.5747 7.45853 11.1292C7.88455 11.4109 8.33986 11.64 8.81549 11.8119C9.30957 12.0483 9.85508 12.139 10.3941 12.0744C10.7012 12.0254 10.9922 11.8974 11.2414 11.7018C11.4906 11.5061 11.6905 11.2488 11.8234 10.9525C11.9015 10.7735 11.9252 10.5734 11.8913 10.3796C11.8098 9.98336 11.3078 9.74943 11.0002 9.55846Z" fill="white" fill-opacity="0.4"/>
</svg>
