<svg width="27" height="28" viewBox="0 0 27 28" fill="none" xmlns="http://www.w3.org/2000/svg">
<path d="M0 27.5L1.93547 20.3035C0.374561 17.5001 -0.121354 14.2287 0.538723 11.0897C1.1988 7.95074 2.97059 5.15467 5.52897 3.21461C8.08735 1.27454 11.2607 0.320613 14.4667 0.52787C17.6728 0.735127 20.6964 2.08967 22.9828 4.34293C25.2692 6.59619 26.665 9.59703 26.914 12.7948C27.1631 15.9925 26.2487 19.1727 24.3387 21.7518C22.4287 24.3308 19.6512 26.1357 16.5158 26.8352C13.3804 27.5348 10.0975 27.082 7.26943 25.5601L0 27.5ZM7.61995 22.8671L8.06953 23.1334C10.1179 24.3455 12.5104 24.8471 14.8742 24.56C17.238 24.2729 19.4402 23.2133 21.1377 21.5462C22.8353 19.8791 23.9327 17.6982 24.2591 15.3434C24.5855 12.9886 24.1225 10.5921 22.9422 8.52747C21.7619 6.46281 19.9306 4.84594 17.7338 3.92882C15.5369 3.0117 13.0979 2.84584 10.7967 3.4571C8.49561 4.06836 6.46165 5.42239 5.01183 7.3082C3.562 9.194 2.77775 11.5056 2.78128 13.8829C2.77936 15.854 3.32539 17.787 4.35861 19.4667L4.64055 19.9307L3.55852 23.9474L7.61995 22.8671Z" fill="white"/>
<path fill-rule="evenodd" clip-rule="evenodd" d="M18.5316 15.7307C18.268 15.5185 17.9594 15.3691 17.6293 15.294C17.2992 15.2189 16.9562 15.2199 16.6266 15.2971C16.1313 15.5025 15.8112 16.2785 15.4912 16.6664C15.4237 16.7594 15.3245 16.8247 15.2123 16.8499C15.1001 16.8751 14.9825 16.8585 14.8816 16.8034C13.0683 16.0943 11.5484 14.7941 10.5687 13.1138C10.4851 13.009 10.4456 12.8758 10.4584 12.7424C10.4712 12.6091 10.5353 12.4858 10.6373 12.3987C10.9942 12.0459 11.2563 11.609 11.3993 11.1283C11.431 10.5981 11.3093 10.0699 11.0488 9.60683C10.8473 8.95759 10.4639 8.37949 9.94387 7.94083C9.67565 7.82039 9.37825 7.78001 9.08755 7.82456C8.79685 7.8691 8.52527 7.99667 8.30558 8.19187C7.92418 8.52039 7.62144 8.93013 7.41967 9.39093C7.21791 9.85173 7.12224 10.3518 7.13972 10.8544C7.1409 11.1367 7.17673 11.4177 7.2464 11.6912C7.42334 12.3484 7.69545 12.9763 8.05412 13.555C8.31289 13.9983 8.59523 14.4275 8.89993 14.8407C9.89018 16.1978 11.1349 17.3501 12.5651 18.2335C13.2828 18.6825 14.0499 19.0475 14.8511 19.3214C15.6835 19.6981 16.6024 19.8426 17.5105 19.7398C18.0278 19.6616 18.518 19.4577 18.9379 19.1459C19.3578 18.8342 19.6945 18.4242 19.9184 17.9521C20.0499 17.6668 20.0899 17.348 20.0327 17.0392C19.8955 16.4078 19.0497 16.035 18.5316 15.7307Z" fill="white"/>
</svg>
